<svg width="23" height="23" viewBox="0 0 23 23" fill="none" xmlns="http://www.w3.org/2000/svg">
<path d="M11.8198 22.1658C17.895 22.1658 22.8198 17.2409 22.8198 11.1658C22.8198 5.09064 17.895 0.165771 11.8198 0.165771C5.74469 0.165771 0.819824 5.09064 0.819824 11.1658C0.819824 17.2409 5.74469 22.1658 11.8198 22.1658Z" fill="white"/>
<path d="M19.4285 12.5646V17.5029C19.4285 18.4143 18.6867 19.1561 17.7754 19.1561H8.9796C8.06823 19.1561 7.32642 18.4143 7.32642 17.5029V12.5646C7.32642 11.6532 8.06823 10.8902 8.9796 10.8902H17.7754C18.5596 10.8902 19.2166 11.4625 19.3861 12.2043C19.4073 12.3103 19.4285 12.4374 19.4285 12.5646Z" fill="#FFC124"/>
<path d="M11.8198 10.9114H9.97583V19.1773H11.8198V10.9114Z" fill="#FFD371"/>
<path d="M19.365 12.2043L16.9488 16.5068H7.32642V14.6629H15.5287L17.6482 10.8902H17.7754C18.5596 10.8902 19.2166 11.4625 19.3861 12.2043H19.365Z" fill="#FFD371"/>
<path d="M10.6541 1.01355C7.0934 1.01355 4.21094 3.91721 4.21094 7.4779C4.21094 7.62627 4.21094 7.79582 4.21094 7.94419C4.3593 13.4972 7.53849 13.8363 9.48839 15.8286C9.48839 15.8286 9.50959 15.8498 9.50959 15.871C9.97587 16.3372 10.3574 16.8883 10.6329 17.6089C10.9084 16.8671 11.2899 16.3161 11.7562 15.8498C11.7562 15.8498 11.7562 15.8498 11.7562 15.8286C13.7485 13.8363 16.9065 13.4972 17.0549 7.94419C17.0549 7.79582 17.0549 7.62627 17.0549 7.4779C17.0549 3.91721 14.1512 1.01355 10.5905 1.01355H10.6541ZM10.6541 10.1484C9.17047 10.1484 7.98358 8.96153 7.98358 7.4779C7.98358 5.99428 9.17047 4.78619 10.6541 4.78619C12.1377 4.78619 13.3458 5.97309 13.3458 7.4779C13.3458 8.98272 12.1377 10.1484 10.6541 10.1484Z" fill="#0D92F4"/>
</svg>
