<svg width="66" height="66" viewBox="0 0 66 66" fill="none" xmlns="http://www.w3.org/2000/svg">
<path d="M52.6561 0.691833H13.3532C6.25715 0.691833 0.504639 6.44434 0.504639 13.5404V52.8433C0.504639 59.9393 6.25715 65.6918 13.3532 65.6918H52.6561C59.7521 65.6918 65.5046 59.9393 65.5046 52.8433V13.5404C65.5046 6.44434 59.7521 0.691833 52.6561 0.691833Z" fill="#E8E7EE"/>
<path d="M57.3064 35.4089C57.1226 36.0795 56.6359 36.9231 55.4246 37.3449L53.759 43.542C53.2832 45.3049 51.477 46.2134 49.7574 45.597L41.3106 43.3474C39.9046 42.8391 41.6026 40.8382 42.0136 39.3025L43.4737 33.8732C42.868 33.0404 42.9113 32.2184 43.0627 31.6452C43.3871 30.4339 44.3281 27.6868 46.556 25.7941L40.9645 23.7933L41.4404 20.5487C46.9346 21.9655 47.7565 22.1926 50.3089 22.8848C50.9795 23.0579 51.4446 23.1985 51.6933 23.2633C51.7257 23.2633 51.7582 23.285 51.7798 23.2958C51.8447 23.3174 51.8772 23.3282 51.8772 23.3282C59.1775 25.7833 57.9121 33.1053 57.2956 35.4306L57.3064 35.4089Z" fill="#CDCCD3"/>
<path d="M47.0321 32.6727C46.9564 32.9647 46.7725 33.3 45.9938 33.473C45.6693 33.5379 45.4098 33.7867 45.3232 34.1003L43.5495 40.6976C43.3332 41.4872 42.5329 41.909 41.7542 41.6386L31.2309 37.9938C30.5928 37.7667 30.2251 37.0204 30.4089 36.3066L31.9988 30.3906C32.0745 30.1094 31.9988 29.8066 31.8041 29.6119C31.3607 29.1577 31.3823 28.8116 31.4472 28.5629C33.275 21.76 38.0986 21.6194 40.9755 22.1818C48.2434 23.5986 47.9081 29.3848 47.0212 32.6943L47.0321 32.6727Z" fill="#E9E7EF"/>
<path d="M41.4297 20.5379C33.1668 19.0454 30.6685 26.0212 30.0844 28.1843C29.933 28.7575 29.8898 29.5795 30.4954 30.4123L29.0354 35.8415C28.6244 37.3881 29.4031 39.0429 30.8091 39.5512L41.2999 43.3474C43.0195 43.9638 44.8257 43.0554 45.3016 41.2925L46.9671 35.0953C48.1784 34.6735 48.6651 33.8299 48.849 33.1594C49.5304 30.6394 50.9364 22.2575 41.4297 20.5379ZM45.9938 33.473C45.6693 33.5379 45.4097 33.7866 45.3232 34.1003L43.5495 40.6976C43.3332 41.4871 42.5329 41.9089 41.7542 41.6386L31.2309 37.9938C30.5928 37.7667 30.225 37.0204 30.4089 36.3066L31.9988 30.3906C32.0745 30.1094 31.9988 29.8066 31.8041 29.6119C31.3606 29.1577 31.3823 28.8116 31.4472 28.5628C33.275 21.76 38.0986 21.6194 40.9755 22.1818C48.2433 23.5986 47.9081 29.3848 47.0212 32.6943C46.9455 32.9863 46.7616 33.3216 45.9829 33.4946L45.9938 33.473Z" fill="#CDCCD3"/>
<path d="M24.6335 26.9622L9.42717 29.2226C8.61603 29.3415 8.07526 30.0554 8.25912 30.7475L12.0877 45.1535C12.25 45.7592 12.9097 46.1377 13.6127 46.0296L25.5204 44.2559C26.2233 44.1477 26.7533 43.5961 26.7209 42.9688L26.1909 28.0762C26.1693 27.3515 25.4446 26.8432 24.6227 26.9622H24.6335Z" fill="#CDCCD3"/>
<path d="M25.0337 29.3415L25.2608 35.582L25.488 42.0387C25.5096 42.5687 25.0554 43.0445 24.4713 43.1311L14.3158 44.6452C13.7101 44.7317 13.1477 44.4073 13.0071 43.899L11.5362 38.3615L9.74088 31.6128C9.60028 31.0179 10.0545 30.4123 10.7467 30.3041L23.7034 28.379C24.4064 28.2708 25.0229 28.7143 25.0445 29.3307L25.0337 29.3415Z" fill="#E9E7EF"/>
<path d="M25.25 35.582L25.4771 42.0387C25.4988 42.5687 25.0445 43.0445 24.4605 43.1311L14.3049 44.6452C13.6993 44.7317 13.1369 44.4073 12.9963 43.8989L11.5254 38.3615C14.6726 35.463 17.3873 38.394 25.2608 35.582H25.25Z" fill="#CDCCD3"/>
</svg>
