<svg width="33" height="33" viewBox="0 0 33 33" fill="none" xmlns="http://www.w3.org/2000/svg">
<path d="M28.0574 11.9778H4.17306C3.63113 11.9778 3.19495 12.414 3.19495 12.956V29.1873C3.19495 29.7292 3.63113 30.1654 4.17306 30.1654H7.41139V23.7284C7.41139 22.2612 8.60098 21.0716 10.0681 21.0716C11.5353 21.0716 12.7249 22.2612 12.7249 23.7284V30.1654H28.0574C28.5994 30.1654 29.0355 29.7292 29.0355 29.1873V12.956C29.0355 12.414 28.5994 11.9778 28.0574 11.9778ZM23.6559 22.1423V23.8606H21.9376C22.0037 22.9485 22.7439 22.2083 23.6559 22.1423ZM23.9864 22.1423C24.8984 22.2216 25.6386 22.9485 25.7047 23.8606H23.9864V22.1423ZM17.4172 22.1423V23.8606H15.6989C15.765 22.9485 16.5052 22.2083 17.4172 22.1423ZM17.7476 22.1423C18.6596 22.2216 19.3866 22.9485 19.4527 23.8606H17.7476V22.1423ZM15.6989 24.191H17.4172V25.8961C16.5052 25.83 15.7782 25.103 15.6989 24.191ZM17.7476 25.8961V24.191H19.4527C19.3734 25.103 18.6596 25.8168 17.7476 25.8961ZM21.9376 24.191H23.6559V25.8961C22.7439 25.83 22.0169 25.103 21.9376 24.191ZM23.9864 25.8961V24.191H25.7047C25.6254 25.103 24.8984 25.8168 23.9864 25.8961Z" fill="#0D92F4"/>
<path d="M9.4074 3.65076H4.93982L0.115356 15.6656H6.51272L9.4074 3.65076Z" fill="#FFC124"/>
<path d="M13.8748 3.65076H9.40725L6.51257 15.6656H12.9099L13.8748 3.65076Z" fill="#FFD371"/>
<path d="M18.3558 3.65076H13.875L12.9102 15.6656H19.3207L18.3558 3.65076Z" fill="#FFC124"/>
<path d="M27.2909 3.65076H22.8234L25.718 15.6656H32.1154L27.2909 3.65076Z" fill="#FFC124"/>
<path d="M22.8235 3.65076H18.356L19.3208 15.6656H25.7182L22.8235 3.65076Z" fill="#FFD371"/>
<path d="M0.115356 15.6656H6.51272V16.1018C6.51272 17.873 5.08521 19.3005 3.31404 19.3005C1.54287 19.3005 0.115356 17.8598 0.115356 16.1018V15.6656Z" fill="#FFD371"/>
<path d="M6.51257 15.6656H12.9099V16.1018C12.9099 17.873 11.4824 19.3005 9.71126 19.3005C7.94008 19.3005 6.51257 17.873 6.51257 16.1018V15.6656Z" fill="#FFC124"/>
<path d="M12.9102 15.6656H19.3075V16.1018C19.3075 17.873 17.88 19.3005 16.1088 19.3005C14.3377 19.3005 12.9102 17.873 12.9102 16.1018V15.6656Z" fill="#FFD371"/>
<path d="M25.718 15.6656H32.1154V16.1018C32.1154 17.873 30.6879 19.3005 28.9167 19.3005C27.1455 19.3005 25.718 17.873 25.718 16.1018V15.6656Z" fill="#FFD371"/>
<path d="M19.3207 15.6656H25.718V16.1018C25.718 17.873 24.2905 19.3005 22.5194 19.3005C20.7482 19.3005 19.3207 17.873 19.3207 16.1018V15.6656Z" fill="#FFC124"/>
<path d="M19.4661 24.0192C19.4661 24.0192 19.4661 24.1381 19.4661 24.191H17.7611V25.8961C17.7611 25.8961 17.6421 25.9093 17.5892 25.9093C17.5364 25.9093 17.4835 25.9093 17.4306 25.8961V24.191H15.7123C15.7123 24.191 15.6991 24.0721 15.6991 24.0192C15.6991 23.9663 15.6991 23.9134 15.7123 23.8606H17.4306V22.1423C17.4306 22.1423 17.5364 22.1423 17.5892 22.1423C17.6421 22.1423 17.7082 22.1423 17.7611 22.1423V23.8606H19.4661C19.4661 23.8606 19.4661 23.9663 19.4661 24.0192Z" fill="white"/>
<path d="M25.7181 24.0192C25.7181 24.0192 25.7181 24.1381 25.7049 24.191H23.9866V25.8961C23.9866 25.8961 23.8676 25.9093 23.8148 25.9093C23.7619 25.9093 23.709 25.9093 23.6562 25.8961V24.191H21.9379C21.9379 24.191 21.9379 24.0721 21.9379 24.0192C21.9379 23.9663 21.9379 23.9134 21.9379 23.8606H23.6562V22.1423C23.6562 22.1423 23.7619 22.1423 23.8148 22.1423C23.8676 22.1423 23.9337 22.1423 23.9866 22.1423V23.8606H25.7049C25.7049 23.8606 25.7181 23.9663 25.7181 24.0192Z" fill="white"/>
<path d="M17.7477 21.3889H17.4172V26.6495H17.7477V21.3889Z" fill="#0D92F4"/>
<path d="M20.2062 23.8605H14.9456V24.191H20.2062V23.8605Z" fill="#0D92F4"/>
<path d="M23.9866 21.3889H23.6561V26.6495H23.9866V21.3889Z" fill="#0D92F4"/>
<path d="M26.4449 23.8605H21.1975V24.191H26.4449V23.8605Z" fill="#0D92F4"/>
</svg>
