<svg width="33" height="33" viewBox="0 0 33 33" fill="none" xmlns="http://www.w3.org/2000/svg">
<path d="M29.4638 15.9491V27.5711C29.4638 28.7718 28.4897 29.746 27.289 29.746H22.2596C21.0588 29.746 20.0847 28.7718 20.0847 27.5711V20.0723C20.0847 18.8716 19.1105 17.8974 17.9098 17.8974H14.2623C13.0616 17.8974 12.0875 18.8716 12.0875 20.0723V27.5711C12.0875 28.7718 11.1133 29.746 9.91257 29.746H4.83785C3.63713 29.746 2.66296 28.7718 2.66296 27.5711V15.9491C2.66296 15.3374 2.91217 14.771 3.36527 14.3632L14.5568 3.89659C15.3951 3.12632 16.6864 3.10367 17.5247 3.89659L28.7615 14.3406C29.2146 14.7483 29.4638 15.3374 29.4638 15.9491Z" fill="#0D92F4"/>
</svg>
