<svg width="33" height="33" viewBox="0 0 33 33" fill="none" xmlns="http://www.w3.org/2000/svg">
<path d="M29.4638 15.9415V27.5635C29.4638 28.7642 28.4897 29.7384 27.289 29.7384H22.2596C21.0588 29.7384 20.0847 28.7642 20.0847 27.5635V20.0647C20.0847 18.864 19.1105 17.8898 17.9098 17.8898H14.2623C13.0616 17.8898 12.0875 18.864 12.0875 20.0647V27.5635C12.0875 28.7642 11.1133 29.7384 9.91257 29.7384H4.83785C3.63713 29.7384 2.66296 28.7642 2.66296 27.5635V15.9415C2.66296 15.3298 2.91217 14.7634 3.36527 14.3556L14.5568 3.88902C15.3951 3.11875 16.6864 3.0961 17.5247 3.88902L28.7615 14.333C29.2146 14.7408 29.4638 15.3298 29.4638 15.9415Z" fill="#C7D3DB"/>
</svg>
