<svg width="33" height="33" viewBox="0 0 33 33" fill="none" xmlns="http://www.w3.org/2000/svg">
<path d="M32.4065 9.26561L29.1871 19.9669C29.0964 20.2163 28.8697 20.3977 28.5749 20.3977H11.9108L12.1602 21.1912C12.5456 22.4609 13.6792 23.3224 15.0169 23.3224H25.5368C26.013 23.3224 26.3984 23.7079 26.3984 24.1613C26.3984 24.6374 26.013 25.0229 25.5368 25.0229H15.0169C12.931 25.0229 11.1173 23.6852 10.5278 21.69L6.53745 8.49475C5.90263 6.4089 4.02082 5.00322 1.84428 5.00322H1.27747C0.801353 5.00322 0.438599 4.61779 0.438599 4.14167C0.438599 3.66555 0.801353 3.3028 1.27747 3.3028H1.84428C4.76901 3.3028 7.33098 5.1846 8.16985 7.99596L8.30589 8.47208H31.8171C32.2252 8.47208 32.5426 8.85751 32.4065 9.26561Z" fill="#C7D3DB"/>
<path d="M14.6541 29.7385C15.7936 29.7385 16.7173 28.8148 16.7173 27.6754C16.7173 26.5359 15.7936 25.6122 14.6541 25.6122C13.5147 25.6122 12.5909 26.5359 12.5909 27.6754C12.5909 28.8148 13.5147 29.7385 14.6541 29.7385Z" fill="#C7D3DB"/>
<path d="M25.4234 29.7385C26.5629 29.7385 27.4866 28.8148 27.4866 27.6754C27.4866 26.5359 26.5629 25.6122 25.4234 25.6122C24.2839 25.6122 23.3602 26.5359 23.3602 27.6754C23.3602 28.8148 24.2839 29.7385 25.4234 29.7385Z" fill="#C7D3DB"/>
</svg>
