<svg width="33" height="33" viewBox="0 0 33 33" fill="none" xmlns="http://www.w3.org/2000/svg">
<path d="M32.4065 9.27318L29.1871 19.9745C29.0964 20.2239 28.8697 20.4053 28.5749 20.4053H11.9108L12.1602 21.1988C12.5456 22.4685 13.6792 23.33 15.0169 23.33H25.5368C26.013 23.33 26.3984 23.7154 26.3984 24.1689C26.3984 24.645 26.013 25.0304 25.5368 25.0304H15.0169C12.931 25.0304 11.1173 23.6928 10.5278 21.6976L6.53745 8.50232C5.90263 6.41647 4.02082 5.01079 1.84428 5.01079H1.27747C0.801353 5.01079 0.438599 4.62536 0.438599 4.14924C0.438599 3.67312 0.801353 3.31036 1.27747 3.31036H1.84428C4.76901 3.31036 7.33098 5.19216 8.16985 8.00353L8.30589 8.47965H31.8171C32.2252 8.47965 32.5426 8.86508 32.4065 9.27318Z" fill="#0D92F4"/>
<path d="M14.6541 29.7461C15.7936 29.7461 16.7173 28.8224 16.7173 27.6829C16.7173 26.5435 15.7936 25.6198 14.6541 25.6198C13.5147 25.6198 12.5909 26.5435 12.5909 27.6829C12.5909 28.8224 13.5147 29.7461 14.6541 29.7461Z" fill="#0D92F4"/>
<path d="M25.4234 29.7461C26.5629 29.7461 27.4866 28.8224 27.4866 27.6829C27.4866 26.5435 26.5629 25.6198 25.4234 25.6198C24.2839 25.6198 23.3602 26.5435 23.3602 27.6829C23.3602 28.8224 24.2839 29.7461 25.4234 29.7461Z" fill="#0D92F4"/>
</svg>
