<svg width="43" height="43" viewBox="0 0 43 43" fill="none" xmlns="http://www.w3.org/2000/svg">
<path d="M30.3557 5.89337H27.7164V7.72796C27.7164 8.11419 27.4268 8.37168 27.0727 8.37168H14.3271C13.9731 8.37168 13.7156 8.11419 13.7156 7.72796V5.89337H11.0442C9.40271 5.89337 8.0509 7.24518 8.0509 8.88665V36.1158C8.0509 37.7573 9.40271 39.1091 11.0442 39.1091H30.0338C25.914 39.1091 22.5989 35.7618 22.5989 31.642C22.5989 27.5222 25.914 24.1749 30.0338 24.1749C31.2569 24.1749 32.3512 24.4324 33.349 24.9474V8.88665C33.349 7.24518 31.9971 5.89337 30.3557 5.89337ZM30.8706 20.7954C30.8706 21.0529 30.6775 21.246 30.4522 21.246H10.9476C10.7223 21.246 10.5292 21.0529 10.5292 20.7954V19.8942C10.5292 19.6367 10.7223 19.4436 10.9476 19.4436H30.4522C30.6775 19.4436 30.8706 19.6367 30.8706 19.8942V20.7954ZM30.8706 14.841C30.8706 15.0985 30.6775 15.2916 30.4522 15.2916H10.9476C10.7223 15.2916 10.5292 15.0985 10.5292 14.841V13.9398C10.5292 13.7145 10.7223 13.5214 10.9476 13.5214H30.4522C30.6775 13.5214 30.8706 13.7145 30.8706 13.9398V14.841Z" fill="#0D92F4"/>
<path d="M25.3669 3.51166H15.9686C15.5953 3.51166 15.2927 3.81427 15.2927 4.18756V6.53712C15.2927 6.91041 15.5953 7.21303 15.9686 7.21303H25.3669C25.7402 7.21303 26.0428 6.91041 26.0428 6.53712V4.18756C26.0428 3.81427 25.7402 3.51166 25.3669 3.51166Z" fill="#0D92F4"/>
<path d="M30.0663 26.0739C26.9764 26.0739 24.4659 28.5522 24.4659 31.642C24.4659 34.7318 26.9764 37.2423 30.0663 37.2423C33.1561 37.2423 35.6344 34.7318 35.6344 31.642C35.6344 28.5522 33.1561 26.0739 30.0663 26.0739ZM32.3836 33.9916C32.3836 33.9916 32.0296 34.249 31.8365 34.249C31.6112 34.249 31.4181 34.1525 31.2572 33.9916L29.4869 32.2213C29.4869 32.2213 29.2616 31.8673 29.2616 31.642V28.3269C29.2616 27.8763 29.6157 27.5222 30.0663 27.5222C30.5169 27.5222 30.8709 27.8763 30.8709 28.3269V31.3201L32.4158 32.8651C32.7055 33.1869 32.7055 33.7019 32.4158 33.9916H32.3836Z" fill="#0D92F4"/>
</svg>
