<svg width="43" height="43" viewBox="0 0 43 43" fill="none" xmlns="http://www.w3.org/2000/svg">
<path d="M30.3557 5.67651H27.7164V7.5111C27.7164 7.89733 27.4268 8.15482 27.0727 8.15482H14.3271C13.9731 8.15482 13.7156 7.89733 13.7156 7.5111V5.67651H11.0442C9.40271 5.67651 8.0509 7.02832 8.0509 8.66979V35.899C8.0509 37.5405 9.40271 38.8923 11.0442 38.8923H30.0338C25.914 38.8923 22.5989 35.5449 22.5989 31.4252C22.5989 27.3054 25.914 23.9581 30.0338 23.9581C31.2569 23.9581 32.3512 24.2155 33.349 24.7305V8.66979C33.349 7.02832 31.9971 5.67651 30.3557 5.67651ZM30.8706 20.5785C30.8706 20.836 30.6775 21.0291 30.4522 21.0291H10.9476C10.7223 21.0291 10.5292 20.836 10.5292 20.5785V19.6773C10.5292 19.4199 10.7223 19.2267 10.9476 19.2267H30.4522C30.6775 19.2267 30.8706 19.4199 30.8706 19.6773V20.5785ZM30.8706 14.6242C30.8706 14.8817 30.6775 15.0748 30.4522 15.0748H10.9476C10.7223 15.0748 10.5292 14.8817 10.5292 14.6242V13.723C10.5292 13.4977 10.7223 13.3045 10.9476 13.3045H30.4522C30.6775 13.3045 30.8706 13.4977 30.8706 13.723V14.6242Z" fill="#C7D3DB"/>
<path d="M25.3669 3.2948H15.9686C15.5953 3.2948 15.2927 3.59741 15.2927 3.9707V6.32027C15.2927 6.69356 15.5953 6.99617 15.9686 6.99617H25.3669C25.7402 6.99617 26.0428 6.69356 26.0428 6.32027V3.9707C26.0428 3.59741 25.7402 3.2948 25.3669 3.2948Z" fill="#C7D3DB"/>
<path d="M30.0663 25.857C26.9764 25.857 24.4659 28.3353 24.4659 31.4251C24.4659 34.515 26.9764 37.0255 30.0663 37.0255C33.1561 37.0255 35.6344 34.515 35.6344 31.4251C35.6344 28.3353 33.1561 25.857 30.0663 25.857ZM32.3836 33.7747C32.3836 33.7747 32.0296 34.0322 31.8365 34.0322C31.6112 34.0322 31.4181 33.9356 31.2572 33.7747L29.4869 32.0045C29.4869 32.0045 29.2616 31.6504 29.2616 31.4251V28.11C29.2616 27.6594 29.6157 27.3054 30.0663 27.3054C30.5169 27.3054 30.8709 27.6594 30.8709 28.11V31.1033L32.4158 32.6482C32.7055 32.9701 32.7055 33.485 32.4158 33.7747H32.3836Z" fill="#C7D3DB"/>
</svg>
