<svg width="43" height="43" viewBox="0 0 43 43" fill="none" xmlns="http://www.w3.org/2000/svg">
<path d="M26.7529 36.2033L26.6604 36.4808C26.3211 37.5911 25.1183 38.3622 23.7612 38.3622H5.87287C4.51582 38.3622 3.31298 37.5911 2.94288 36.4808L2.88119 36.2033C2.72698 35.7406 3.12793 35.3088 3.68308 35.3088H25.9202C26.4753 35.3088 26.8763 35.7406 26.7221 36.2033H26.7529Z" fill="#0D92F4"/>
<path d="M7.41501 30.9909C5.7187 30.9909 4.33081 32.2863 4.23828 33.9826H6.0888C6.18133 33.3349 6.73648 32.8414 7.41501 32.8414C8.09353 32.8414 8.64869 33.3349 8.74121 33.9826H10.5917C10.4992 32.3171 9.11132 30.9909 7.41501 30.9909Z" fill="#0D92F4"/>
<path d="M14.8172 30.9909C13.1518 30.9909 11.733 32.2863 11.6405 33.9826H13.491C13.5836 33.3349 14.1387 32.8414 14.8172 32.8414C15.4958 32.8414 16.0509 33.3349 16.1434 33.9826H17.994C17.9014 32.3171 16.5135 30.9909 14.8172 30.9909Z" fill="#0D92F4"/>
<path d="M22.2195 30.9909C20.554 30.9909 19.1353 32.2863 19.0427 33.9826H20.8932C20.9858 33.3349 21.5409 32.8414 22.2195 32.8414C22.898 32.8414 23.4531 33.3349 23.5457 33.9826H25.3962C25.3037 32.3171 23.9158 30.9909 22.2195 30.9909Z" fill="#0D92F4"/>
<path d="M23.8846 26.889H5.74954C4.91489 26.889 4.23828 27.5587 4.23828 28.3849C4.23828 29.211 4.91489 29.8807 5.74954 29.8807H23.8846C24.7193 29.8807 25.3959 29.211 25.3959 28.3849C25.3959 27.5587 24.7193 26.889 23.8846 26.889Z" fill="#0D92F4"/>
<path d="M9.91353 18.0372H19.7521C23.6382 18.0372 26.815 21.1831 26.815 25.1001C26.815 25.4702 26.5065 25.8094 26.1056 25.8094H3.56007C3.15913 25.7786 2.85071 25.4702 2.85071 25.0692C2.85071 21.1831 5.99659 18.0372 9.91353 18.0372Z" fill="#0D92F4"/>
<path d="M39.676 16.8037V28.8013C39.676 30.8368 38.0105 32.4715 36.0058 32.4715H28.0794C27.7401 31.9163 27.2158 31.4845 26.6298 31.2069C27.37 30.4976 27.8635 29.5106 27.8635 28.3695C27.8635 28.1536 27.8635 27.9068 27.8018 27.6909C28.6654 27.1666 29.2514 26.1797 29.2514 25.0694C29.2514 21.5225 27.3083 18.4075 24.4092 16.8037H39.7068H39.676Z" fill="#0D92F4"/>
<path d="M40.4161 12.5475H23.4838C23.1091 12.5475 22.8053 12.8513 22.8053 13.2261V14.9532C22.8053 15.328 23.1091 15.6317 23.4838 15.6317H40.4161C40.7908 15.6317 41.0946 15.328 41.0946 14.9532V13.2261C41.0946 12.8513 40.7908 12.5475 40.4161 12.5475Z" fill="#0D92F4"/>
<path d="M31.9345 15.0149C31.256 15.0149 30.7008 14.4597 30.7008 13.7812V8.353C30.7008 7.92121 30.9167 7.52027 31.2868 7.30437L36.0365 4.43607C36.6225 4.0968 37.3627 4.25101 37.7019 4.83701C38.0412 5.42301 37.887 6.16322 37.301 6.50248L33.1373 9.06237V13.812C33.1373 14.4906 32.5822 15.0457 31.9036 15.0457L31.9345 15.0149Z" fill="#0D92F4"/>
</svg>
