<svg width="43" height="43" viewBox="0 0 43 43" fill="none" xmlns="http://www.w3.org/2000/svg">
<path d="M26.7529 35.9865L26.6604 36.264C26.3211 37.3744 25.1183 38.1454 23.7612 38.1454H5.87287C4.51582 38.1454 3.31298 37.3744 2.94288 36.264L2.88119 35.9865C2.72698 35.5238 3.12793 35.092 3.68308 35.092H25.9202C26.4753 35.092 26.8763 35.5238 26.7221 35.9865H26.7529Z" fill="#C7D3DB"/>
<path d="M7.41501 30.774C5.7187 30.774 4.33081 32.0694 4.23828 33.7657H6.0888C6.18133 33.118 6.73648 32.6246 7.41501 32.6246C8.09353 32.6246 8.64869 33.118 8.74121 33.7657H10.5917C10.4992 32.1003 9.11132 30.774 7.41501 30.774Z" fill="#C7D3DB"/>
<path d="M14.8172 30.774C13.1518 30.774 11.733 32.0694 11.6405 33.7657H13.491C13.5836 33.118 14.1387 32.6246 14.8172 32.6246C15.4958 32.6246 16.0509 33.118 16.1434 33.7657H17.994C17.9014 32.1003 16.5135 30.774 14.8172 30.774Z" fill="#C7D3DB"/>
<path d="M22.2195 30.774C20.554 30.774 19.1353 32.0694 19.0427 33.7657H20.8932C20.9858 33.118 21.5409 32.6246 22.2195 32.6246C22.898 32.6246 23.4531 33.118 23.5457 33.7657H25.3962C25.3037 32.1003 23.9158 30.774 22.2195 30.774Z" fill="#C7D3DB"/>
<path d="M23.8846 26.6722H5.74954C4.91489 26.6722 4.23828 27.3419 4.23828 28.168C4.23828 28.9941 4.91489 29.6639 5.74954 29.6639H23.8846C24.7193 29.6639 25.3959 28.9941 25.3959 28.168C25.3959 27.3419 24.7193 26.6722 23.8846 26.6722Z" fill="#C7D3DB"/>
<path d="M9.91353 17.8204H19.7521C23.6382 17.8204 26.815 20.9663 26.815 24.8832C26.815 25.2533 26.5065 25.5926 26.1056 25.5926H3.56007C3.15913 25.5617 2.85071 25.2533 2.85071 24.8524C2.85071 20.9663 5.99659 17.8204 9.91353 17.8204Z" fill="#C7D3DB"/>
<path d="M39.676 16.5869V28.5844C39.676 30.62 38.0105 32.2546 36.0058 32.2546H28.0794C27.7401 31.6994 27.2158 31.2676 26.6298 30.9901C27.37 30.2807 27.8635 29.2938 27.8635 28.1526C27.8635 27.9367 27.8635 27.69 27.8018 27.4741C28.6654 26.9498 29.2514 25.9628 29.2514 24.8525C29.2514 21.3057 27.3083 18.1906 24.4092 16.5869H39.7068H39.676Z" fill="#C7D3DB"/>
<path d="M40.4161 12.3307H23.4838C23.1091 12.3307 22.8053 12.6345 22.8053 13.0092V14.7364C22.8053 15.1111 23.1091 15.4149 23.4838 15.4149H40.4161C40.7908 15.4149 41.0946 15.1111 41.0946 14.7364V13.0092C41.0946 12.6345 40.7908 12.3307 40.4161 12.3307Z" fill="#C7D3DB"/>
<path d="M31.9345 14.798C31.256 14.798 30.7008 14.2429 30.7008 13.5643V8.13614C30.7008 7.70436 30.9167 7.30341 31.2868 7.08752L36.0365 4.21921C36.6225 3.87995 37.3627 4.03416 37.7019 4.62016C38.0412 5.20615 37.887 5.94636 37.301 6.28562L33.1373 8.84551V13.5952C33.1373 14.2737 32.5822 14.8289 31.9036 14.8289L31.9345 14.798Z" fill="#C7D3DB"/>
</svg>
