<svg width="43" height="43" viewBox="0 0 43 43" fill="none" xmlns="http://www.w3.org/2000/svg">
<path d="M28.2736 5.68719H13.8191C9.10848 5.68719 5.30127 9.49441 5.30127 14.205V22.7229C5.30127 27.4335 9.10848 31.2407 13.8191 31.2407H15.8518C15.6582 34.8221 12.0446 36.4998 12.0446 36.4998C17.1101 36.4998 19.6912 31.2407 19.6912 31.2407H28.2736C32.9842 31.2407 36.7914 27.4335 36.7914 22.7229V14.205C36.7914 9.49441 32.9842 5.68719 28.2736 5.68719ZM14.045 19.3996C13.077 19.3996 12.3349 18.6253 12.3349 17.6896C12.3349 16.7539 13.1093 15.9796 14.045 15.9796C14.9806 15.9796 15.755 16.7862 15.755 17.6896C15.755 18.593 14.9806 19.3996 14.045 19.3996ZM21.0464 19.3996C20.0784 19.3996 19.3363 18.6253 19.3363 17.6896C19.3363 16.7539 20.1107 15.9796 21.0464 15.9796C21.982 15.9796 22.7564 16.7862 22.7564 17.6896C22.7564 18.593 21.9498 19.3996 21.0464 19.3996ZM27.9832 19.3996C27.0476 19.3996 26.3055 18.6253 26.3055 17.6896C26.3055 16.7539 27.0798 15.9796 27.9832 15.9796C28.8866 15.9796 29.6933 16.7862 29.6933 17.6896C29.6933 18.593 28.9189 19.3996 27.9832 19.3996Z" fill="#C7D3DB"/>
</svg>
