<svg width="43" height="43" viewBox="0 0 43 43" fill="none" xmlns="http://www.w3.org/2000/svg">
<path d="M28.2736 5.90405H13.8191C9.10848 5.90405 5.30127 9.71127 5.30127 14.4219V22.9397C5.30127 27.6503 9.10848 31.4576 13.8191 31.4576H15.8518C15.6582 35.0389 12.0446 36.7167 12.0446 36.7167C17.1101 36.7167 19.6912 31.4576 19.6912 31.4576H28.2736C32.9842 31.4576 36.7914 27.6503 36.7914 22.9397V14.4219C36.7914 9.71127 32.9842 5.90405 28.2736 5.90405ZM14.045 19.6165C13.077 19.6165 12.3349 18.8421 12.3349 17.9065C12.3349 16.9708 13.1093 16.1964 14.045 16.1964C14.9806 16.1964 15.755 17.003 15.755 17.9065C15.755 18.8099 14.9806 19.6165 14.045 19.6165ZM21.0464 19.6165C20.0784 19.6165 19.3363 18.8421 19.3363 17.9065C19.3363 16.9708 20.1107 16.1964 21.0464 16.1964C21.982 16.1964 22.7564 17.003 22.7564 17.9065C22.7564 18.8099 21.9498 19.6165 21.0464 19.6165ZM27.9832 19.6165C27.0476 19.6165 26.3055 18.8421 26.3055 17.9065C26.3055 16.9708 27.0798 16.1964 27.9832 16.1964C28.8866 16.1964 29.6933 17.003 29.6933 17.9065C29.6933 18.8099 28.9189 19.6165 27.9832 19.6165Z" fill="#0D92F4"/>
</svg>
