<svg width="43" height="43" viewBox="0 0 43 43" fill="none" xmlns="http://www.w3.org/2000/svg">
<path d="M17.3989 18.7991C16.4629 18.7991 16.0111 18.1214 16.0111 16.7981C16.0111 15.4749 16.4629 14.8617 17.3989 14.8617C18.3348 14.8617 18.8189 15.5072 18.8189 16.7981C18.8189 17.4759 18.7221 17.9923 18.4639 18.315C18.2057 18.6378 17.8507 18.7991 17.3989 18.7991Z" fill="#C7D3DB"/>
<path d="M37.9251 21.3489C36.505 20.6389 35.6982 19.1865 35.6982 17.7342C35.6982 16.8628 35.9564 15.9914 36.5373 15.2491C38.6997 12.3767 36.4082 8.6652 33.3099 8.6652C32.7612 8.6652 32.148 8.79429 31.5671 9.05248C29.2756 10.0853 26.5646 8.79429 25.9191 6.30919C25.4028 4.27593 23.6922 3.24316 21.9494 3.24316C20.2066 3.24316 18.5284 4.27593 17.9797 6.30919C17.4956 8.21336 15.8174 9.4075 14.01 9.4075C13.4614 9.4075 12.8804 9.31068 12.3318 9.05248C9.36258 7.69698 6.52247 10.053 6.52247 12.764C6.52247 13.6031 6.78065 14.4422 7.39386 15.2491C7.97479 15.9914 8.23299 16.8628 8.23299 17.7342C8.23299 19.1865 7.42613 20.6389 6.00608 21.3489C4.45692 22.1235 3.77917 23.5435 3.77917 24.9636C3.77917 26.9968 5.2315 29.0301 7.74888 29.0946C10.0403 29.1592 11.7509 31.0311 11.7509 33.2257C11.7509 33.4839 11.7509 33.7421 11.6863 34.0003C11.1054 36.8404 13.3646 38.9382 15.7528 38.9382C16.8501 38.9382 17.9475 38.4864 18.8189 37.4536C19.6257 36.4854 20.7876 35.969 21.9494 35.969C23.1113 35.969 24.2732 36.4854 25.1123 37.4536C27.6297 40.4874 32.3417 38.5187 32.3417 34.8717C32.3417 34.5812 32.3094 34.2908 32.2449 34.0003C32.1803 33.7098 32.148 33.4516 32.148 33.1612C32.148 30.9988 33.8908 29.1592 36.15 29.0946C38.6674 29.0301 40.152 26.9968 40.152 24.9636C40.152 23.5435 39.4742 22.1235 37.9251 21.3489ZM14.946 19.3802C14.3005 18.767 14.01 17.8956 14.01 16.7982C14.01 15.7009 14.3005 14.8618 14.946 14.2486C15.5915 13.6031 16.3983 13.3127 17.3988 13.3127C18.3993 13.3127 19.2384 13.6031 19.8839 14.2486C20.4971 14.8618 20.8198 15.7009 20.8198 16.7982C20.8198 17.8956 20.4971 18.767 19.8839 19.3802C19.2384 20.0256 18.4316 20.3484 17.3988 20.3484C16.366 20.3484 15.5915 20.0256 14.946 19.3802ZM18.7543 29.2237H16.2369L25.1768 13.6031H27.6942L18.7543 29.2237ZM28.9852 28.5783C28.372 29.2237 27.5651 29.5142 26.5646 29.5142C25.5641 29.5142 24.725 29.2237 24.1118 28.5783C23.4663 27.9651 23.1436 27.0937 23.1436 25.9963C23.1436 24.899 23.4663 24.0599 24.1118 23.4144C24.725 22.8012 25.5641 22.4785 26.5646 22.4785C27.5651 22.4785 28.372 22.8012 28.9852 23.4144C29.6307 24.0599 29.9534 24.899 29.9534 25.9963C29.9534 27.0937 29.6307 27.9651 28.9852 28.5783ZM26.5323 24.0599C25.5964 24.0599 25.1123 24.7054 25.1123 25.9963C25.1123 27.2873 25.5964 27.9651 26.5323 27.9651C27.4683 27.9651 27.9524 27.2873 27.9524 25.9963C27.9524 24.7054 27.4683 24.0599 26.5323 24.0599Z" fill="#C7D3DB"/>
</svg>
