<svg width="43" height="43" viewBox="0 0 43 43" fill="none" xmlns="http://www.w3.org/2000/svg">
<path d="M17.3989 19.0159C16.4629 19.0159 16.0111 18.3382 16.0111 17.0149C16.0111 15.6917 16.4629 15.0785 17.3989 15.0785C18.3348 15.0785 18.8189 15.724 18.8189 17.0149C18.8189 17.6927 18.7221 18.2091 18.4639 18.5318C18.2057 18.8546 17.8507 19.0159 17.3989 19.0159Z" fill="#0D92F4"/>
<path d="M37.9251 21.5657C36.505 20.8557 35.6982 19.4034 35.6982 17.951C35.6982 17.0797 35.9564 16.2083 36.5373 15.466C38.6997 12.5936 36.4082 8.88205 33.3099 8.88205C32.7612 8.88205 32.148 9.01115 31.5671 9.26934C29.2756 10.3021 26.5646 9.01115 25.9191 6.52605C25.4028 4.49279 23.6922 3.46002 21.9494 3.46002C20.2066 3.46002 18.5284 4.49279 17.9797 6.52605C17.4956 8.43022 15.8174 9.62436 14.01 9.62436C13.4614 9.62436 12.8804 9.52753 12.3318 9.26934C9.36258 7.91383 6.52247 10.2698 6.52247 12.9809C6.52247 13.82 6.78065 14.6591 7.39386 15.466C7.97479 16.2083 8.23299 17.0797 8.23299 17.951C8.23299 19.4034 7.42613 20.8557 6.00608 21.5657C4.45692 22.3403 3.77917 23.7604 3.77917 25.1804C3.77917 27.2137 5.2315 29.247 7.74888 29.3115C10.0403 29.376 11.7509 31.2479 11.7509 33.4426C11.7509 33.7008 11.7509 33.959 11.6863 34.2171C11.1054 37.0573 13.3646 39.1551 15.7528 39.1551C16.8501 39.1551 17.9475 38.7032 18.8189 37.6705C19.6257 36.7022 20.7876 36.1859 21.9494 36.1859C23.1113 36.1859 24.2732 36.7022 25.1123 37.6705C27.6297 40.7042 32.3417 38.7355 32.3417 35.0885C32.3417 34.7981 32.3094 34.5076 32.2449 34.2171C32.1803 33.9267 32.148 33.6685 32.148 33.378C32.148 31.2157 33.8908 29.376 36.15 29.3115C38.6674 29.247 40.152 27.2137 40.152 25.1804C40.152 23.7604 39.4742 22.3403 37.9251 21.5657ZM14.946 19.597C14.3005 18.9838 14.01 18.1124 14.01 17.0151C14.01 15.9178 14.3005 15.0787 14.946 14.4655C15.5915 13.82 16.3983 13.5295 17.3988 13.5295C18.3993 13.5295 19.2384 13.82 19.8839 14.4655C20.4971 15.0787 20.8198 15.9178 20.8198 17.0151C20.8198 18.1124 20.4971 18.9838 19.8839 19.597C19.2384 20.2425 18.4316 20.5652 17.3988 20.5652C16.366 20.5652 15.5915 20.2425 14.946 19.597ZM18.7543 29.4406H16.2369L25.1768 13.82H27.6942L18.7543 29.4406ZM28.9852 28.7951C28.372 29.4406 27.5651 29.7311 26.5646 29.7311C25.5641 29.7311 24.725 29.4406 24.1118 28.7951C23.4663 28.1819 23.1436 27.3105 23.1436 26.2132C23.1436 25.1159 23.4663 24.2768 24.1118 23.6313C24.725 23.0181 25.5641 22.6953 26.5646 22.6953C27.5651 22.6953 28.372 23.0181 28.9852 23.6313C29.6307 24.2768 29.9534 25.1159 29.9534 26.2132C29.9534 27.3105 29.6307 28.1819 28.9852 28.7951ZM26.5323 24.2768C25.5964 24.2768 25.1123 24.9222 25.1123 26.2132C25.1123 27.5042 25.5964 28.1819 26.5323 28.1819C27.4683 28.1819 27.9524 27.5042 27.9524 26.2132C27.9524 24.9222 27.4683 24.2768 26.5323 24.2768Z" fill="#0D92F4"/>
</svg>
