<svg width="39" height="39" viewBox="0 0 39 39" fill="none" xmlns="http://www.w3.org/2000/svg">
<path d="M37.3853 18.3645L24.3069 36.02L22.3845 35.007L28.2982 23.0149L25.6801 23.5763L23.9835 23.9425L23.5258 12.5058H18.7655L18.2529 10.5773L18.0027 9.63134L36.6835 6.25647L28.823 19.8841L37.3853 18.3645Z" fill="#F9C932"/>
<path d="M0.52417 23.3627L4.17977 23.0148C4.17977 23.0148 3.74646 18.6513 7.0542 19.1517C10.3619 19.6522 8.46396 23.8936 7.93301 24.4734C7.40206 25.0532 1.91562 26.4629 1.91562 26.4629L2.70287 31.5283L14.518 30.3443L14.0053 25.8405L8.94608 27.1343C8.94608 27.1343 11.8144 22.5144 10.9722 19.1151C10.13 15.7158 7.60956 14.7089 5.43695 15.2398C3.26434 15.7708 1.05511 18.0532 0.804895 19.5301C0.554679 21.007 0.52417 23.3688 0.52417 23.3688V23.3627Z" fill="#0D92F4"/>
<path d="M18.0025 12.5058L14.0051 20.8911V23.7838L20.0836 23.0149L20.3643 29.0384H23.1228L23.5256 11.8284L18.0025 12.5058ZM17.3312 20.885L20.706 15.5938L21.6032 20.4334L17.3312 20.885Z" fill="#0D92F4"/>
<path d="M26.211 10.5773L25.6801 23.5763L23.9835 23.9425L23.5258 12.5058H18.7656L18.2529 10.5773H26.211Z" fill="#E8B525"/>
<path d="M0.780522 23.5946L4.18592 23.1857L4.11269 23.2712C4.02114 22.0994 4.06386 20.83 4.72297 19.8109C5.44311 18.7368 7.07255 18.694 8.02459 19.4935C9.30009 20.6408 9.12922 22.6365 8.41518 24.0401C8.04291 24.7603 7.45094 25.395 6.68198 25.7367C6.01677 26.0297 5.10134 26.2249 4.41172 26.4324C3.64887 26.6338 2.90431 26.823 2.09874 26.9573L2.31845 26.6643L3.00806 30.9791L2.70291 30.7349L13.9688 29.7707L13.627 30.1369L13.5965 26.9146L14.0298 27.3113C12.498 27.4577 8.10394 27.8666 6.64536 28.007C8.16497 27.1953 10.1301 26.3104 10.9418 24.6626C12.5041 21.9774 11.5887 17.2843 8.78745 15.7586C6.72469 14.7943 4.18592 15.722 2.52594 17.1561C0.719504 18.694 0.389941 21.3671 0.762215 23.5824L0.780522 23.5946ZM0.731708 23.674C0.0603951 21.3183 0.335026 18.5232 2.18419 16.7777C5.09524 13.9216 9.92259 13.647 11.7595 17.8152C13.5111 21.3244 12.736 25.9381 9.00105 27.7812L8.77525 26.9268L13.9749 26.5362L14.4143 26.5057V26.939C14.4204 27.0732 14.3654 30.4908 14.3777 30.503L14.042 30.5274L2.75786 31.3208L2.48933 31.3391C2.44661 31.0584 1.83021 26.7864 1.78749 26.4996C2.95923 26.3409 4.26525 25.993 5.42479 25.6879C5.79707 25.5841 6.19375 25.4926 6.5111 25.3522C8.4457 24.5284 9.44045 21.3061 7.83541 19.7315C7.02983 19.0236 5.56516 19.0114 4.91216 19.9573C4.25915 20.9399 4.20423 22.2032 4.28357 23.3505L4.20423 23.3566L0.731708 23.6801V23.674Z" fill="#231F20"/>
<path d="M20.053 23.0454L14.0234 23.9181L13.8708 23.9425C13.8586 23.8693 13.8403 21.3671 13.8281 21.2512C13.8281 21.2146 18.033 13.0429 18.0391 13.0062L18.1062 12.872L18.2649 12.8537L23.4767 12.1641L23.8612 12.1152V12.5119C23.9161 17.6322 24.0748 24.6383 23.9039 29.6853C22.6162 29.6487 21.3285 29.6426 20.0408 29.5877V29.2886C20.0286 27.7324 20.0286 24.6016 20.0408 23.0515L20.053 23.0454ZM20.1141 22.9783C20.2788 24.5406 20.5718 27.6897 20.6999 29.2581L20.3765 28.9469C21.4262 28.9042 22.4759 28.8981 23.5256 28.8736L23.1228 29.2764C22.9763 24.4247 23.1106 17.4308 23.1777 12.5119L23.5683 12.8537L18.3442 13.4457L18.57 13.287L14.1577 21.3732L14.176 21.2939L14.1394 23.7839L13.9868 23.6496L20.108 22.9844L20.1141 22.9783Z" fill="#231F20"/>
<path d="M20.7551 15.3864C20.8955 17.0768 21.1762 18.8223 21.3166 20.5555L21.0725 20.5982C20.4561 20.7141 17.0568 21.3488 16.5198 21.4526C17.5695 19.3105 19.3332 17.1501 20.7551 15.3864ZM20.7368 15.4779C19.5712 17.5468 19.0097 19.3166 17.6488 21.1108L17.2399 20.4883L20.9932 20.0855L20.7673 20.3602C20.7246 18.7429 20.7979 17.1379 20.7246 15.4779H20.7368Z" fill="#231F20"/>
<path d="M18.302 9.58254L38.002 5.45092L38.3986 5.36548L38.1789 5.70724L29.0491 20.0245L28.7745 19.6156C31.8686 19.0419 34.9688 18.4744 38.0691 17.9312C35.8477 21.0071 33.5774 24.0524 31.301 27.0916C29.7143 29.2093 26.4737 33.463 24.8503 35.5501L24.8015 35.5135C26.3089 33.3226 29.3664 28.9652 30.9044 26.7987C32.9671 23.912 35.0299 21.0315 37.1354 18.1753L37.4344 18.6514C34.383 19.2006 31.3193 19.7255 28.2618 20.2442L28.5975 19.7316L37.8921 5.51805L38.0691 5.78047C38.0508 5.74996 18.2227 9.75342 18.302 9.57644V9.58254Z" fill="#231F20"/>
<path d="M22.3601 34.5432C23.2755 32.5903 25.5946 27.6531 26.4917 25.7795C26.9494 24.8092 27.3949 23.8266 27.9015 22.8746L28.2432 23.314C26.6809 23.6191 25.1186 23.906 23.5318 24.0708L23.5196 24.0097C24.2764 23.7473 25.0392 23.5276 25.8021 23.3079C26.7663 23.0455 27.755 22.7892 28.7254 22.5634L28.4507 23.1492C27.6391 24.8336 26.327 27.1893 25.4543 28.8737L22.415 34.5737L22.3601 34.5493V34.5432Z" fill="#231F20"/>
</svg>
