<svg width="39" height="39" viewBox="0 0 39 39" fill="none" xmlns="http://www.w3.org/2000/svg">
<path d="M28.8187 15.3397L28.7401 18.5447L27.3425 19.4821L27.2021 16.9338L28.8187 15.3397Z" fill="#FFD371"/>
<path d="M27.2697 17.1526L27.2024 19.2687L24.6765 18.4773L24.8168 16.6306L27.2697 17.1526Z" fill="#FFD371"/>
<path d="M11.0425 18.1069L11.2445 19.7572L13.8209 20.7114L13.6245 19.4821L11.0425 18.1069Z" fill="#FFD371"/>
<path d="M31.5581 23.0856C31.5469 23.9275 30.7218 26.8407 26.0069 28.3618C21.2975 29.8885 15.9989 30.1187 12.0698 29.3553C8.14629 28.5919 7.40538 24.8368 7.21453 21.0761C7.19769 20.7057 7.19769 20.3633 7.21453 20.0545C7.39976 17.1863 9.03876 16.6306 9.03876 16.6306C8.30346 17.1695 8.49991 17.9272 8.49991 17.9272C9.91439 20.15 13.097 21.4185 19.0916 21.0817C25.0863 20.7449 27.8984 19.482 30.0707 17.6859C30.0707 17.6859 30.385 18.6457 30.7274 19.7683C31.1259 21.0873 31.5581 22.6253 31.5525 23.0856H31.5581Z" fill="#0D92F4"/>
<path d="M20.3768 14.2284L14.5168 15.9965L17.3177 17.9274L22.3245 16.3838L20.3768 14.2284Z" fill="#F9C932"/>
<path d="M17.3179 17.9272V20.8965H17.9578C17.9578 20.8965 21.8925 20.7955 22.3191 20.5822C22.7456 20.3689 20.5566 18.7636 21.3592 18.5896C22.1619 18.4156 22.291 18.3875 22.291 18.3875L22.3247 16.3893L19.1758 17.4165L17.3179 17.9329V17.9272Z" fill="#FFD371"/>
<path d="M14.5169 17.4502C13.9613 17.4165 12.1539 17.6747 11.8227 17.7476C11.4915 17.8206 10.4868 18.0788 10.4868 18.0788L13.6245 19.4821L16.5825 18.5503C16.5825 18.5503 15.6171 17.888 15.415 17.7869C15.213 17.6859 14.5113 17.4502 14.5113 17.4502H14.5169Z" fill="#F9C932"/>
<path d="M26.0068 14.2284L24.8169 16.6308L27.3427 17.411L28.819 15.3398L26.0068 14.2284Z" fill="#F9C932"/>
<path d="M21.3201 15.4688C22.5437 15.306 23.2509 15.3397 23.947 15.3397C24.643 15.3397 25.3783 15.7494 25.3783 15.7494L24.6823 16.5914V18.4773L27.2081 19.2632L27.0958 19.555L26.1248 19.8076C26.1248 19.8076 23.6495 18.6513 23.3744 18.5391C23.0994 18.4268 22.2967 18.3763 22.2967 18.3763L22.3304 16.3781L21.3257 15.4632L21.3201 15.4688Z" fill="#EA914E"/>
<path d="M14.7807 16.0749L17.3177 17.9272V20.8965L16.8968 20.7113L16.5824 18.5446L14.5168 17.4501V15.9963L14.7807 16.0749Z" fill="#F9C932"/>
<path d="M22.5212 18.236C22.5212 18.236 19.2881 18.8646 19.2039 18.9937C19.1197 19.1228 21.4211 19.9928 21.4211 19.9928L22.5212 20.7169L26.1247 19.8188L22.5212 18.236Z" fill="#F9C932"/>
<path d="M16.5825 18.5447L16.8969 20.8965C16.8969 20.8965 15.6171 20.9527 14.5169 20.8179C13.4168 20.6832 13.5403 19.729 13.5403 19.729L13.8041 19.1004L16.5881 18.5447H16.5825Z" fill="#FFD371"/>
<path d="M30.7328 19.7683C28.4203 21.3961 21.898 23.5795 14.5113 22.5523C9.98157 21.9293 8.03947 20.8965 7.21997 20.0545C7.4052 17.1863 9.0442 16.6306 9.0442 16.6306C8.30889 17.1695 8.50535 17.9272 8.50535 17.9272C9.91982 20.15 13.1024 21.4185 19.0971 21.0817C25.0918 20.7449 27.9039 19.482 30.0761 17.6859C30.0761 17.6859 30.3904 18.6457 30.7328 19.7683Z" fill="#0B669E"/>
<path d="M1.65196 17.6467L4.85137 16.7542L4.82331 16.7766C7.94413 12.6567 19.7651 11.6857 24.7775 11.7586C26.9554 11.826 29.992 12.028 31.5973 12.9205L35.1223 12.4041L35.2065 12.3929L35.2738 12.4546L38.4452 15.3622L38.6978 15.5923L38.3722 15.6989L32.8995 17.5007L33.0511 17.3267C32.5459 20.0434 32.1586 22.8443 30.9518 25.3533C29.8461 27.0821 27.7917 27.9297 25.9843 28.665C21.0393 30.4611 14.3542 30.2085 9.81326 27.4301C7.8431 25.9314 7.38845 23.2484 7.05167 20.9639L7.19761 21.0987C5.99081 21.0594 4.26762 21.0257 3.06083 21.0313C2.65669 20.9527 2.41533 20.6608 2.1852 20.4026C1.53409 19.5831 1.09628 18.6289 0.697754 17.6747L0.74827 17.6523C1.18047 18.5784 1.64635 19.5158 2.3143 20.296C2.5332 20.5374 2.79701 20.7955 3.08889 20.8348C4.22833 20.7731 6.03571 20.7787 7.21444 20.7956H7.34354L7.36038 20.9303C7.72523 23.1193 8.19672 25.6901 10.0658 27.0765C14.3486 29.608 21.174 29.8605 25.7991 28.1373C27.5223 27.4301 29.4475 26.6667 30.5028 25.0895C31.6871 22.6591 32.1025 19.8919 32.6133 17.2481L32.6357 17.1134L32.7648 17.0741L38.2487 15.3117L38.1757 15.6484L35.0269 12.7184L35.1784 12.7633L31.6478 13.2517H31.5917L31.5412 13.2348C26.2257 11.0065 16.504 12.1908 10.9415 13.6053C8.77486 14.2508 6.29953 14.9749 4.87382 16.8272L1.6688 17.6859L1.65196 17.6298V17.6467Z" fill="#231F20"/>
<path d="M31.7828 15.6765C29.6779 19.3586 25.3447 20.6945 21.3651 21.0706C19.3556 21.2783 17.3181 21.4354 15.275 21.2502C13.2487 21.0706 11.1719 20.5654 9.43183 19.3474C8.52814 18.7637 7.65251 17.7589 8.45517 16.7037C8.62917 16.4848 8.88737 16.3164 9.0726 16.1255C14.2646 12.5388 23.5878 11.5341 29.3692 14.0936C23.6664 12.6679 17.3349 13.2741 11.7781 15.5362C10.8688 15.9066 9.97629 16.3669 9.26905 16.9563C8.94911 17.1696 8.77511 17.5063 8.90982 17.8768C10.3748 19.7796 12.9905 20.397 15.3255 20.7057C19.249 20.9808 23.4475 20.8068 27.1633 19.4148C29.0268 18.6682 30.6153 17.3267 31.7042 15.6372L31.7772 15.6821L31.7828 15.6765Z" fill="#231F20"/>
<path d="M27.3426 17.4222C26.4109 17.2257 25.4117 16.9787 24.5024 16.642C25.0301 15.9516 25.5465 15.2556 25.9674 14.4978C26.9778 14.7392 27.9769 15.0086 28.9648 15.3341C28.4484 16.0638 27.8759 16.7935 27.3426 17.4222ZM27.337 17.3941C27.7748 16.6476 28.179 15.974 28.6224 15.3285L28.701 15.5474C27.786 15.2836 26.8824 14.9861 25.9899 14.655L26.0741 14.6269C25.5858 15.2668 25.1648 15.9516 24.7719 16.6532L24.7157 16.4904C25.625 16.7262 26.4502 17.0405 27.3426 17.3997L27.337 17.3941Z" fill="#231F20"/>
<path d="M28.9591 15.3453L28.7402 17.9273L28.6785 15.3341L28.9591 15.3453Z" fill="#231F20"/>
<path d="M24.6933 16.5914L24.7551 18.4774L24.7046 18.4044C25.5521 18.6514 26.4053 18.8759 27.2472 19.1229L27.062 19.252C27.1406 18.657 27.1518 17.9385 27.3595 17.4053C27.41 18.0957 27.3819 18.7749 27.3427 19.4597C26.4277 19.1622 25.524 18.831 24.6091 18.5279V18.4774L24.6709 16.5914H24.6989H24.6933Z" fill="#231F20"/>
<path d="M17.9072 21.0762C18.0139 20.47 18.2552 19.8413 18.7267 19.426C19.7876 18.7636 21.0786 18.584 22.2629 18.2641C22.9196 18.0845 23.5539 18.483 24.0984 18.73C24.8337 19.1004 25.5746 19.4597 26.2874 19.8806C25.5409 19.7066 24.7326 19.2744 23.9805 18.9882C23.6605 18.8647 23.1947 18.5896 22.8747 18.5223C22.5436 18.4269 22.0384 18.5728 21.7072 18.6289C20.7249 18.8647 19.6753 19.0106 18.7941 19.5158C18.2889 19.8806 18.0925 20.571 17.9016 21.0818L17.9072 21.0762Z" fill="#231F20"/>
<path d="M19.0972 19.2576C19.7539 19.2015 20.3994 19.4148 20.9944 19.6561C21.5781 19.8919 22.2685 20.223 22.6109 20.7226C21.4322 20.2623 20.3489 19.3811 19.0972 19.2576Z" fill="#231F20"/>
<path d="M13.8041 20.7114L13.574 19.4877C13.5684 19.4428 13.5571 19.4484 13.6077 19.4316L16.5433 18.4325L16.6724 18.3876L16.6948 18.5279C16.8239 19.2913 16.9586 20.049 17.026 20.818L16.9081 20.8348C16.3749 20.8797 15.7462 21.0201 15.2523 20.9583C15.7855 20.8124 16.33 20.6889 16.8688 20.5823L16.7622 20.7226C16.6218 20.0041 16.5433 19.28 16.4591 18.556L16.6106 18.6514L13.6301 19.5158L13.6638 19.4597L13.8266 20.6945H13.7985L13.8041 20.7114Z" fill="#231F20"/>
<path d="M13.6187 19.4934L10.975 18.0003L10.7954 17.8993C11.8282 17.6355 12.8498 17.366 13.9219 17.2706C14.9659 17.1976 15.8752 17.8656 16.5993 18.5335C15.8022 18.1406 14.9097 17.4671 13.9387 17.5625C12.9733 17.613 12.0022 17.8039 11.0424 18.0115L11.0648 17.8544C11.0648 17.8544 13.6973 19.4597 13.6244 19.4934H13.6187Z" fill="#231F20"/>
<path d="M11.0313 17.9272C11.1211 18.5727 11.5028 19.3922 11.2333 19.9928C11.0481 19.6729 11.0088 19.3305 11.02 18.9713C11.0313 18.6401 10.9471 18.2135 11.0313 17.9272Z" fill="#231F20"/>
<path d="M17.3011 19.9873L17.2393 17.9274L17.273 17.9891C16.4367 17.4278 15.2355 16.6925 14.4384 16.1031L14.6461 15.9909C14.6012 16.5129 14.6461 17.1415 14.5002 17.6074C14.416 16.9844 14.3935 16.3613 14.3711 15.7383C15.3141 16.3164 16.4816 17.2313 17.3965 17.8824V17.9217L17.3348 19.9817H17.3067L17.3011 19.9873Z" fill="#231F20"/>
<path d="M14.5115 15.9852C16.4423 15.3902 18.4069 14.9019 20.3771 14.4473C21.0843 15.0591 21.7803 15.6765 22.4483 16.3332V16.3837C22.3977 17.0292 22.4202 17.787 22.2799 18.382C22.235 17.714 22.2069 17.0461 22.2013 16.3781L22.2406 16.4679C21.5558 15.8954 20.9047 15.2892 20.2592 14.6718L20.3658 14.6998C18.4181 15.0422 16.3974 15.5699 14.5115 15.974V15.9852Z" fill="#231F20"/>
<path d="M17.312 17.916C19.0128 17.495 20.59 16.6868 22.3132 16.3724C21.6396 16.8495 20.691 17.0965 19.8715 17.3323C19.0408 17.5399 18.1203 17.8655 17.312 17.916Z" fill="#231F20"/>
<path d="M24.6426 17.5457C24.6426 17.5457 23.7053 17.3099 22.3188 17.2987V17.0181C23.7389 17.0293 24.6707 17.265 24.71 17.2763L24.6426 17.5457Z" fill="#231F20"/>
<path d="M21.6399 15.8899L21.6118 15.6092C23.7616 15.3847 25.1985 15.6036 25.2603 15.6092L25.2154 15.8843C25.2154 15.8843 23.7504 15.6654 21.6343 15.8843L21.6399 15.8899Z" fill="#231F20"/>
<path d="M4.92438 17.6971L2.17401 18.3819L2.23014 18.2584C2.52763 18.7243 2.83635 19.5101 3.36397 19.6897C4.45289 19.6673 5.55304 19.5606 6.65318 19.5775C5.63723 19.8581 4.43605 19.976 3.3359 19.9423C3.19558 19.9423 3.05525 19.8357 2.97667 19.7571C2.55008 19.3193 2.29188 18.7636 2.02246 18.2247L2.12911 18.2023L4.90754 17.6522V17.6803H4.91316L4.92438 17.6971Z" fill="#231F20"/>
<path d="M8.5166 21.065C14.0679 23.5123 20.4498 23.4 26.147 21.5309C27.5671 21.0819 28.976 20.515 30.1715 19.6113C30.5645 19.3138 30.9461 18.9714 31.1875 18.5392L31.2268 18.556C30.2445 20.3915 28.1284 21.2278 26.2817 21.9294C20.5789 23.7986 13.8602 23.748 8.5166 21.065Z" fill="#231F20"/>
<path d="M32.2092 14.0038L34.8866 13.4088L34.9259 13.3976L34.9596 13.4256L36.1215 14.5482C36.3123 14.7335 36.5593 14.9636 36.7277 15.1095L36.7109 15.1039C36.5312 15.0478 36.4807 15.3341 36.6603 15.3453C35.3862 15.6596 34.1233 16.002 32.8267 16.2265C33.8763 15.7438 35.1448 15.4239 36.3067 15.1488C36.3965 15.132 36.5705 15.0927 36.6603 15.0927C36.6828 15.0871 36.767 15.1208 36.7838 15.1657C36.7838 15.1937 36.8007 15.1432 36.7894 15.2611C36.7333 15.379 36.6323 15.3509 36.593 15.3228C36.1552 14.9187 35.2739 13.9645 34.8473 13.5267L34.9203 13.5491L32.2205 14.0206V13.9926L32.2092 14.0038Z" fill="#231F20"/>
</svg>
