<svg width="39" height="39" viewBox="0 0 39 39" fill="none" xmlns="http://www.w3.org/2000/svg">
<path d="M8.11977 23.3821C8.11977 23.3821 12.9737 32.1562 15.5196 32.7553C18.0655 33.3543 27.5444 32.9314 28.2843 32.7553C29.0243 32.5791 32.0019 24.078 32.0019 24.078C32.0019 24.078 28.9627 26.5975 25.527 25.7695C22.0914 24.9414 21.5364 23.6464 21.5364 23.6464C21.5364 23.6464 19.8714 27.0732 17.4841 27.6987C15.0968 28.3242 12.7006 28.4299 11.3968 25.558C10.0931 22.6862 10.3926 21.4529 10.3926 21.4529L8.11096 23.3821H8.11977Z" fill="#F9C932"/>
<path d="M1.27499 23.5671C1.91807 27.7163 5.20395 24.6066 6.87773 23.5671C8.5515 22.5276 10.8155 20.4838 10.8155 20.4838C10.8155 20.4838 11.7845 26.483 15.0087 26.298C18.233 26.113 21.5981 22.8095 21.5981 22.8095C21.5981 22.8095 23.7476 26.2187 28.2228 25.8311C30.3634 25.6461 32.0108 24.0692 32.0108 24.0692C32.0108 24.0692 38.7323 18.8541 35.7107 15.8325C32.6891 12.8109 22.1179 13.2073 15.1761 14.0794C8.23436 14.9516 0.552616 18.8805 1.28379 23.5583L1.27499 23.5671Z" fill="#EA914E"/>
<path d="M21.0255 6.72366C24.9192 6.81175 23.9061 13.3307 19.6424 13.0576C15.3787 12.7845 17.4489 6.64438 21.0255 6.72366Z" fill="#99BF30"/>
<path d="M27.8878 17.9909C28.5251 17.9909 29.0418 17.5728 29.0418 17.0571C29.0418 16.5414 28.5251 16.1233 27.8878 16.1233C27.2504 16.1233 26.7338 16.5414 26.7338 17.0571C26.7338 17.5728 27.2504 17.9909 27.8878 17.9909Z" fill="white"/>
<path d="M28.6807 22.2458C29.0359 22.2458 29.3238 21.9579 29.3238 21.6027C29.3238 21.2475 29.0359 20.9596 28.6807 20.9596C28.3255 20.9596 28.0376 21.2475 28.0376 21.6027C28.0376 21.9579 28.3255 22.2458 28.6807 22.2458Z" fill="white"/>
<path d="M16.1627 19.4796C16.6833 19.4796 17.1053 19.1917 17.1053 18.8366C17.1053 18.4814 16.6833 18.1935 16.1627 18.1935C15.6421 18.1935 15.2201 18.4814 15.2201 18.8366C15.2201 19.1917 15.6421 19.4796 16.1627 19.4796Z" fill="white"/>
<path d="M7.18588 18.3872C7.70646 18.3872 8.12848 18.0993 8.12848 17.7441C8.12848 17.389 7.70646 17.1011 7.18588 17.1011C6.6653 17.1011 6.24329 17.389 6.24329 17.7441C6.24329 18.0993 6.6653 18.3872 7.18588 18.3872Z" fill="white"/>
<path d="M22.3996 8.30054C23.5889 10.45 20.576 12.0709 20.576 12.0709C20.576 12.0709 21.7741 10.4676 21.9327 9.89503C22.0913 9.32242 22.3996 8.29175 22.3996 8.29175V8.30054Z" fill="white"/>
<path d="M33.1824 1.33228L32.4953 4.38033L29.042 5.34936L32.4953 5.98361L33.7902 9.15497L34.5831 6.27433L36.8999 5.98361L33.6933 3.26152L33.1824 1.33228Z" fill="#0D92F4"/>
<path d="M4.40208 28.7382L5.30063 30.7996H6.56037C6.56037 30.7996 4.69278 33.2662 4.74564 33.9181C4.74564 33.9181 5.00992 32.7905 4.40208 32.4998C3.79423 32.2091 1.38928 31.4867 1.38928 31.4867C1.38928 31.4867 3.18638 31.055 3.45066 30.7908C3.71494 30.5265 4.40208 28.7294 4.40208 28.7294V28.7382Z" fill="#0D92F4"/>
<path d="M10.4278 21.4793C7.89072 24.219 2.63154 27.4432 0.499684 22.5629C-1.11243 16.5549 11.0533 14.4142 15.2113 13.7359C21.4835 12.9959 28.1698 11.8243 34.2747 14.0618C39.0053 15.9118 37.8777 21.5498 33.984 23.2852C37.2434 21.1974 38.3094 16.2818 33.984 14.7666C30.4955 13.5068 26.5313 13.7007 22.8666 13.7888C16.6384 14.1852 10.1371 14.6433 4.41984 17.3389C1.95322 18.4841 -0.698388 20.9684 1.53038 23.6288C4.19961 26.7649 8.21667 23.2412 10.4278 21.4969V21.4793Z" fill="#231F20"/>
<path d="M33.1912 1.37643C33.2352 2.33665 33.0767 3.58758 32.8212 4.52137C32.7772 4.6447 32.5569 4.72398 32.4864 4.73279C32.5393 4.73279 32.5041 4.73278 32.4688 4.75039C31.3765 5.08515 30.2841 5.45514 29.1477 5.68418L29.1125 5.02348C30.2753 5.323 31.4205 5.68418 32.601 5.87799C33.0414 6.96154 33.57 8.00105 34.0898 9.04936L33.4995 9.0846C33.7198 8.01867 33.9752 6.95275 34.2395 5.89562L34.539 5.85156C35.3054 5.72823 36.0807 5.62253 36.8471 5.53444L36.6709 6.40655C35.7195 5.83395 34.7945 5.2261 33.8695 4.61826C33.5876 3.56114 33.5171 2.50401 33.2 1.39404L33.1912 1.37643ZM33.1824 1.28833C33.5436 2.23974 34.125 3.26162 34.4862 4.2835L34.3276 4.08969C35.6578 4.7592 37.0585 5.52563 38.3535 6.27442C37.1642 6.43299 35.8164 6.61798 34.6359 6.70607L35.0059 6.38895C34.6359 7.63106 34.2131 8.91721 33.7814 10.1417C33.3321 8.77626 32.9093 7.36679 32.3719 6.03658L32.4688 6.11586C30.9008 5.82515 29.2006 5.73704 27.6061 5.52562L28.9451 5.02348C29.9582 4.61825 31.7024 4.19542 32.4248 4.04566C32.3367 4.05447 32.2486 4.13374 32.2222 4.1954C32.5745 3.22637 32.7507 2.24856 33.1824 1.29715V1.28833Z" fill="#231F20"/>
<path d="M4.3229 28.333C4.12029 29.2051 3.86483 30.1477 3.47722 30.967C3.44198 31.0639 3.30102 31.2136 3.20411 31.2048C2.8165 31.2929 1.80344 31.5132 1.39821 31.6013V31.3722C2.27033 31.5836 3.13364 31.8039 3.97934 32.121C4.19957 32.2267 4.39338 32.2532 4.63124 32.5086C4.91314 33.1958 4.8867 33.8388 4.9836 34.5524L4.58719 34.526C4.84266 33.416 5.06289 32.262 5.69716 31.2929C5.80287 31.152 5.92621 30.9846 6.1993 30.9141L6.24335 31.3105C4.72814 31.3546 4.34934 29.5223 4.3141 28.333H4.3229ZM4.33171 28.2889C4.63123 29.2756 4.90432 30.9758 6.23453 30.9141L7.67926 30.782L6.28738 31.3105C5.93501 31.5484 5.68835 32.3412 5.52978 32.7993C5.20383 33.7419 4.92195 34.9488 4.67529 35.9267C4.596 34.94 4.64004 33.6274 4.37576 32.6936C3.52125 32.1386 2.35842 31.9184 1.36297 31.6101L0.86084 31.4779C1.49511 31.3634 2.55223 31.1696 3.18651 31.0551C3.30984 31.0551 3.40674 30.7996 3.48602 30.641C3.82958 29.8746 4.03219 29.117 4.33171 28.3066V28.2889Z" fill="#231F20"/>
<path d="M10.9563 19.6998C10.1899 26.5006 14.0925 28.747 19.5807 24.7212C20.9285 23.7874 22.1794 22.695 23.4039 21.5322L23.4744 21.585C22.6111 23.065 21.4483 24.3512 20.1004 25.4347C17.6162 27.5842 12.3746 28.703 11.0444 24.7564C10.4894 23.0914 10.5687 21.3472 10.8594 19.691L10.9475 19.7086L10.9563 19.6998Z" fill="#231F20"/>
<path d="M21.1134 21.2503C20.717 24.8533 24.9983 25.8928 27.8261 25.514C31.112 25.1792 32.7153 22.1488 33.0941 19.1184H33.1822C33.3231 19.9201 33.2879 20.7393 33.147 21.5586C32.8386 24.1397 30.4601 26.2452 27.8966 26.2187C25.5445 26.2804 22.611 25.884 21.3689 23.6112C20.9989 22.8712 20.8932 22.0255 21.0341 21.2327L21.1222 21.2503H21.1134Z" fill="#231F20"/>
<path d="M8.14624 23.3646C9.45883 26.1659 10.7802 28.9849 12.3307 31.6454C12.6126 32.0506 12.8857 32.6849 13.3085 32.8875C17.3256 33.2487 21.4043 33.1606 25.4302 33.0372C26.3728 32.9844 27.333 32.9668 28.2315 32.7729C28.4253 32.7377 28.4606 32.7025 28.5839 32.588C30.522 29.8218 31.0593 26.0162 32.2926 23.0122C31.535 26.4214 31.0593 30.0861 29.0684 33.0548C28.9187 33.2222 28.628 33.3984 28.4253 33.4249C27.4387 33.6627 26.4432 33.6451 25.4566 33.6891C21.3691 33.6891 17.2727 33.7155 13.2116 33.2398C12.5861 32.9667 12.4012 32.3149 12.0488 31.8127C10.6393 29.0906 9.1417 26.1307 8.14624 23.3646Z" fill="#231F20"/>
<path d="M19.8185 13.2075C21.4658 13.1987 22.338 11.5161 23.0163 10.2652C23.6858 9.10235 23.7298 7.3493 21.9944 7.35811C20.303 7.35811 18.7966 8.61784 18.1976 10.0802C17.5193 11.5161 17.9773 13.1723 19.8185 13.1987V13.2075ZM19.8097 13.2956C16.101 13.3396 16.5502 9.29614 18.9464 7.69284C21.4394 5.96621 24.7782 7.09382 23.6946 10.5383C23.1925 12.1768 21.4835 13.3308 19.8097 13.2956Z" fill="#231F20"/>
<path d="M21.554 7.12012C22.2147 5.42873 24.1527 3.28806 26.126 4.34518L26.1172 4.43328C25.4036 4.75923 24.3641 5.10278 23.6506 5.38468C22.8489 5.79872 22.1882 6.44182 21.6332 7.16418L21.554 7.12012Z" fill="#231F20"/>
<path d="M15.264 19.4091C15.5547 19.7615 15.9423 19.5148 16.2418 19.3298C16.3916 19.2417 16.5678 19.1184 16.6295 18.9334C16.6999 18.7484 16.5942 18.5546 16.4357 18.5018C15.7309 18.2463 14.7619 18.5899 15.264 19.4091ZM15.2288 19.4355C14.1452 18.3432 15.5988 17.5063 16.5678 18.2991C16.9642 18.6691 16.7704 19.2505 16.4797 19.6117C16.1097 20.0346 15.5019 19.8496 15.2376 19.4355H15.2288Z" fill="#231F20"/>
<path d="M6.18182 18.2111C6.31396 18.722 6.99228 18.2287 7.32704 18.2111C7.6706 18.167 8.36654 17.8323 8.03179 17.4358C7.42394 16.8368 6.23468 17.4182 6.18182 18.2111ZM6.13777 18.2111C6.08492 17.7089 6.23468 17.0835 6.77204 16.8544C7.26537 16.5902 8.02297 16.7663 8.2432 17.3037C8.47225 17.8851 7.8556 18.2639 7.46799 18.5458C7.07157 18.7749 6.22586 18.7749 6.13777 18.2111Z" fill="#231F20"/>
<path d="M26.3639 17.8852C26.7075 18.7133 28.8305 17.3302 28.1786 16.8281C27.4475 16.3876 25.8882 16.8369 26.3639 17.8852ZM26.3287 17.9116C25.5094 16.5374 27.3682 15.7357 28.3901 16.5462C28.531 16.6431 28.6367 16.8281 28.6367 17.0131C28.5486 17.8852 26.9101 18.7133 26.3287 17.9116Z" fill="#231F20"/>
<path d="M28.4694 21.1622C29.4296 20.898 29.6058 22.5101 28.7248 22.7127C27.5972 22.8008 27.3153 21.3649 28.4694 21.1622ZM28.4782 21.2063C27.8351 21.4706 28.1434 22.3075 28.672 22.3603C29.2093 22.3075 29.227 20.9596 28.4782 21.2063Z" fill="#231F20"/>
<path d="M11.7844 26.8354C12.5949 28.2449 13.2556 30.0244 14.6122 30.967C15.7839 31.2225 17.026 31.1168 18.2329 31.2049C19.1843 31.3018 20.3119 31.2225 21.184 31.4515C18.964 31.6806 16.6912 31.7951 14.4977 31.2754C13.7841 30.8966 13.4406 30.1566 13.0353 29.5223C12.6037 28.6678 12.0135 27.69 11.7844 26.8354Z" fill="#231F20"/>
</svg>
