<svg width="40" height="39" viewBox="0 0 40 39" fill="none" xmlns="http://www.w3.org/2000/svg">
<path d="M14.6122 20.209C14.5953 20.5147 15.0878 21.0356 15.7898 21.4319C16.4919 21.8282 18.2186 22.7623 18.7621 22.6548C19.3056 22.5472 20.3587 22.1509 20.3417 22.0093C20.3247 21.8678 20.2681 21.3639 20.0982 21.4375C19.9284 21.5111 19.1981 21.8055 18.53 22.0093C17.9695 22.1792 14.9349 20.8034 14.6122 20.209Z" fill="#E8B525"/>
<path d="M8.90552 17.95C8.91684 18.7822 9.20558 19.739 9.61887 19.9428C10.0322 20.1466 11.0456 20.4523 11.0456 20.4523V19.2521L8.90552 17.95Z" fill="#C16A2F"/>
<path d="M11.0454 19.405V20.4523C11.0454 20.4523 15.5406 18.8218 15.5916 18.6237C15.6426 18.4255 15.3651 17.8594 15.2179 17.8594C15.0707 17.8594 11.0454 19.405 11.0454 19.405Z" fill="#C16A2F"/>
<path d="M8.8147 17.684C8.85433 18.0406 10.4565 19.4051 11.0453 19.4051C11.6341 19.4051 15.4783 17.9217 15.5915 17.7972C15.7048 17.6726 14.5555 16.5403 14.1195 16.5007C13.6836 16.4611 8.8147 17.684 8.8147 17.684Z" fill="#EA914E"/>
<path d="M12.1609 23.8549C12.1609 23.8549 11.4476 23.1812 11.1645 23.2265C10.8814 23.2718 10.3605 23.787 10.1001 23.5379C9.83969 23.2888 10.0775 22.8189 9.95858 22.7226C9.83969 22.6264 8.92819 22.6886 9.15465 22.2074C9.33581 21.8281 9.87932 21.4318 9.87932 21.4318C9.87932 21.4318 10.3832 20.7581 10.7795 20.9223C11.1758 21.0864 11.2154 22.0093 11.2154 22.0093C11.2154 22.0093 11.8835 20.9562 12.1496 21.3808C12.4157 21.8055 11.7533 22.7226 11.7533 22.7226L12.5119 23.4303L12.1496 23.8549H12.1609Z" fill="#99BF30"/>
<path d="M20.7891 29.2051C8.95084 31.4923 7.1335 25.9497 6.85608 24.3985C6.81645 24.155 6.81079 24.0135 6.81079 24.0135C9.06407 26.4083 13.0724 26.4083 20.0587 25.5761C26.8186 24.7778 34.6145 19.3201 33.5614 14.0945C33.5557 14.0945 33.5557 14.0889 33.5557 14.0832C33.5274 13.9077 33.4822 13.7265 33.4255 13.551C31.6931 8.16694 21.1174 8.98786 18.7622 9.40681C18.7622 9.40681 27.7244 6.14577 34.773 9.09542C41.8215 12.0451 34.4899 26.5612 20.7891 29.2051Z" fill="#0D92F4"/>
<path d="M31.4044 14.5191C31.2289 14.7909 30.776 15.8779 30.7363 16.3082C30.7024 16.6988 30.0513 17.3669 29.2474 17.6896C29.1511 17.7349 29.0492 17.7689 28.9473 17.7972C28.0131 18.0576 27.1583 18.0746 27.1583 18.0746C24.5426 18.369 23.5519 17.8651 22.8046 17.7972C22.0572 17.7292 21.3382 17.7462 20.8174 17.4235C20.2909 17.1008 19.4699 14.7852 19.6851 14.6494C19.7643 14.5984 19.9229 14.3776 20.1267 14.1228C20.472 13.7095 20.9532 13.1943 21.4628 13.166C21.4628 13.166 21.7572 11.1619 22.6064 11.0373C23.45 10.9128 26.009 11.5582 26.009 11.5582C26.009 11.5582 26.7336 11.3374 27.3507 11.3827C27.9735 11.4336 28.6812 10.6693 29.3493 10.9298C30.0117 11.1845 29.2474 12.866 29.6437 12.9226C30.04 12.9736 30.4363 12.2545 30.8609 12.532C31.2798 12.815 31.5799 14.2474 31.4044 14.5191Z" fill="#99BF30"/>
<path d="M17.0523 24.0135C17.0523 24.0135 17.0013 24.7099 16.3389 24.6193C15.6765 24.5344 14.414 24.591 14.2328 24.591C14.0517 24.5853 13.2308 24.3362 13.4119 24.0135C13.4402 23.9682 13.4799 23.9286 13.5365 23.8946C13.8648 23.6682 14.6008 23.6116 14.6008 23.6116C14.6008 23.6116 14.0913 22.7793 14.5216 22.5245C14.9179 22.2924 15.6595 22.5981 15.8577 22.9039C15.9822 23.085 16.0558 23.2152 16.0955 23.2888C16.1238 23.3398 16.1351 23.3681 16.1351 23.3681C16.1351 23.3681 16.2597 22.9208 16.622 23.0397C16.9787 23.1586 17.0523 24.0135 17.0523 24.0135Z" fill="#99BF30"/>
<path d="M15.5916 19.2012C16.7692 18.6011 17.9355 18.9974 18.9036 19.6541C19.8717 20.3109 20.2397 20.9336 20.1378 21.1204C20.0359 21.3073 18.6545 22.1508 17.811 21.8394C16.9674 21.5281 13.763 20.1297 15.5916 19.2012Z" fill="#F9C932"/>
<path d="M29.2474 17.6896C29.1511 17.7349 29.0492 17.7688 28.9473 17.7971C28.0131 18.0576 27.1583 18.0745 27.1583 18.0745C24.5426 18.3689 23.5519 17.8651 22.8046 17.7971C22.0572 17.7292 21.3382 17.7462 20.8174 17.4235C20.2909 17.1008 19.4699 14.7852 19.6851 14.6493C19.7643 14.5984 19.9229 14.3776 20.1267 14.1228C20.3758 16.3195 21.2307 17.0555 22.1252 17.1687C23.1669 17.2989 24.0841 17.3329 25.1541 17.5593C26.0543 17.7518 27.815 17.8537 29.2474 17.6896Z" fill="#718721"/>
<path d="M17.0523 24.0134C17.0523 24.0134 17.0013 24.7098 16.3389 24.6192C15.6765 24.5343 14.414 24.5909 14.2328 24.5909C14.0517 24.5852 13.2308 24.3361 13.4119 24.0134C13.4402 23.9681 13.4799 23.9285 13.5365 23.8945C14.3744 24.087 15.7558 24.0134 15.7558 24.0134L16.0955 23.2887C16.1238 23.3397 16.1351 23.368 16.1351 23.368C16.1351 23.368 16.2597 22.9207 16.622 23.0396C16.9787 23.1585 17.0523 24.0134 17.0523 24.0134Z" fill="#718721"/>
<path d="M28.0471 23.5267C22.5045 26.4707 10.9663 27.9823 6.85608 24.3985C6.81645 24.1551 6.81079 24.0136 6.81079 24.0136C9.06407 26.4084 13.0724 26.4084 20.0587 25.5761C26.8186 24.7779 34.6145 19.3202 33.5614 14.0946C33.5671 14.1059 33.5671 14.1116 33.5727 14.1229C33.8785 15.1193 33.7765 20.4808 28.0471 23.5267Z" fill="#0B669E"/>
<path d="M2.18525 27.4557C7.61464 34.725 23.8349 29.0579 30.2437 25.242C33.9746 22.9887 39.6248 19.0993 38.8265 14.1455C38.1415 11.2128 35.2711 9.3615 32.497 8.63116C26.6543 7.1988 20.4549 8.56322 14.9293 10.6806C8.78091 13.0528 -2.55909 19.5862 2.18525 27.4613V27.4557ZM2.13996 27.484C-0.464332 23.838 1.56815 19.3654 4.48382 16.5912C10.3718 10.9863 18.513 7.98575 26.5637 7.49886C31.393 7.28939 37.8641 8.68777 39.2511 14.0549C40.0664 19.2635 34.3086 23.2039 30.4079 25.5194C24.033 29.3183 7.42781 34.7703 2.13996 27.484Z" fill="#231F20"/>
<path d="M32.1346 13.9474C35.9505 22.6095 13.5649 29.0013 8.04493 25.1515C5.80864 23.7644 6.64088 21.0582 8.02228 19.3598C6.99755 21.3243 6.0351 23.8154 8.78093 25.0043C14.5896 27.7162 35.3164 22.5925 32.1346 13.9474Z" fill="#231F20"/>
<path d="M19.6906 12.9509C16.8768 13.8738 14.2385 15.1646 11.521 16.3365C12.206 15.2665 14.1536 14.5248 15.3878 14.1172C16.5711 13.7492 18.5979 13.0189 19.6906 12.9509Z" fill="#231F20"/>
<path d="M25.4937 18.1652C24.7181 18.3407 23.8802 18.2444 23.1555 17.9274C22.7875 17.7859 22.4308 17.8142 22.0232 17.8425C20.721 17.9953 19.5831 17.2424 19.0282 16.0818C18.7961 15.6062 18.0318 14.2927 19.0905 14.3437C19.3057 14.3437 19.5038 14.3493 19.7133 14.372L19.4415 14.6211C19.4245 14.3663 19.4302 14.1285 19.4585 13.8794C19.4812 13.3586 19.8152 12.6056 20.4323 12.6169L21.123 12.5377L20.9758 13.0642C19.8378 12.0791 20.9758 10.8732 22.0515 10.6071C22.9743 10.324 24.0783 10.3806 24.8426 11.0034L24.8086 11.0487C23.9764 10.6241 23.0083 10.709 22.1987 11.0317C21.5589 11.2582 20.6248 11.9885 21.3325 12.5999L21.8986 13.0585L21.1853 13.1208C21.089 13.1321 20.4436 13.1831 20.3644 13.2C19.9341 13.4039 19.9454 14.1059 19.9228 14.5871V14.8759C19.6623 14.8362 19.3566 14.7909 19.0962 14.7853C19.0169 14.7796 18.8924 14.8022 18.915 14.7909C18.949 14.7796 18.9716 14.7456 18.9829 14.7173C19.1471 15.7591 19.8378 17.0725 20.9022 17.4349C21.6382 17.7236 22.4704 17.4405 23.2178 17.7519C23.9368 18.1029 24.6954 18.2275 25.488 18.0973L25.4993 18.1539L25.4937 18.1652Z" fill="#231F20"/>
<path d="M25.7767 11.077C26.1164 10.7486 26.6542 10.6977 27.0505 10.9468C27.226 11.0317 27.4016 11.1336 27.5431 10.9468C27.9054 10.3297 28.9245 10.0353 29.4001 10.743C29.785 11.3657 29.4454 12.3112 29.4793 12.8717C29.4567 12.8434 29.4057 12.8377 29.4001 12.8377C29.3831 12.8377 29.4284 12.8208 29.4567 12.7981L29.5756 12.7019C29.9945 12.3678 30.9004 11.6658 31.3023 12.4018C31.5231 12.9227 31.8685 13.5115 31.5854 14.0833C31.4778 14.2984 31.3306 14.4796 31.1608 14.6211L31.1268 14.5928C31.5628 14.0097 31.4835 13.4209 31.0985 12.8717C31.0079 12.7585 30.9796 12.5264 30.8381 12.5037C30.5267 12.5037 30.1078 12.8321 29.8247 13.0246C29.6662 13.1661 29.2246 13.3982 29.117 12.9736C29.0321 12.2942 29.485 11.479 29.1623 10.8789C28.8169 10.3297 28.0073 10.5731 27.679 11.0714C27.277 11.5016 26.8241 10.8053 26.3825 10.8675C26.173 10.8675 25.9692 10.9751 25.7937 11.094L25.7654 11.06L25.7767 11.077Z" fill="#231F20"/>
<path d="M26.575 18.1879C28.6188 18.0633 30.7419 17.1065 31.5458 15.125L31.5854 15.1306C31.5968 17.4915 28.415 18.4313 26.5693 18.1879H26.575Z" fill="#231F20"/>
<path d="M21.9495 15.125C21.9721 14.5362 22.6062 14.4796 22.9685 14.8249L22.793 14.8023C23.2912 14.4512 24.2141 14.1908 24.5198 14.9042L24.4858 14.9325C23.9253 14.7626 23.3422 14.8928 22.8213 15.108C22.5949 14.7683 22.1306 14.6324 21.9891 15.1363L21.9495 15.1306V15.125Z" fill="#231F20"/>
<path d="M26.5638 12.9057C26.8016 12.6282 27.379 12.3848 27.7131 12.7018C27.8263 12.7924 27.8942 13.1661 27.7244 13.1717C27.4923 13.0132 27.4923 13.0812 27.2262 12.9C27.0507 12.8377 26.8129 12.866 26.5808 12.9453L26.5581 12.9113L26.5638 12.9057Z" fill="#231F20"/>
<path d="M15.0594 18.2275C13.7233 18.6182 12.3646 19.0031 11.0851 19.5183C10.2755 19.4051 9.63006 18.8673 8.99597 18.3917C8.83744 18.2332 8.62231 18.103 8.57135 17.8482C8.56003 17.7293 8.60532 17.6897 8.63929 17.6331C9.19412 17.1122 9.97541 17.0046 10.6378 16.7838C11.8947 16.4781 13.1628 16.2064 14.4593 16.1837C15.0255 16.4328 15.3085 17.0612 15.6086 17.5595L15.5746 17.5821C15.2859 17.2311 14.9972 16.8744 14.6461 16.5857C14.5273 16.4951 14.4197 16.4328 14.3291 16.4611C13.7346 16.563 13.1289 16.6819 12.5287 16.8121C11.3568 17.1009 9.85085 17.2311 8.89972 17.8312C9.38661 18.4144 10.2755 19.0937 11.0737 19.2919C12.3363 18.805 13.7233 18.5219 15.0481 18.1879L15.0594 18.2275Z" fill="#231F20"/>
<path d="M8.74703 17.7972C8.71872 18.3351 8.74703 19.0541 9.16032 19.4221C9.38678 19.5863 9.66986 19.6995 9.92462 19.8467C10.1567 20.0109 10.5247 20.1354 10.6833 20.3562C10.0605 20.26 9.48869 20.0279 9.01312 19.5976C8.58285 19.122 8.57152 18.3124 8.74703 17.7972Z" fill="#231F20"/>
<path d="M11.0625 19.4051L11.0964 20.3449L11.0681 20.2996C12.3929 19.9203 13.7234 19.2636 15.0199 18.771C15.1105 18.7314 15.3992 18.6182 15.4841 18.5729C15.6483 18.4257 15.569 18.035 15.5804 17.7972H15.6087C15.7049 18.1256 15.8917 18.6804 15.4501 18.8503C14.9236 19.139 14.3631 19.3655 13.797 19.558C12.9591 19.8184 11.9117 20.2713 11.0342 20.3959H11.0059V20.3506L11.0398 19.4108H11.0681L11.0625 19.4051Z" fill="#231F20"/>
<path d="M14.618 20.1411C14.7086 20.4129 14.9917 20.5714 15.2238 20.7299C15.9768 21.1658 16.8033 21.4546 17.6356 21.715C17.913 21.7999 18.1904 21.8848 18.4678 21.9245C18.7113 21.9471 18.9944 21.8056 19.2548 21.698C19.6284 21.5055 20.1436 21.296 20.3644 20.9564C19.5718 20.1015 18.4905 19.3711 17.4771 18.8106C17.3412 18.7427 17.2676 18.771 17.1317 18.7937C16.4354 18.9409 15.7277 19.1334 15.1049 19.4957C14.8784 19.6486 14.5954 19.8467 14.6237 20.1411H14.618ZM14.5897 20.1411C14.5444 19.8241 14.8331 19.5976 15.0596 19.4334C15.7333 18.9862 16.4976 18.6465 17.3016 18.4993C17.9979 18.6068 18.5244 19.1334 19.0736 19.5013C19.5888 19.926 20.155 20.3053 20.5569 20.8601C20.6645 21.1432 20.2908 21.3244 20.1097 21.4602C19.5775 21.749 19.0793 22.083 18.4395 22.083C17.2959 21.8169 16.2146 21.3414 15.2068 20.7526C14.9747 20.594 14.6916 20.4412 14.5897 20.1468V20.1411Z" fill="#231F20"/>
<path d="M12.1551 23.8663C10.3887 22.4056 11.4588 24.0814 10.134 24.0644C9.48289 24.0531 8.93373 23.6342 9.40363 22.9888L9.47723 23.1133C9.1149 23.1529 8.74124 23.1586 8.38456 23.0057C7.98259 22.8642 7.86936 22.3603 8.0109 21.9923C8.23736 21.1035 9.24511 21.0695 9.93015 21.4658L9.732 21.5677C9.76031 21.3526 9.82258 21.1544 9.96412 20.9733C10.2585 20.5826 10.9039 20.6619 11.1474 21.0525C11.2776 21.2224 11.3625 21.4035 11.4191 21.6073L11.1417 21.63C11.17 21.3582 11.3399 21.0582 11.6399 21.0299C12.7892 21.0469 12.1948 22.2018 11.7305 22.6887L11.7249 22.5868C11.9683 22.8642 12.3476 23.153 12.5118 23.4417C12.2004 23.1813 11.8777 22.9208 11.572 22.6547C11.8268 22.3094 12.5175 21.2733 11.6682 21.2903C11.3455 21.3356 11.3908 22.0829 11.3229 22.3264L11.1361 21.681C10.8643 20.7015 9.99243 20.8147 9.9528 21.7885L9.78295 21.6979C9.23379 21.3639 8.39589 21.3073 8.19207 22.0603C7.87503 22.8755 8.83182 23.0397 9.44326 22.9605L9.61877 22.9435L9.5112 23.085C8.93939 23.7927 10.1 24.1494 10.5926 23.855C10.819 23.7078 10.8303 23.402 11.0228 23.2209C11.1304 23.1643 11.221 23.2096 11.3059 23.2379C11.5493 23.3681 12.0476 23.6738 12.1381 23.8663H12.1551Z" fill="#231F20"/>
<path d="M13.8253 24.5967C13.497 24.7552 12.9308 24.5401 13.0214 24.1155C13.1233 23.47 13.8423 22.9718 14.4594 23.3398L14.3066 23.4644C13.7121 21.7716 15.9371 22.0943 16.2994 23.3115L15.9824 23.2776C17.0128 21.5734 18.0205 24.2174 16.6561 24.7269C15.6823 24.9364 14.8218 24.6533 13.8253 24.5967ZM13.8027 24.5627C14.6293 24.4268 15.6767 24.5401 16.4862 24.3476C16.9109 24.1721 16.9901 23.555 16.7523 23.1813C16.7014 23.119 16.6901 23.1077 16.6618 23.1077C16.4636 23.136 16.2032 23.5776 16.0786 23.7758C15.9767 23.4644 15.8635 23.1021 15.6031 22.8699C15.3539 22.6152 14.6972 22.4057 14.4821 22.751C14.3519 23.0002 14.4934 23.3965 14.584 23.6682L14.3462 23.521C13.4064 22.9152 12.4326 24.7948 13.8027 24.5627Z" fill="#231F20"/>
<path d="M14.618 20.1411C14.6406 20.4695 14.6802 20.8205 14.9973 20.9847C15.9937 21.5735 17.0467 22.1113 18.1394 22.502C18.5923 22.6888 19.0566 22.468 19.4982 22.3208C20.0247 22.0943 20.4323 22.0207 20.421 21.4489C20.4606 21.3017 20.4097 20.9847 20.4776 20.9451C20.5286 21.1942 20.5569 21.4489 20.5569 21.7037C20.5569 22.1906 19.9398 22.4001 19.6057 22.5812C19.1302 22.7681 18.5584 22.9832 18.0545 22.7397C16.9675 22.2812 15.9258 21.715 14.9463 21.0526C14.601 20.8601 14.5896 20.4582 14.584 20.1411H14.6123H14.618Z" fill="#231F20"/>
<path d="M21.6494 23.0285C23.897 21.7943 26.0031 20.3506 28.0356 18.7993C27.3392 19.8184 26.122 20.5714 25.052 21.2281C23.9593 21.8679 22.7761 22.5812 21.6494 23.0285Z" fill="#231F20"/>
</svg>
