<svg width="39" height="39" viewBox="0 0 39 39" fill="none" xmlns="http://www.w3.org/2000/svg">
<path d="M23.5593 18.3082C23.5593 18.3082 25.7101 0.685104 27.3474 0.491608C28.9847 0.298112 29.3568 0.856274 29.4312 1.52607C29.5056 2.19586 27.1539 16.9239 27.1539 16.9239L23.5668 18.3156L23.5593 18.3082Z" fill="#0D92F4"/>
<path d="M7.20898 22.3345C7.20898 22.3345 8.89836 25.0062 10.424 27.0156C11.4585 28.3775 11.9571 29.1589 12.158 29.9255C12.359 30.692 13.9888 38.1342 13.9888 38.1342H24.3334C24.3334 38.1342 25.8069 29.1664 26.4544 27.9161C27.1019 26.6658 31.3588 21.9847 31.3588 21.9847C31.3588 21.9847 28.6201 20.2581 27.6526 20.4739C26.6851 20.6897 23.6487 22.4461 23.1873 22.3047C22.7259 22.1633 20.8281 19.4767 19.5481 19.7669C18.268 20.0572 16.2438 22.1856 15.8419 22.3345C15.44 22.4833 12.0092 20.6228 10.29 21.047C8.57089 21.4712 7.20898 22.3345 7.20898 22.3345Z" fill="#F9C932"/>
<path opacity="0.26" d="M23.0012 23.354L20.3369 38.1341H23.0012L25.4125 23.6219L23.1873 23.9271L23.0012 23.354Z" fill="#0D92F4"/>
<path d="M17.2111 26.0406C18.1637 26.6062 17.7767 34.8819 17.7767 34.8819C17.7767 34.8819 16.5413 28.7422 16.184 28.0649C15.8268 27.3877 15.3505 26.0927 13.6611 25.8695C13.6611 25.8695 15.8789 25.2518 17.2111 26.0406Z" fill="white"/>
<path d="M25.7175 25.7801C25.7175 25.7801 22.8374 25.5122 22.3388 25.7801C21.8401 26.048 21.2671 34.8819 21.2671 34.8819C21.2671 34.8819 22.3165 27.4099 23.4923 26.7029C24.6682 25.9959 25.7175 25.7801 25.7175 25.7801Z" fill="white"/>
<path d="M26.4915 3.2229L24.3333 17.1695C24.3333 17.1695 26.4915 8.42497 26.4915 7.5468C26.4915 6.66862 26.4915 3.2229 26.4915 3.2229Z" fill="white"/>
<path d="M7.18652 22.3047C11.2053 19.313 11.9272 20.0349 15.7897 21.9252C16.9283 21.1214 18.0521 19.886 19.5405 19.7223L19.5554 19.7967C18.1488 20.4591 17.36 21.8656 16.0204 22.6694C15.8194 22.7587 15.5292 22.6694 15.4101 22.595C13.8473 21.8135 12.1579 20.206 10.3494 20.8386C9.26289 21.181 8.21354 21.7466 7.23117 22.3568L7.18652 22.2973V22.3047Z" fill="#231F20"/>
<path d="M13.3711 25.7429C14.5991 25.5122 16.0056 25.289 17.2261 25.8471C17.3452 25.9141 17.4792 26.0183 17.5387 26.1671C17.5834 26.2788 17.628 27.0528 17.6429 27.1867C17.8289 29.9403 18.4094 33.0139 17.8364 35.641C17.1592 32.8874 17.2261 30.0073 17.1592 27.1942L17.1368 26.3458C17.1964 26.2937 16.8987 26.1002 16.6754 26.0257C15.6558 25.676 14.4949 25.6908 13.386 25.8248L13.3711 25.7504V25.7429Z" fill="#231F20"/>
<path d="M19.548 38.097L25.1073 37.978L24.9585 38.1045C25.6432 34.9267 25.9632 31.6744 27.1316 28.6306C28.4861 26.4649 30.4583 24.6862 31.4927 22.3643C32.4974 18.0478 32.6388 13.4932 33.0853 9.08001L33.45 9.47444L5.64608 9.34049L5.88424 9.08746C6.18936 12.9276 6.48704 16.7752 7.03776 20.5856C7.32056 23.9048 10.1932 26.0184 11.8305 28.7124C12.1729 29.3078 12.2771 29.9478 12.4482 30.5655C12.9692 32.9619 13.7506 35.9165 13.9887 38.0598L19.548 38.0896V38.164L13.9887 38.1938H13.9292L13.9143 38.1342C13.185 35.0457 12.7608 31.7712 11.5998 28.8315C9.903 26.1598 6.9708 23.9867 6.65823 20.6377C6.05541 16.7306 5.72796 12.8011 5.37817 8.86419H5.63863L33.4426 8.73022H33.8445C33.6286 11.4317 33.3905 14.1258 33.1002 16.8199C32.8398 18.7697 32.7579 20.7047 32.1476 22.6099C31.0536 24.9988 29.0294 26.7552 27.6228 28.9134C26.4544 31.8605 25.993 35.1797 25.2264 38.2756H25.0999L19.5406 38.1566V38.0821L19.548 38.097Z" fill="#231F20"/>
<path d="M31.8649 22.3643C27.9652 19.9902 27.4442 20.3028 23.6785 22.595C23.5594 22.6694 23.2692 22.7661 23.0682 22.6694C21.7286 21.8656 20.9398 20.4591 19.5332 19.7967L19.5481 19.7223C21.0365 19.886 22.1603 21.1214 23.2989 21.9252C24.3929 21.4712 26.3428 20.1614 27.9577 20.2507C29.4536 20.5112 30.7039 21.4563 31.8946 22.2973L31.85 22.3568L31.8649 22.3643Z" fill="#231F20"/>
<path d="M25.71 25.8174C24.6012 25.6835 23.4402 25.676 22.4206 26.0184C22.1899 26.0928 21.8997 26.2863 21.9592 26.3384L21.9369 27.1868C21.8773 28.8315 21.9369 30.6399 21.788 32.2698C21.6764 33.3936 21.5275 34.5248 21.2671 35.6336H21.1927C20.9173 33.3638 21.0513 31.1237 21.3043 28.8687C21.3787 28.2064 21.4606 26.8072 21.5573 26.1672C21.6838 25.8695 22.0262 25.7579 22.3015 25.6686C23.4625 25.3858 24.616 25.5197 25.7175 25.743L25.7026 25.8174H25.71Z" fill="#231F20"/>
<path d="M11.4732 16.3211L20.3294 14.4978L20.5154 14.4606L20.5899 14.6466C20.6345 14.7285 21.5648 17.1174 21.5796 17.1249C19.414 18.4049 17.293 19.7668 15.0901 20.9799C14.3682 20.5334 13.6538 20.0645 12.9393 19.6105C12.2397 19.1715 11.5625 18.6877 10.8704 18.2263C11.0639 17.5714 11.2797 16.9165 11.4806 16.3211H11.4732ZM11.5178 16.3732C11.4285 17.0132 11.3467 17.6086 11.2574 18.1891L11.1681 17.9882C12.5598 18.7026 13.9217 19.4543 15.2836 20.2208H14.904C16.9283 19.0077 19.027 17.9212 21.0885 16.7676L20.9694 17.11L20.1507 14.8178L20.4112 14.9666L11.5253 16.3806L11.5178 16.3732Z" fill="#231F20"/>
<path d="M21.23 17.0059L20.9398 20.3102L20.2104 20.1613L21.23 17.0059Z" fill="#231F20"/>
<path d="M11.0789 18.1445L11.8305 20.4144L11.1012 20.5335L11.0789 18.1445Z" fill="#231F20"/>
<path d="M30.4433 21.4414L31.247 19.5139V19.5809L30.6517 16.5073L30.8749 16.7008L28.0469 16.7826L28.1809 16.7528C26.9678 17.4152 25.7547 18.0776 24.4821 18.6208L24.6682 18.2413C24.8319 19.2981 24.9659 20.3697 25.0254 21.4489L24.951 21.4637C24.5417 20.3697 24.2216 19.2609 23.9314 18.1445C25.2561 17.4078 26.6403 16.7082 28.0469 16.1649L30.8749 16.2468H31.0759L31.0982 16.4403L31.4703 19.5437V19.5809L31.4554 19.6106L30.5028 21.4712L30.4358 21.4414H30.4433Z" fill="#231F20"/>
<path d="M24.5267 18.6282L22.7853 19.4766L22.8746 19.3575L22.0857 21.419L22.4876 19.2533L22.5025 19.1938L22.5769 19.1343L24.1397 17.9882L24.5267 18.6282Z" fill="#231F20"/>
<path d="M20.9099 20.5557L16.2362 23.9122L16.1693 23.9568C14.8446 23.3614 13.0212 22.5354 11.7784 21.8209L11.7263 21.7911C11.6221 21.352 11.5402 20.913 11.4509 20.4664C11.6816 20.7567 11.7784 21.3 11.9421 21.6795L11.8826 21.6051C13.1775 22.1111 14.9636 23.0117 16.2213 23.6517L16.0799 23.6591C16.0799 23.674 20.9397 20.4292 20.9248 20.5409L20.9099 20.5557Z" fill="#231F20"/>
<path d="M22.5397 21.5977L23.3137 23.8824L23.2021 23.8155L25.0477 23.7336L24.9956 23.7931V21.4563L25.1147 23.7931C25.1147 23.8601 25.1296 23.8452 25.0626 23.8527L23.2244 24.0313H23.15L23.1202 23.9569L22.2048 21.7242L22.5546 21.5977H22.5397Z" fill="#231F20"/>
<path d="M25.0479 23.7783C26.7149 23.1903 28.4192 22.4089 30.1457 22.0145L30.0713 22.0814C30.1904 21.9177 30.369 21.4786 30.5029 21.4637C30.4509 21.7242 30.369 21.9773 30.2946 22.2303C29.8629 22.4163 29.4164 22.595 28.9699 22.7364C27.7196 23.0415 26.2535 23.5773 25.0553 23.7857L25.0479 23.7783Z" fill="#231F20"/>
<path d="M23.4478 18.8292C23.9092 15.7705 25.0701 8.0306 25.5241 5.0835C25.6432 4.33184 25.9334 2.37456 26.0525 1.64522C26.2014 0.112138 28.3968 -0.252535 29.0443 1.16148C29.4015 1.8536 29.0145 2.87318 28.9624 3.58763C28.2107 8.11991 27.5186 12.8903 26.432 17.2589C26.9604 12.6522 27.6377 8.06781 28.4191 3.49832C28.4712 2.96248 28.8508 1.81639 28.5977 1.36986C28.3521 0.774482 27.5261 0.521452 26.9828 0.908445C26.3949 1.21357 26.4172 2.30013 26.2832 2.85829L25.8888 5.14304C25.3455 8.00827 24.1175 16.0012 23.4552 18.8292H23.4478Z" fill="#231F20"/>
<path d="M25.4348 23.6814C24.7129 28.1988 24.5566 33.066 23.1575 37.3526C23.3807 32.9841 24.5194 27.9011 25.4348 23.6814Z" fill="#231F20"/>
<path d="M20.3071 38.1266C21.1779 32.6939 21.483 26.9187 23.031 21.7167C22.6365 27.1122 21.3788 32.9171 20.3071 38.1266Z" fill="#231F20"/>
</svg>
