<svg width="39" height="39" viewBox="0 0 39 39" fill="none" xmlns="http://www.w3.org/2000/svg">
<path d="M25.7876 21.7057C25.5277 23.2073 25.0224 24.4851 24.5314 24.8533C23.1093 25.8929 19.4635 24.3047 16.0561 25.4453C12.6486 26.5787 9.78253 25.9362 6.56996 22.9763C3.36462 20.0164 3.81221 14.6236 3.94937 13.0426C4.02156 12.2413 4.30311 10.4004 5.11889 8.67498C5.89135 7.00012 7.16917 5.44076 9.19778 5.02927C13.7531 4.09076 14.8288 5.05814 13.7242 7.50547C12.6197 9.95279 15.0959 10.7613 16.0344 11.967C16.9801 13.1654 17.4927 11.3678 19.0087 13.0787C20.5248 14.7897 19.2903 15.7354 23.3475 15.5044C25.9825 15.36 26.2857 18.9191 25.7876 21.7057Z" fill="#EA914E"/>
<path d="M25.7876 21.7057C25.5277 23.2073 25.0224 24.4851 24.5314 24.8533C23.1093 25.8928 19.4635 24.3046 16.0561 25.4452C12.6486 26.5787 9.78253 25.9361 6.56996 22.9763C3.36462 20.0164 3.81221 14.6236 3.94937 13.0426C4.02156 12.2412 4.30311 10.4003 5.11889 8.67493C4.85177 19.5399 8.9812 25.142 19.2109 22.9041C22.048 22.2832 24.1849 21.915 25.7876 21.7057Z" fill="#C16A2F"/>
<path d="M25.9534 23.8137L29.9962 27.38C29.9962 27.38 29.1515 28.0659 28.7256 28.5423C28.2996 29.0188 28.805 30.441 29.4547 31.3218C30.1044 32.2025 31.9453 31.6322 31.9453 31.6322C31.9453 31.6322 30.8913 30.8164 30.4726 29.6036C30.0539 28.3907 31.375 27.5389 31.375 27.5389L26.3721 23.0846L26.1772 23.46L25.9534 23.8065V23.8137Z" fill="#E5D9D1"/>
<path d="M17.2685 27.1201C17.4273 28.4412 14.915 31.9209 14.915 31.9209C14.915 31.9209 17.4706 31.791 18.5896 33.7041C18.5896 33.7041 18.9145 30.7514 21.0009 30.2749C19.4704 30.0006 18.041 29.4519 17.2685 27.1201Z" fill="#F9C932"/>
<path d="M25.1954 5.34694C25.4409 6.84133 23.0225 7.6932 23.0225 7.6932C23.0225 7.6932 25.4048 7.83758 25.7946 9.54854C25.7946 9.54854 26.3939 7.81592 28.011 7.54159C26.4805 7.25282 25.4337 6.60309 25.2027 5.33972L25.1954 5.34694Z" fill="#F9C932"/>
<path d="M20.1998 25.1854C22.2428 25.7197 24.9789 25.2937 26.1629 23.3951C27.1664 21.417 26.6971 18.9119 25.6503 17.0421C25.1161 16.1469 24.1631 15.2084 23.073 15.7066C21.7736 16.3924 20.965 16.9194 20.2503 15.194C19.9038 14.5731 19.5645 12.4579 18.6477 12.8622C18.1712 13.0715 17.5792 13.4397 16.9872 13.3242C16.7851 13.2953 16.5829 13.252 16.388 13.086C16.1715 12.8983 16.2003 12.5878 16.2436 12.4146C17.1821 10.0539 12.9589 11.375 13.4498 9.20924C13.8468 7.72207 14.511 6.36485 15.4784 5.15924L15.5578 5.4841C12.4608 4.47341 8.31691 4.50951 6.23054 7.37555C3.57386 11.5194 3.14794 17.7496 5.97066 21.9223C7.53724 23.9004 9.95567 25.3442 12.4319 25.7991C15.0236 26.0012 17.5214 24.6729 20.1926 25.1854H20.1998ZM20.1853 25.2432C18.4599 25.0483 16.7057 25.3082 15.0308 25.7557C13.3343 26.2755 11.4645 26.0878 9.86905 25.3082C6.38937 23.9148 4.07922 21.0199 3.66772 17.2804C3.27788 13.779 3.79045 10.0322 5.83349 7.07234C8.17253 3.96085 12.6412 4.0186 15.9838 5.20255C14.9875 6.42983 13.8757 8.14079 13.8108 9.74346C14.2222 10.4798 15.5145 10.256 16.1787 10.8263C16.5324 11.0429 16.7779 11.5194 16.6985 11.9309C16.6479 12.3207 16.4313 12.725 16.6118 12.855C17.1966 13.2665 17.9329 12.855 18.5393 12.5806C18.9364 12.3713 19.4634 12.6095 19.6439 13.0066C20.3225 13.8801 20.4452 16.7028 21.9829 15.9881C23.6722 14.9269 24.7912 15.259 25.8019 16.9555C26.8343 18.8975 27.2746 21.4242 26.2423 23.4456C25.0295 25.3803 22.25 25.7991 20.1853 25.2432Z" fill="#231F20"/>
<path d="M14.6986 6.7041C15.601 7.8303 17.1099 8.24902 18.4671 8.49447C18.0123 9.66399 19.1024 10.552 19.8532 11.3389C20.5967 12.2052 20.6906 13.3675 21.8962 13.7429C22.6037 14.1399 23.1018 14.7969 23.3689 15.5044L23.3184 15.526C22.8853 14.9268 22.3222 14.4215 21.6941 14.1399C21.4125 14.0244 20.9361 13.9017 20.6329 13.584C20.0625 12.9848 19.9326 12.2557 19.4561 11.6421C18.7486 10.7974 17.6874 9.85169 18.1205 8.55945L18.2361 8.77603C16.9655 8.45116 15.2689 7.87362 14.6914 6.7041H14.6986Z" fill="#231F20"/>
<path d="M26.791 22.0884C28.4442 23.3084 30.0974 24.5285 31.7362 25.7702L31.3752 25.8352C32.1982 24.2975 34.4867 23.229 35.8656 24.8028C37.1434 26.3694 35.5335 28.8745 33.6348 28.3258L33.6421 28.2536C34.4073 28.2175 35.1004 27.8349 35.4108 27.1419C36.1399 25.763 34.9488 24.3624 33.4833 24.7667C32.8119 24.9472 32.2054 25.4959 31.7867 26.0878L31.6279 26.3189C29.9819 24.9472 28.3648 23.5467 26.7405 22.1534L26.7838 22.0956L26.791 22.0884Z" fill="#231F20"/>
<path d="M25.9751 23.7849C27.4623 25.005 28.9566 26.2034 30.4222 27.4451L30.1045 27.6111C29.4764 27.9432 28.9133 28.5496 28.8772 29.221C28.7906 30.5566 30.2128 31.9138 31.5484 31.5167C32.2775 31.3146 32.5952 30.5638 32.6818 29.8346H32.754C32.8117 30.2317 32.8478 30.6649 32.6818 31.0836C32.3641 31.9715 31.3029 32.4119 30.4077 32.2098C27.9098 31.6322 27.4406 28.1887 29.924 27.1996L29.8663 27.5822C29.036 26.7304 26.3361 24.4202 25.9751 23.7921V23.7849Z" fill="#231F20"/>
<path d="M9.19751 18.8254C9.55125 18.1829 9.85446 17.4826 10.3021 16.9268C10.4898 16.7679 10.6991 16.6308 11.0095 16.5658L11.0673 16.6091C11.0673 17.2011 10.7857 17.5765 10.3598 17.9014C10.0061 18.2407 9.63787 18.5655 9.25525 18.876L9.19751 18.8326V18.8254Z" fill="#231F20"/>
<path d="M14.3955 16.5945C14.4027 16.5945 14.3955 16.6017 14.4316 16.5945C14.4677 16.5656 14.4532 16.5656 14.4605 16.5656C14.5038 16.6522 14.5832 16.8327 14.6337 16.9265L14.807 17.3453C14.8647 17.4824 14.9802 17.6124 14.9514 17.7712C14.9297 17.8867 14.8503 18.2332 14.6337 18.2765C14.4099 18.1683 14.3089 18.0311 14.2367 17.8939C14.1572 17.7568 14.2294 17.5907 14.2367 17.4391C14.2511 17.1792 14.2872 16.7894 14.3594 16.5439C14.3883 16.479 14.4605 16.5006 14.4605 16.5584L14.3955 16.5872V16.5945Z" fill="#231F20"/>
<path d="M19.0087 20.1824C18.9004 20.1464 19.0303 20.0669 19.0592 20.0236C19.2036 19.872 19.4996 19.6266 19.6729 19.4966C19.7956 19.41 19.8895 19.2656 20.0483 19.2512C20.1638 19.2439 20.5175 19.2439 20.6114 19.4389C20.5103 19.8648 20.2865 20.0164 19.9111 20.0236C19.6657 20.0742 19.2902 20.1247 19.0448 20.1608C19.0159 20.168 19.0809 20.1247 19.0087 20.103V20.1752V20.1824Z" fill="#231F20"/>
<path d="M8.26641 10.1549C8.7501 10.1044 9.25543 9.97442 9.71746 10.0466C9.82575 10.0971 10.1506 10.2921 10.1218 10.5086C9.78245 10.8191 9.48646 10.8119 9.14715 10.6169C8.84395 10.5086 8.54794 10.3787 8.25195 10.2271L8.26641 10.1549Z" fill="#231F20"/>
<path d="M17.8392 27.1563C17.9186 27.3223 17.8392 27.5967 17.7886 27.8133C17.2328 29.3582 15.8106 30.3761 14.4967 31.2641L14.4461 30.9464C15.7456 31.228 17.1461 31.4517 18.2723 32.2531C18.8787 32.8523 18.9076 33.8702 18.9942 34.6932L18.3951 34.6643C18.4456 34.1445 18.5322 33.6536 18.6622 33.1555C18.8282 32.5419 19.0953 31.8633 19.5862 31.3796C20.2937 30.7948 21.0734 30.3905 21.9253 30.0368L22.0985 30.6721C20.005 30.8453 18.3012 29.0333 17.8464 27.1635L17.8392 27.1563ZM17.8247 27.0841C18.6188 28.5857 20.1782 30.2822 22.0047 30.0079L24.3726 29.582C23.1886 30.1595 21.391 30.9536 20.3442 31.7261C19.4274 32.383 19.1964 33.6103 18.9942 34.7148L18.3951 34.686C18.3517 34.0146 18.3734 33.1916 17.9402 32.6285C16.814 31.7911 15.3052 31.5312 13.948 31.1774L14.3234 30.9608C15.7817 30.0368 17.6082 28.9683 17.8247 27.0841Z" fill="#231F20"/>
<path d="M25.3831 4.71161C25.5708 5.59236 25.0726 6.66081 24.3507 7.21669C23.8959 7.58488 23.2029 7.37552 22.6542 7.46937L22.7119 7.1084C23.6721 7.47659 24.6611 7.72926 25.513 8.35734C25.809 8.73996 25.7657 9.23809 25.874 9.67846L26.0761 11.0718L25.5058 11.1295C25.4553 10.1694 25.3686 9.29584 25.7801 8.35011C25.8884 8.083 26.2494 7.80145 26.5526 7.78701C27.1085 7.69316 27.6643 7.37552 28.0903 7.01456L28.3718 7.64263C27.9748 7.6715 27.5561 7.63541 27.1518 7.5199C25.939 7.20947 25.2675 5.88113 25.3975 4.70439L25.3831 4.71161ZM25.3758 4.63942C26.1627 7.05065 27.0796 7.13006 29.4042 6.81242C28.5956 7.54156 27.6932 8.44397 26.5526 8.5306C25.9895 9.08648 26.0978 10.2993 26.0761 11.0862L25.5058 11.144C25.4192 10.5015 25.3181 9.38247 25.1593 8.76883C25.1376 8.70386 25.1593 8.75439 25.1448 8.72551C24.4157 8.16963 23.4411 7.83033 22.582 7.46215L21.7229 7.11562L22.6398 7.10118C23.0152 7.10118 23.3905 7.10118 23.7732 7.13006C24.7117 7.08675 25.3831 5.61402 25.3831 4.6322L25.3758 4.63942Z" fill="#231F20"/>
</svg>
