<svg width="39" height="39" viewBox="0 0 39 39" fill="none" xmlns="http://www.w3.org/2000/svg">
<path d="M32.3678 30.8074C32.5216 32.2076 32.7806 33.3973 32.7806 33.3973C32.7806 33.3973 29.0899 34.8784 27.3093 35.3317C25.5287 35.793 24.8489 34.6032 21.0044 34.757C19.0134 34.838 15.177 34.8622 11.9396 34.8703C8.9207 34.8865 6.41979 34.8784 6.41979 34.8784L8.07088 32.1185C8.07088 32.1185 8.52412 28.3388 7.90901 27.3433C7.49624 26.6877 5.74802 25.1823 4.63111 24.2597H4.62302C4.06456 23.7983 3.66797 23.4827 3.66797 23.4827L37.5962 14.1993C37.5962 14.1993 38.0657 14.5797 38.0981 16.4251C38.1385 18.2785 33.0558 25.2714 32.4326 27.1005C32.2869 27.5457 32.2302 28.1446 32.2302 28.8001C32.2302 29.4557 32.2869 30.1518 32.3678 30.8074Z" fill="#F9C932"/>
<path d="M33.849 19.5897C33.3795 19.8891 32.8858 20.1805 32.4488 20.4233C31.7608 20.8037 31.2266 21.0546 31.2266 21.0546L23.1492 17.8577L22.0971 17.4368L11.4702 22.1877L9.02595 23.2804C9.02595 23.2804 7.71479 23.3289 6.39554 23.3775C5.04391 23.426 3.66799 23.4746 3.66799 23.4827C3.71655 23.4989 -0.419259 22.3982 0.77859 20.739C1.97644 19.0798 3.57087 20.1724 3.66799 19.703C3.77321 19.2336 3.70846 17.3073 3.07716 16.4251C2.69677 15.9071 4.13742 14.5312 5.37574 13.4871C6.24175 12.7668 7.00255 12.2083 7.00255 12.2083L7.70669 11.9817H7.71478L25.3993 6.22719C27.2203 5.74157 27.5845 5.7092 27.7059 5.96819C27.8192 6.22719 28.0459 7.53835 28.75 7.70022C29.4541 7.86209 33.6304 9.29465 33.8408 9.82073C34.0594 10.3387 32.8696 13.4871 32.8696 13.4871C32.8696 13.4871 36.7707 12.953 37.5963 14.1994C38.4137 15.4377 35.0387 18.8127 33.849 19.5897Z" fill="#FFF1B8"/>
<path d="M32.4488 20.4233C31.7608 20.8037 31.2266 21.0546 31.2266 21.0546L23.1492 17.8576L22.4937 12.791L25.1564 7.52209C26.8075 8.83325 26.9046 11.1642 26.9046 11.1642C26.9046 11.1642 31.9389 13.5761 31.9389 14.1993C31.9389 14.8225 32.3031 17.0159 32.3678 17.4367C32.4245 17.809 32.5944 19.5492 32.4488 20.4233Z" fill="#E0D190"/>
<path d="M12.1904 17.4368L11.4701 22.1877L9.02582 23.2803C9.02582 23.2803 7.71466 23.3289 6.39541 23.3774C6.26591 22.8999 5.78029 20.9575 5.78029 20.488C5.78029 19.9539 7.14002 16.7488 7.14002 16.7488C7.14002 16.7488 5.8936 15.5752 5.37561 13.4871L7.70656 11.9817H7.71465L12.1904 17.4368Z" fill="#E0D190"/>
<path d="M25.9011 10.978C25.8202 11.1966 25.197 11.2937 25.0756 11.3908C24.2419 12.0545 21.7329 13.22 21.7329 13.22L8.62132 15.6318C8.62132 15.6318 8.32185 15.4457 7.91717 15.1301C7.09972 14.4826 5.86949 13.3009 6.02327 12.1111C6.2418 10.3387 8.95314 8.45285 8.95314 8.45285C8.95314 8.45285 8.5161 5.62819 10.1753 5.18304C11.8345 4.74599 13.2185 4.77027 13.2185 4.77027C13.2185 4.77027 15.4199 3.16774 16.7958 3.26486C18.1636 3.36199 19.062 3.16774 19.4424 3.42674C19.8228 3.67764 19.9361 4.4789 20.4541 4.45462C20.9802 4.42225 21.9514 3.7181 22.6232 4.30084C23.3031 4.88358 23.4245 5.43394 23.7968 5.93575C24.1691 6.43755 25.0675 6.26758 25.4074 6.47801C26.2329 6.98791 26.3705 9.71544 25.9011 10.978Z" fill="#EA914E"/>
<path d="M25.3669 10.9133C25.286 11.1319 25.1888 11.2937 25.0674 11.3908C24.2338 12.0545 21.7248 13.22 21.7248 13.22L8.61319 15.6319C8.61319 15.6319 8.31374 15.4457 7.90906 15.1301C8.01427 14.774 8.24899 14.3531 8.71842 14.3288C9.54396 14.2883 10.1672 14.4907 10.1672 14.4907C10.1672 14.4907 10.5799 12.6696 11.7859 12.4673C12.9837 12.2569 13.3399 12.2731 13.3399 12.2731C13.3399 12.2731 15.2014 11.3099 16.7877 11.3908C18.366 11.4718 18.892 11.7227 18.892 11.7227C18.892 11.7227 21.3282 10.9376 22.348 11.059C23.3759 11.1804 23.4568 11.3908 23.4568 11.3908C23.4568 11.3908 24.6142 11.1319 25.3669 10.9133Z" fill="#C16A2F"/>
<path d="M31.9387 14.8225C31.7769 15.6238 31.4369 15.729 31.4531 16.6841C31.4774 17.6472 31.9387 17.8981 31.9145 18.6589C31.8821 19.4197 31.2265 21.0546 31.2265 21.0546C31.2265 21.0546 31.0808 21.2245 30.8461 21.4431H30.838C30.3281 21.9125 29.4055 22.5924 28.6527 22.1877C27.6249 21.6292 27.7058 20.2129 26.8722 20.1562C26.8236 20.1481 26.7669 20.1481 26.7103 20.1562C26.516 20.1724 26.2975 20.2614 26.0628 20.3828C25.0511 20.9332 23.7966 22.2201 23.7966 22.2201C23.7966 22.2201 22.3964 23.078 21.7489 23.2803C21.0933 23.4827 20.1059 23.2965 19.7822 22.819C19.4665 22.3415 19.0942 21.953 18.1635 22.4952C17.7345 22.738 16.9413 24.2273 16.7957 24.5996C16.7957 24.5996 14.1329 23.9278 12.9431 23.7497C11.7534 23.5717 8.42689 23.4827 8.42689 23.4827C8.42689 23.4827 6.07166 22.7057 6.42778 20.7389C6.43587 20.7066 6.43588 20.6823 6.44397 20.6499C6.81627 18.7803 8.03841 19.2335 8.03841 19.2335C8.03841 19.2335 6.9134 18.0276 7.98985 16.6112C9.06629 15.1948 10.5879 15.3891 10.5879 15.3891C10.5879 15.3891 10.507 14.4664 11.203 13.7865C11.899 13.1148 13.3154 13.7865 13.3154 13.7865C13.3154 13.7865 12.6922 11.9574 14.3514 11.3908C16.0025 10.8243 17.6293 12.524 17.6293 12.524C17.6293 12.524 18.8838 10.7676 21.0124 10.9295C23.0439 11.0833 22.5583 12.6373 22.5097 12.7829C22.6878 12.613 24.9378 10.5491 27.4792 10.9214C30.1258 11.3018 29.4378 12.354 30.66 12.791C31.8902 13.22 32.1168 14.0213 31.9468 14.8225H31.9387Z" fill="#EA914E"/>
<path d="M22.3559 25.158C17.5969 24.7533 15.8972 28.1121 15.8325 29.4719C15.7677 30.8316 17.4593 32.0213 21.4899 32.0375C25.5205 32.0537 26.2975 31.3415 26.6779 30.3945C27.0583 29.4476 27.552 25.595 22.364 25.1499L22.3559 25.158Z" fill="#0D92F4"/>
<path d="M11.9396 34.8703C8.9207 34.8865 6.41979 34.8784 6.41979 34.8784L8.07087 32.1185C8.07087 32.1185 8.52412 28.3388 7.909 27.3433C7.49623 26.6877 5.74802 25.1823 4.6311 24.2596C4.882 24.2839 8.95308 24.7129 9.97287 25.6113C11.025 26.5339 9.74625 33.5349 9.97287 33.721C10.07 33.8101 10.9927 34.3442 11.9396 34.8703Z" fill="#E8B525"/>
<path d="M32.3678 30.8073C30.3444 31.3495 27.1718 32.3612 26.9047 32.4422C27.1313 32.3127 30.0288 30.6454 32.2302 28.8C32.2302 29.4475 32.2869 30.1517 32.3678 30.8073Z" fill="#E8B525"/>
<path d="M21.7248 21.7506C21.7248 21.7506 24.1933 20.9332 26.0549 20.3828C25.0432 20.9332 23.7887 22.2201 23.7887 22.2201C23.7887 22.2201 22.3885 23.078 21.741 23.2803C21.0854 23.4827 20.098 23.2965 19.7742 22.819C19.4586 22.3415 19.0863 21.953 18.1555 22.4952C17.7266 22.738 16.9334 24.2273 16.7877 24.5996C16.7877 24.5996 14.1249 23.9278 12.9352 23.7497C11.7454 23.5717 8.41896 23.4827 8.41896 23.4827C8.41896 23.4827 6.06373 22.7057 6.41984 20.7389C6.42794 20.7066 6.42793 20.6823 6.43602 20.6499L16.0836 23.0132C16.0836 23.0132 18.4712 21.176 19.7661 21.0546C21.0611 20.9332 21.7248 21.7506 21.7248 21.7506Z" fill="#C16A2F"/>
<path d="M30.8381 21.4432C30.3282 21.9126 29.4055 22.5924 28.6528 22.1878C27.6249 21.6293 27.7058 20.2129 26.8722 20.1563C27.374 20.0187 27.7706 19.9297 27.9648 19.9216C28.6366 19.8811 30.1339 20.9171 30.8381 21.4432Z" fill="#F9C932"/>
<path d="M17.9128 25.0125C13.6232 23.6123 8.95322 23.4342 4.50175 24.025L4.65553 23.4828C6.0881 24.6887 7.40735 26.0646 8.3462 27.6995C8.65376 28.2418 8.91276 28.8407 8.97751 29.4639H8.92085C8.03865 27.1977 6.00716 25.5871 4.26704 23.9522L3.74097 23.4909L4.41272 23.418C8.88847 23.0457 13.8418 23.2481 17.9047 25.0125H17.9128Z" fill="#231F20"/>
<path d="M10.1347 27.5215C9.37389 30.1843 7.96561 32.5962 6.53304 34.9514L6.43591 34.741C10.1671 35.0404 13.9306 34.9999 17.6536 34.6519C18.9 34.5305 20.1707 34.4496 21.4414 34.482C23.3272 34.4496 25.1564 35.0809 27.0098 35.0566C30.053 34.7005 32.9748 32.9361 35.7751 32.0296C33.5737 33.2355 31.3318 34.3687 28.9442 35.2104C27.7625 35.6798 26.3623 35.785 25.1159 35.526C21.3928 34.6924 17.7265 35.2185 13.9387 35.3156C11.3487 35.3561 8.76687 35.2832 6.19312 34.9838C7.77136 32.6771 9.17964 30.0224 10.1428 27.5215H10.1347Z" fill="#231F20"/>
<path d="M16.7715 24.5915C17.1195 23.6607 17.5889 22.6247 18.5845 22.2282C18.8354 22.1472 19.0862 22.0663 19.3857 22.1229C19.6933 22.1958 19.8632 22.471 19.9927 22.6814C20.705 24.3568 22.5827 22.3981 23.651 22.0582C24.6142 21.6697 25.8929 21.7425 26.6699 22.2282C25.116 21.8397 23.7805 22.2929 22.5179 23.1346C21.5305 23.6122 20.276 24.1787 19.7661 22.8109C19.6528 22.6005 19.5233 22.3981 19.3291 22.3496C18.0503 22.2039 17.2571 23.5312 16.82 24.5996L16.7796 24.5834L16.7715 24.5915Z" fill="#231F20"/>
<path d="M23.7804 22.2039C24.5736 21.4593 25.3667 20.6985 26.3541 20.1644C26.605 20.0106 27.0097 19.9863 27.2283 20.221C28.2642 21.3946 28.2481 22.7705 30.1177 21.6293C31.5502 20.8604 32.9342 20.0025 34.3668 19.2174C33.0314 20.4638 31.2831 21.6131 29.5187 22.3092C28.507 22.7462 27.8677 21.775 27.5034 21.0385C27.2525 20.5771 26.9531 20.0106 26.4351 20.3424C25.4639 20.7552 24.6059 21.6455 23.7804 22.1959V22.2039Z" fill="#231F20"/>
<path d="M32.6349 31.4468C32.3921 30.4756 32.2383 29.4882 32.1574 28.4927C32.0683 27.4567 32.6106 26.5259 33.08 25.668C34.0836 23.936 35.2248 22.3011 36.1799 20.561C37.3777 18.4162 39.6925 14.2723 36.1637 13.1634C35.3543 12.8478 34.2455 12.5402 33.4685 12.9449L32.7887 13.3496C33.3147 12.3784 34.2617 11.0753 33.7032 9.97457C32.4568 8.93859 30.6034 8.59866 29.0575 8.08877C28.5314 7.73265 28.0134 7.27132 27.7787 6.65621C27.6897 6.45387 27.7625 6.1544 27.6978 6.08965C27.0665 5.74163 26.1034 6.12203 25.4154 6.25153C25.8686 5.98444 26.6213 5.87113 27.2041 5.79829C27.4064 5.79829 27.6492 5.75782 27.8516 5.96825C27.9568 6.07347 27.9163 6.25962 27.9244 6.32437C27.9972 7.00423 28.6528 7.46556 29.1708 7.84596C30.5386 8.25064 32.8534 8.59866 34.0431 9.73986C34.6502 10.7677 34.0108 11.9737 33.5252 12.8883L33.2338 12.6212C34.2698 12.0627 35.33 12.4512 36.3094 12.8154C40.0729 14.0537 37.7419 18.3676 36.3984 20.6662C35.411 22.4063 34.2455 24.0331 33.2176 25.7328C32.7401 26.5826 32.1897 27.4891 32.2626 28.4846C32.2788 29.4639 32.5458 30.5484 32.643 31.4468H32.6349Z" fill="#231F20"/>
<path d="M4.46122 23.7336C3.12578 23.2723 1.14285 23.1266 0.390147 21.7831C0.171621 20.9332 0.972882 20.2372 1.67702 19.9458C2.21929 19.7111 2.83441 19.8568 3.36049 19.7516C3.49808 19.7111 3.55473 19.614 3.58711 19.4521C3.62758 18.7642 3.50617 17.971 3.16624 17.364C3.00437 17.0564 2.74537 16.8136 2.47828 16.7974C2.41353 16.7974 2.34069 16.7812 2.27594 16.7489C1.99266 16.5222 2.27595 16.2147 2.41354 16.0447C3.61139 14.8388 5.03586 13.6409 6.41986 12.7992C5.16536 13.9809 3.5871 15.3487 2.55922 16.4818C2.44591 16.2956 2.40544 16.3927 2.49447 16.3766C3.00437 16.4251 3.32811 16.8217 3.50617 17.1697C3.87038 17.9143 3.9594 18.6913 3.89466 19.5088C3.86228 19.7192 3.68422 19.9863 3.44142 20.043C2.85868 20.1644 2.29213 19.9782 1.74986 20.1886C1.16712 20.3991 0.398234 21.0304 0.560105 21.7183C1.1995 23.0052 3.32812 23.1752 4.43694 23.7336H4.46122Z" fill="#231F20"/>
<path d="M21.6843 32.0537C19.9604 32.2642 18.0746 32.4342 16.5287 31.4386C14.8129 30.2084 15.6222 27.6994 17.0224 26.5663C19.4748 24.2677 25.1646 23.685 26.2734 27.5861L26.1924 27.6104C25.812 26.8415 25.1565 26.2668 24.428 25.9512C22.1861 25.1176 19.3453 25.6517 17.4514 27.06C16.2292 27.9746 15.3956 30.0061 16.7877 31.123C18.1312 32.1185 20.0575 32.0861 21.6843 31.9809L21.6924 32.0618L21.6843 32.0537Z" fill="#231F20"/>
<path d="M27.5116 27.5133C27.9001 29.739 26.589 33.2597 23.7886 32.1509V32.07C24.8407 31.6896 25.6987 31.3901 26.419 30.5646C27.0503 29.7471 27.3012 28.6221 27.4307 27.5133H27.5116Z" fill="#231F20"/>
<path d="M9.64109 23.5231C8.44324 23.4907 7.07543 23.1184 6.46841 21.9853C5.78046 20.6904 6.65457 19.4035 7.9981 19.0959L7.94144 19.3387C6.16894 17.7362 8.57275 14.6202 10.6447 15.1786L10.3614 15.4052C10.3371 15.0087 10.4181 14.6525 10.5638 14.3126C11.0494 13.0419 12.3524 12.9934 13.4289 13.5599L13.0566 13.827C12.7328 11.6255 14.999 10.7272 16.7392 11.6094C17.2652 11.8441 17.7266 12.1597 18.1555 12.5644L17.6537 12.613C18.9406 10.6948 22.0809 10.6705 22.7284 13.139L22.0566 12.9529C22.7122 12.3378 23.4002 11.9898 24.1286 11.6579C25.2131 11.229 26.5971 10.6219 27.7869 11.2451C28.5153 11.6336 28.8472 12.2568 29.6161 12.4268C30.393 12.6211 31.5909 12.8639 31.6799 13.8594C31.7447 14.2722 31.6799 14.8144 31.4047 15.1786C31.1457 15.5428 30.992 15.7128 31.0405 16.0123C31.1538 16.7245 31.599 17.3639 31.9146 18.0357C32.4569 19.1769 31.7123 20.4476 31.0891 21.3621L31.0243 21.3217C31.3804 20.658 31.7042 19.9457 31.7689 19.2173C31.947 17.89 30.0531 16.8054 30.5792 15.3729C30.8463 14.8549 31.1619 14.5635 31.0324 13.9646C30.9839 13.6732 30.8463 13.5599 30.5063 13.4304C29.8022 13.1795 28.8633 13.139 28.2725 12.6049C27.6736 12.1354 27.2851 11.7227 26.5162 11.8117C25.205 12.0302 23.6349 12.6453 22.6313 13.4952L22.1214 13.9241L21.9595 13.3171C21.4011 11.2451 18.8597 11.7146 17.9613 13.2766L17.6942 13.0176C16.4478 11.6094 13.3641 11.1642 13.5665 13.7542L13.615 14.2317C13.0161 13.9079 12.1015 13.479 11.5188 13.8351C10.9765 14.2074 10.7175 15.041 10.8147 15.6804C8.94504 14.8549 6.41985 17.9304 8.32184 19.2983C5.9747 19.6868 5.81283 22.1148 7.90907 23.0537C8.45134 23.2884 9.05026 23.4179 9.64109 23.4422V23.5231Z" fill="#231F20"/>
<path d="M12.8462 18.9098C12.9514 17.7929 13.8741 17.9305 14.5458 18.4646L14.1331 18.6832C14.1573 18.2542 14.4082 18.1814 14.5701 18.0762C15.08 17.8576 15.5494 17.801 16.1079 17.8172C16.8606 17.8414 17.589 18.7803 17.1924 19.4844H17.1115C16.982 19.185 16.7958 18.9745 16.6178 18.8531C16.0998 18.6103 15.3795 18.5051 14.7967 18.6184C14.6834 18.6265 14.6268 18.7479 14.6349 18.6427L14.2221 18.8612C13.7041 18.3271 13.2185 18.1004 12.9271 18.9422L12.8462 18.926V18.9098Z" fill="#231F20"/>
<path d="M22.3237 15.8424C22.7689 15.3163 23.8291 15.1625 24.3957 15.6076C24.5656 15.7371 24.8085 16.328 24.5252 16.4413C23.9829 16.2632 23.9182 16.3037 23.5054 15.9961C23.1574 15.8424 22.7446 15.7614 22.3723 15.899L22.3237 15.8343V15.8424Z" fill="#231F20"/>
<path d="M9.44685 15.4862C7.53676 15.81 6.79216 14.1589 6.35511 12.6049C6.26608 12.2164 6.12848 11.8441 6.27417 11.3747C6.50079 11.0186 6.71932 10.7272 6.93785 10.4035L8.25709 8.50147L8.26519 8.75237C7.29396 7.66783 7.6258 6.05721 8.96124 5.434C9.86772 4.9403 10.8713 5.30451 11.7373 5.61206C13.5989 6.29192 11.7697 2.0347 17.5242 3.07878C17.8399 3.13543 17.9775 2.95737 18.2769 2.93309C19.1349 2.74694 20.2356 3.12733 20.5108 4.01763C20.5512 4.05 20.5108 4.05 20.5674 4.0581C21.0207 4.06619 21.7167 3.72626 22.2995 3.81529C22.6799 3.83147 23.0926 4.07429 23.3192 4.32519C23.9101 4.86746 23.9748 5.67681 24.2986 6.13815C24.3309 6.14624 24.3795 6.15434 24.5737 6.11387C24.8732 6.04912 25.3346 6.02483 25.6826 6.30002C25.9982 6.5671 26.1115 6.89085 26.2329 7.18222C26.84 8.65525 26.4838 10.2821 25.6826 11.5932L25.6097 11.5527C26.0468 10.4763 26.322 9.25417 26.0225 8.18582C25.7392 7.4574 25.6016 6.48617 24.7113 6.75326C24.6142 6.77754 24.3633 6.85847 24.1043 6.78563C23.8291 6.70469 23.6592 6.46998 23.5863 6.3243C23.295 5.693 23.1574 5.22357 22.777 4.89174C22.0486 4.0581 20.5108 5.60397 19.7985 4.46278C19.661 4.20378 19.6771 4.17141 19.6124 4.08238C19.402 3.68579 18.5602 3.61295 18.0746 3.81529C17.7347 3.9286 17.5971 3.85576 17.419 3.84766C16.1807 3.61295 14.4487 3.32968 13.6798 4.55181C12.3605 8.03205 11.3408 5.03742 9.18786 5.87915C8.0062 6.42142 7.83623 7.67593 8.67796 8.62288C8.18425 9.31083 7.01069 10.8324 6.53317 11.5042C6.37939 12.5159 6.93785 13.7704 7.43156 14.6526C7.8767 15.2596 8.69415 15.5024 9.43876 15.4134L9.45495 15.4943L9.44685 15.4862Z" fill="#231F20"/>
<path d="M10.1348 10.8567C10.151 10.4116 10.499 9.61032 11.1141 9.69935C11.3326 9.756 11.6078 10.0069 11.4783 10.2659C11.2517 10.3954 11.1384 10.4601 11.0817 10.5087C11.0332 10.5654 10.9765 10.4682 10.8713 10.4925C10.677 10.5249 10.4342 10.7029 10.2076 10.8972L10.1348 10.8567Z" fill="#231F20"/>
<path d="M16.7633 8.08876C17.2246 7.51412 18.1716 7.70027 18.5439 8.31538L18.2121 8.20207C19.0538 7.75693 20.543 7.27941 21.0367 8.4287L20.9801 8.48535C20.7211 8.4206 20.5268 8.44488 20.3245 8.46107C19.6203 8.58247 18.8434 8.53392 18.1554 8.77672C17.9935 8.20208 17.4027 7.75693 16.8119 8.15351L16.7633 8.08876Z" fill="#231F20"/>
</svg>
