<svg width="39" height="39" viewBox="0 0 39 39" fill="none" xmlns="http://www.w3.org/2000/svg">
<path d="M0.46875 15.3756V18.2408H37.8553L0.46875 15.3756Z" fill="#0D92F4"/>
<path d="M0.46875 18.2406L8.11687 34.9267L33.1966 34.4997L37.8553 18.2406L34.4544 18.4425L30.7197 31.8675L8.11687 31.6967L3.69883 18.3571L0.46875 18.2406Z" fill="#0D92F4"/>
<path d="M10.2755 15.9269L10.1279 17.2236C10.1279 17.2236 15.2759 17.2236 15.7495 17.2236C16.2231 17.2236 15.7495 16.1986 15.7495 16.1986L10.2755 15.9269Z" fill="#F9C932"/>
<path d="M10.8343 18.2406L10.2054 19.4829L7.03745 20.1274L6.57935 26.1605L8.16333 31.1143L15.7493 31.2075C15.7493 31.2075 16.9606 21.5095 16.619 20.9427C16.2773 20.3759 13.9324 19.8945 13.9324 19.8945L13.684 18.4658L10.8343 18.2484V18.2406Z" fill="#F9C932"/>
<path d="M13.0473 22.4103C15.1282 22.6743 15.1127 26.8283 12.0767 26.5799C9.04076 26.3314 9.47557 21.9522 13.0473 22.4103Z" fill="white"/>
<path d="M25.1679 17.6662C25.1679 17.6662 28.3747 15.8104 30.2925 15.9269C32.2104 16.0434 32.7694 16.5714 32.7694 16.5714C32.7694 16.5714 31.1544 18.2718 28.1184 18.396C25.0824 18.5203 25.1601 17.6662 25.1601 17.6662H25.1679Z" fill="#99BF30"/>
<path d="M25.5562 22.0919C23.6383 21.9366 22.0931 22.6587 21.503 25.1201C20.9129 27.5815 23.3277 31.1998 23.3277 31.1998L30.2072 31.0522L32.9791 22.0686C32.9791 22.0686 30.5954 20.8495 28.9726 20.935C27.3498 21.0204 25.5562 22.0919 25.5562 22.0919Z" fill="#99BF30"/>
<path d="M0.468883 15.3135L37.8555 14.9253H38.2981C38.2981 15.0961 38.3291 18.101 38.3291 18.3728V18.8387H37.8477C25.7349 19.0405 12.5351 19.0172 0.46111 18.497H0.329102V18.3728L0.399004 16.8742H0.515468L0.585347 18.3728L0.453338 18.2408C3.56695 18.101 6.68833 18.0234 9.80193 17.938C15.3148 17.837 23.0561 17.7128 28.4991 17.7904L37.8477 17.8914L37.3741 18.365L37.4051 15.3679L37.8477 15.8105C37.8166 15.7095 0.243701 15.6241 0.46111 15.3058L0.468883 15.3135Z" fill="#231F20"/>
<path d="M3.83854 18.3573L8.27213 31.1689C7.65096 30.9592 30.2926 31.0447 30.1528 30.9825L29.9354 31.1378L34.2448 18.2874L34.3069 18.0933H34.5088L37.8475 18.0778H38.2823L38.1271 18.4815L32.2182 34.0806L32.125 34.3291H31.861C27.6448 34.3291 16.8753 34.3446 12.7989 34.298L6.44744 34.2514H6.2378L6.16793 34.0573L3.27172 26.2306L0.422119 18.3883L0.491998 18.3573L3.63666 26.0831L6.72698 33.8322L6.44744 33.638L12.7989 33.5914C16.8287 33.5526 27.6914 33.5526 31.861 33.5604L31.5039 33.8089L37.5758 18.2641L37.8553 18.6679L34.5165 18.6523L34.7883 18.4582L30.3702 31.2776L30.3159 31.4329H30.1528C30.0286 31.4174 8.18672 31.3319 8.07801 31.3164L8.05472 31.2388C8.14013 31.2077 3.56678 18.2796 3.83854 18.3573Z" fill="#231F20"/>
<path d="M18.4283 2.50192C17.8615 2.17581 17.1239 1.72546 16.5571 2.27675C16.2465 2.58733 15.8815 3.67438 15.6331 4.12473L14.7168 6.02706C14.3674 6.58611 14.3829 7.16845 14.942 7.45574C15.1051 7.52563 15.5011 7.7275 15.6564 7.79739C16.0601 7.99927 16.5338 7.81292 16.7046 7.39363C16.8443 7.09081 17.2714 6.29105 17.4422 5.98823C17.7838 5.37483 18.1798 4.78472 18.5758 4.19461C19.0572 3.65885 19.1038 2.88239 18.4361 2.50192H18.4283ZM18.4671 2.43204C19.989 3.25509 18.5137 5.20401 18.1333 6.3454L17.6596 7.29269C17.4733 7.6188 17.3102 8.04585 16.9841 8.28656C16.4328 8.72914 15.6641 8.65149 15.1206 8.27103L14.6625 8.0148C13.8239 7.57221 13.7463 6.49293 14.2743 5.80188L15.2992 3.9539C15.4778 3.65885 15.9204 2.86686 16.0989 2.58733C16.3552 2.08263 16.9919 1.80311 17.5276 1.98169C17.8693 2.11369 18.1565 2.30004 18.4827 2.44757L18.4671 2.43204Z" fill="#231F20"/>
<path d="M12.0771 15.4068L10.5552 15.4689H10.4077C11.6811 12.7979 12.9856 10.1346 14.29 7.47135L14.422 7.19958C14.6084 7.285 15.7032 7.81299 15.9128 7.91393L16.2234 8.06146C15.0665 10.5927 13.599 13.1473 12.0694 15.4068H12.0771ZM12.0305 15.3447C13.0477 12.759 14.0804 10.4219 15.4314 8.06922L15.5867 8.55063L14.422 7.8984L14.8491 7.7664C13.4514 10.321 12.0616 12.8833 10.6329 15.4223L10.5475 15.2903L12.0305 15.3524V15.3447Z" fill="#231F20"/>
<path d="M19.8571 2.43207C20.1832 2.28454 20.4705 2.09819 20.8121 1.96619C21.3479 1.7876 21.9846 2.06713 22.2408 2.57183C22.4194 2.85136 22.862 3.64335 23.0406 3.9384L24.0655 5.78638C24.5935 6.48519 24.5158 7.56447 23.6773 7.99929L23.2192 8.25552C22.6756 8.64375 21.9069 8.7214 21.3557 8.27105C21.0295 8.03035 20.8665 7.6033 20.6801 7.27718L20.2065 6.3299C19.826 5.1885 18.343 3.23959 19.8726 2.41654L19.8571 2.43207ZM19.8959 2.50195C19.2282 2.88241 19.2747 3.65888 19.7562 4.19463C20.1521 4.78474 20.5481 5.36709 20.8898 5.98826C21.0606 6.29108 21.4799 7.09083 21.6274 7.39365C21.7982 7.81294 22.2719 7.99929 22.6756 7.79741C22.8309 7.72753 23.2347 7.52565 23.39 7.45577C23.949 7.16071 23.9646 6.57837 23.6152 6.02708L22.6989 4.12475C22.4505 3.6744 22.0855 2.58736 21.775 2.27678C21.2004 1.73325 20.4705 2.17584 19.9037 2.50195H19.8959Z" fill="#231F20"/>
<path d="M26.2939 15.3447L27.777 15.2825L27.6993 15.4145C26.2784 12.8755 24.8808 10.3132 23.4831 7.75864L23.9102 7.89064L22.7455 8.54286L22.9008 8.06146C24.2518 10.4141 25.2845 12.759 26.3017 15.3369L26.2939 15.3447ZM26.2473 15.4068C24.7177 13.1395 23.258 10.5927 22.0933 8.06146L22.4039 7.91393C22.6213 7.81299 23.7083 7.29276 23.8947 7.19958L24.0267 7.47135C25.3311 10.1346 26.6356 12.7979 27.909 15.4689H27.7614L26.2396 15.4068H26.2473Z" fill="#231F20"/>
<path d="M32.9325 22.5346C31.0147 20.6788 27.9166 21.1369 25.7813 22.356C24.143 21.9522 21.9689 21.9755 20.9595 23.5362C19.523 25.6094 20.843 30.4855 23.3355 31.1999C20.7498 30.5554 19.2668 25.555 20.6955 23.3731C21.7204 21.6572 24.0343 21.4863 25.8046 21.8513L25.595 21.8901C27.9865 20.4692 31.2476 19.98 33.4683 21.9755L32.9325 22.5346Z" fill="#231F20"/>
<path d="M23.7935 23.9478C21.7126 24.8407 22.3415 27.2865 22.6055 29.0724L22.5434 29.1112C21.1302 28.0708 21.3787 25.8734 22.3959 24.6388C22.7608 24.2273 23.2655 23.9633 23.778 23.8701L23.8013 23.9478H23.7935Z" fill="#231F20"/>
<path d="M25.696 22.092C25.5485 19.5374 24.345 17.7982 21.9302 16.913V16.8354C23.2269 16.4549 24.6478 17.2546 25.1758 18.4659C25.7659 19.6229 25.8901 20.8885 25.7659 22.0998H25.6882L25.696 22.092Z" fill="#231F20"/>
<path d="M25.0903 17.7049C27.1324 15.9424 29.9976 15.6318 32.5366 16.2918C30.8983 18.6677 27.4818 19.3122 25.0903 17.7049ZM25.168 17.6972C27.3887 18.1398 30.0519 17.9767 31.7368 16.2995L31.8999 16.7887C29.6714 16.1054 27.1247 16.4393 25.168 17.6972Z" fill="#231F20"/>
<path d="M14.7945 17.6273C15.0352 18.3339 15.0197 19.1337 15.2138 19.7936C15.206 19.7005 15.074 19.6073 14.9964 19.5918C16.0368 19.8713 17.5975 20.1508 17.978 21.331C18.0401 22.0997 17.9159 22.8607 17.8693 23.5983C17.5432 26.083 17.3956 28.8938 16.7434 31.1921C16.79 28.0086 17.0695 24.8251 17.1937 21.6572C17.2714 21.3233 16.7123 20.9816 16.1766 20.7487C15.7573 20.5701 15.2604 20.4148 14.81 20.2983C14.6081 20.2673 14.4839 19.9955 14.5072 19.8169C14.5382 19.0715 14.6703 18.3572 14.7091 17.6351L14.7867 17.6273H14.7945Z" fill="#231F20"/>
<path d="M6.53296 26.5023C6.61061 24.3826 6.53295 22.2396 6.85906 20.1354C6.87459 20.0655 6.96001 19.9568 7.01436 19.9335C8.00823 19.4831 9.12632 19.4365 10.1823 19.2657L9.9882 19.4365C10.0115 19.1415 10.0503 18.73 10.0891 18.4349C10.1746 18.0777 10.4385 17.7982 10.7957 17.6584L10.8656 17.6973C11.0364 18.233 10.8889 18.6601 10.6094 19.1027C10.5473 19.2191 10.3997 19.5841 10.3454 19.6928L10.2289 19.7005C9.22726 19.8403 8.07036 19.8325 7.16966 20.2363C6.75037 21.8824 6.85906 25.2522 6.54071 26.5023H6.53296Z" fill="#231F20"/>
<path d="M10.2135 17.6508C11.5723 17.5576 14.453 17.4877 15.7419 17.3169C15.7108 17.3169 15.6254 17.3868 15.6099 17.4644C15.6021 17.4877 15.5944 17.5576 15.6021 17.5343V17.4101C15.6021 17.1228 15.6487 16.6957 15.5555 16.4317C15.5555 16.4162 15.5478 16.4317 15.5866 16.4628C14.2278 16.4938 11.9994 16.3153 10.4076 16.2376C10.4853 16.1134 10.3843 16.2376 10.3688 16.3774C10.2834 16.7811 10.2756 17.2781 10.2135 17.6585V17.6508ZM10.1591 17.7051C9.99608 17.1228 9.87185 16.6336 9.9495 16.0435C9.95727 15.9503 10.0582 15.7484 10.2446 15.7096C10.8114 15.5543 11.549 15.5854 12.1236 15.5543C13.3349 15.5543 14.484 15.6863 15.7341 15.8727C15.804 15.896 15.8273 15.8727 15.9671 15.9736C16.3242 16.3696 16.1379 16.9675 16.1301 17.4334C16.1301 17.5964 16.0602 17.775 15.8894 17.8061C13.956 17.9536 12.1081 17.775 10.1514 17.7051H10.1591Z" fill="#231F20"/>
<path d="M12.2553 22.2395C17.2635 22.6433 15.4698 28.5211 10.9819 27.3098C8.66027 26.7274 8.86991 24.2971 10.5937 23.1713C10.8887 23.0082 11.2148 22.8607 11.5565 22.8995V22.9771C10.5548 23.3188 9.76285 24.7164 10.0657 25.6715C10.3685 26.5178 11.8205 26.8672 12.8997 26.7507C14.8098 26.5333 15.6096 24.1108 13.9713 22.9461C13.4899 22.5656 12.8609 22.4336 12.2553 22.3171V22.2395Z" fill="#231F20"/>
</svg>
