<svg width="39" height="39" viewBox="0 0 39 39" fill="none" xmlns="http://www.w3.org/2000/svg">
<path d="M30.293 7.96973H31.9878L32.0887 10.6895L30.4988 10.4918L30.293 7.96973Z" fill="#E8B525"/>
<path d="M9.4955 9.6565L30.4989 7.59045V10.4918C30.4989 10.4918 7.80069 12.3077 7.61507 12.2269C7.42945 12.1462 9.4955 9.6565 9.4955 9.6565Z" fill="#F9C932"/>
<path d="M6.61035 27.444L7.72004 29.1024V27.3108L6.61035 27.444Z" fill="#0B669E"/>
<path d="M30.2931 25.0389L27.6863 28.4891L26.8228 25.8944L30.2931 25.0389Z" fill="#0B669E"/>
<path d="M32.129 18.3525L30.9224 25.2972C30.9224 25.2972 22.747 26.9557 18.276 27.2341C13.8089 27.5125 6.61008 27.4439 6.61008 27.4439L6.27515 21.9802C13.2238 22.9729 29.1671 19.0991 32.129 18.3525Z" fill="#0D92F4"/>
<path d="M6.11781 23.8727L1.13831 25.5998L4.42704 26.6974L2.4659 29.2315L7.7198 29.1024L6.61011 27.4439L6.01693 27.4035L6.11781 23.8727Z" fill="#0D92F4"/>
<path d="M32.3591 21.3588C33.953 22.1981 36.7656 21.8995 36.7656 21.8995L34.6753 24.2722L37.0359 25.4102C37.0359 25.4102 33.6584 27.0848 31.3785 27.6376C29.0986 28.1904 27.6863 28.489 27.6863 28.489L29.7886 25.5231L31.3301 25.2245L32.3591 21.3588Z" fill="#0D92F4"/>
<path d="M7.71971 11.9122C7.71971 11.9122 6.06929 15.1283 6.27509 15.3502C6.48088 15.5722 7.73585 15.9595 8.1313 15.6892C8.52676 15.4188 8.88589 14.9669 8.88589 14.9669L9.99962 11.658C9.99962 11.658 8.49044 12.0938 8.29675 12.0817C8.10306 12.0696 7.71567 11.9162 7.71567 11.9162L7.71971 11.9122Z" fill="#F9C932"/>
<path d="M8.89014 14.9629C8.89014 14.9629 9.45507 15.6811 10.7302 15.6852C12.0053 15.6892 12.6187 15.0678 12.7398 14.8337C12.8608 14.5997 13.8696 10.9236 13.8696 10.9236C13.8696 10.9236 11.618 11.2787 11.4162 11.3231C11.2144 11.3675 10.0039 11.654 10.0039 11.654L9.24524 13.9984L8.89014 14.9629Z" fill="#FFDF9F"/>
<path d="M13.8696 10.9196C13.8696 10.9196 12.8729 14.4181 13.0423 14.6239C13.2118 14.8297 14.2449 15.548 14.9228 15.3906C15.6007 15.2333 16.549 14.7894 16.7628 14.1276C16.9767 13.4658 17.5457 10.6855 17.5457 10.6855L13.8736 10.9196H13.8696Z" fill="#F9C932"/>
<path d="M17.5418 10.6895C17.5418 10.6895 16.4886 13.9338 16.759 14.1316C17.0293 14.3293 17.9817 15.1888 18.6152 15.1202C19.2487 15.0516 20.0477 15.4228 20.2656 13.9944C20.4835 12.5659 20.7176 10.6613 20.7176 10.6613L17.5418 10.6895Z" fill="#FFDF9F"/>
<path d="M20.7173 10.6574L20.2654 13.9905C20.2654 13.9905 20.7496 14.8298 21.9683 14.9388C23.1869 15.0477 23.8002 14.281 23.8002 14.281C24.1715 13.1189 24.3652 11.763 24.3934 10.5121L20.7173 10.6574Z" fill="#F9C932"/>
<path d="M24.3935 10.5121C24.3935 10.5121 24.2886 12.8525 24.1676 13.2682C24.0465 13.6838 23.9739 14.398 23.9739 14.398C23.9739 14.398 24.789 15.0154 25.5718 14.963C26.3547 14.9105 27.2182 14.6603 27.3312 14.2608C27.4442 13.8613 27.5975 12.6346 27.5975 12.6346L27.6823 10.5121H24.3895H24.3935Z" fill="#FFDF9F"/>
<path d="M27.5692 10.5685V14.0388C27.5692 14.0388 28.3036 14.745 28.8605 14.7772C29.4174 14.8095 29.6554 14.5271 29.6554 14.5271C29.6554 14.5271 30.2244 12.3117 30.289 11.9647C30.3535 11.6176 30.4948 10.4958 30.4948 10.4958L27.5652 10.5725L27.5692 10.5685Z" fill="#F9C932"/>
<path d="M10.2176 17.271L17.134 16.9078V19.5509C17.134 19.5509 14.386 19.785 13.0221 19.8818C11.6582 19.9787 10.032 20.0957 10.032 20.0957L10.2176 17.271Z" fill="#EA914E"/>
<path d="M10.5484 17.5898L10.3547 19.8254L12.6266 19.551L10.8269 19.3775L10.5484 17.5898Z" fill="white"/>
<path d="M14.2368 17.5898L14.3216 19.3331L16.0809 19.2282L14.6 18.9497L14.2368 17.5898Z" fill="white"/>
<path d="M20.2654 20.5961L20.4752 16.0887C20.4752 16.0887 23.6066 15.7215 23.6913 15.778C23.776 15.8345 23.9738 19.8657 23.9738 19.8657L20.2654 20.592V20.5961Z" fill="#EA914E"/>
<path d="M6.89258 21.4879C6.91679 20.4387 6.94908 19.3936 6.9975 18.3485C7.03785 17.3356 7.02978 16.1291 7.42119 15.2333C7.55839 16.2905 7.46963 17.3316 7.31629 18.3727C7.19926 19.4138 7.07013 20.4509 6.93293 21.4919H6.89258V21.4879Z" fill="#231F20"/>
<path d="M7.71984 11.9122C7.33246 12.913 6.87647 13.9097 6.50523 14.9185C6.46084 15.096 6.35189 15.1848 6.49312 15.326C6.98946 15.782 8.14757 15.5762 8.57127 15.1041C8.98286 14.5593 9.28147 13.4295 9.55587 12.7758C9.71728 12.3722 9.86255 11.9647 10.032 11.5612C9.86255 12.4166 9.64464 13.256 9.40253 14.0913C9.24112 14.6965 8.97076 15.548 8.27267 15.774C7.60281 16.0201 6.8119 16.1452 6.21469 15.5843C6.12995 15.4794 6.02503 15.3422 6.06135 15.1404C6.4568 13.9863 7.10245 12.9574 7.71984 11.9122Z" fill="#231F20"/>
<path d="M8.95874 14.8337C9.28963 15.5076 10.0765 15.5722 10.7464 15.5278C11.392 15.5157 12.0982 15.4471 12.4815 14.8539C12.8689 14.297 12.8971 13.5546 13.1352 12.9251C13.3451 12.2471 13.5468 11.5612 13.8696 10.9236C13.7728 11.2625 13.7163 11.6136 13.6517 11.9647L13.4419 13.0058C13.2684 13.6353 13.2159 14.5593 12.8084 15.096C12.3564 15.7739 11.509 15.9152 10.7504 15.8466C10.0563 15.8466 9.14436 15.6206 8.95874 14.8378V14.8337Z" fill="#231F20"/>
<path d="M12.9172 14.4383C13.9704 15.8547 16.0163 15.314 16.7023 13.833C16.8597 13.0179 17.2148 11.6621 17.5376 10.6896C17.4367 11.8073 17.2793 12.917 17.0534 14.0065C16.7426 14.5876 16.3109 15.1243 15.6935 15.3947C14.6968 15.8022 13.3369 15.4996 12.9172 14.4383Z" fill="#231F20"/>
<path d="M16.8798 13.9177C17.0896 14.5593 17.6949 14.9184 18.3002 14.9386C18.9095 14.9749 19.5874 14.8741 19.882 14.3979C20.1564 13.9903 20.2008 13.0824 20.3178 12.5861C20.4308 11.9404 20.564 11.2988 20.7173 10.6572C20.7173 11.315 20.689 11.9727 20.6285 12.6264C20.5438 13.607 20.5276 14.9911 19.3009 15.2292C18.3204 15.4632 16.9685 15.0677 16.8757 13.9177H16.8798Z" fill="#231F20"/>
<path d="M20.2654 13.9903C20.798 14.8821 22.3799 14.9265 23.2555 14.6037C23.8729 14.2244 23.9253 13.2963 24.1029 12.5941C24.2159 11.9566 24.3087 11.3109 24.3975 10.6613C24.4661 11.315 24.4782 11.9768 24.4176 12.6385C24.3087 13.4012 24.2441 14.5633 23.4129 14.9709C22.4404 15.3462 20.6326 15.1162 20.2734 13.9944L20.2654 13.9903Z" fill="#231F20"/>
<path d="M23.8002 14.2809C24.014 14.523 24.3248 14.6239 24.6274 14.6925C25.3537 14.8378 26.185 14.8822 26.8468 14.5351C26.9759 14.4665 27.0284 14.3858 27.097 14.2648C27.3593 13.7644 27.4279 13.1026 27.5005 12.4852C27.5651 11.8557 27.6094 11.2141 27.6498 10.5685C27.7668 11.2061 27.8273 11.8517 27.8152 12.5014C27.7668 13.26 27.8031 14.3858 27.0405 14.8741C26.1366 15.3462 24.3772 15.1767 23.7961 14.2809H23.8002Z" fill="#231F20"/>
<path d="M30.4988 10.4918C30.5149 11.771 30.4261 13.0703 30.0024 14.293C29.8612 14.8095 29.2479 15.0436 28.7878 14.9266C28.1704 14.8176 27.6822 14.3778 27.4441 13.8653C27.9122 14.4262 29.0542 14.9952 29.5626 14.3172C30.0307 13.0946 30.1437 11.7589 30.4988 10.4918Z" fill="#231F20"/>
<path d="M31.8788 8.00213C30.9104 7.93757 29.954 8.07478 28.9936 8.15144L26.1084 8.38144C24.1836 8.53478 22.2548 8.63163 20.3299 8.74865C17.0049 8.99077 12.0577 9.17639 8.80125 9.62027L8.86581 9.57185C8.48246 10.3345 7.97806 11.1173 7.82069 11.9526C8.18789 12.0656 8.68019 11.8719 9.06354 11.8074C11.2587 11.2263 13.5346 10.8308 15.8024 10.7542C19.4382 10.5564 23.082 10.508 26.7218 10.4838C23.1344 10.5766 19.426 10.5766 15.8064 10.8066C13.9865 10.8873 12.1868 11.1537 10.4275 11.6258L9.10389 11.9647C8.76897 12.0454 8.43403 12.1342 8.087 12.1665C7.96998 12.1665 7.84489 12.2028 7.68752 12.0777C7.54225 11.88 7.73997 11.541 7.79646 11.3312C8.05068 10.6735 8.38158 10.052 8.72054 9.43465L8.76089 9.42657C12.1061 8.96655 16.9202 8.84954 20.3259 8.62356C22.2548 8.51865 24.1836 8.43794 26.1084 8.30477L28.9976 8.10301C29.95 8.05055 30.9749 7.86898 31.8869 7.9981L31.8788 8.00213Z" fill="#231F20"/>
<path d="M30.519 7.98999C30.5593 8.82529 30.6037 9.65655 30.6319 10.4918L30.5149 10.3587L32.1129 10.4878L31.8869 10.6855C31.8586 9.87849 31.9192 9.07951 32.0685 8.28457H32.1088C32.2743 9.15618 32.3267 10.0399 32.2783 10.9236C32.0564 10.8873 30.5997 10.6452 30.3616 10.6048C30.3858 9.73322 30.4342 8.86161 30.4786 7.99403H30.519V7.98999Z" fill="#231F20"/>
<path d="M32.1089 10.6855C32.2138 11.9607 32.3026 13.2399 32.3833 14.515C32.464 15.7659 32.6214 17.1782 32.3389 18.3565C32.0766 17.0895 32.0363 15.8103 32.0645 14.5271C32.0968 13.2721 31.9798 11.8638 32.1089 10.6855Z" fill="#231F20"/>
<path d="M30.3131 12.0776C30.3696 13.1228 30.418 14.1719 30.4544 15.2171C30.4907 16.2339 30.5956 17.4284 30.2728 18.3565C30.0549 17.3154 30.0629 16.2703 30.1315 15.2171C30.1679 14.1719 30.2163 13.1228 30.2728 12.0776H30.3131Z" fill="#231F20"/>
<path d="M5.97662 27.4036C14.4385 27.4803 23.0054 27.0727 31.2776 25.1398C31.7538 22.9769 32.6698 20.1563 33.0773 17.7311C33.0894 17.6948 33.0773 17.606 33.0894 17.6423C33.0894 17.6423 33.0894 17.6504 33.1217 17.6786C33.2105 17.715 33.1701 17.6907 33.1701 17.6988C33.158 17.6988 33.1015 17.715 33.0854 17.719C32.9321 17.7593 32.4599 17.8844 32.2945 17.9288C28.0413 19.0627 23.7963 20.2935 19.4221 20.923C15.0277 21.3386 10.6212 21.6776 6.20664 21.3628L6.34786 21.2458C6.27119 22.7792 6.06943 25.8661 5.97258 27.3995L5.97662 27.4036ZM5.94837 27.4318C5.98469 25.8863 6.05732 22.7832 6.10978 21.2377V21.1086L6.24698 21.1207C10.601 21.3184 15.0317 20.9028 19.3736 20.4993C23.7115 19.8819 27.9728 18.7278 32.234 17.6988C32.4115 17.6585 32.9361 17.5213 33.1217 17.489L33.1621 17.4809C33.1782 17.489 33.1459 17.4567 33.2428 17.5011C33.2993 17.5495 33.2751 17.5414 33.2912 17.5818C33.2831 18.0216 33.1338 18.4211 33.0491 18.8408C32.694 20.2693 31.7457 23.7476 31.3543 25.2205L31.3422 25.2568L31.3018 25.2649C29.2358 25.7774 27.1536 26.2253 25.0553 26.5844C18.7441 27.6538 12.3241 27.8354 5.94031 27.4278L5.94837 27.4318Z" fill="#231F20"/>
<path d="M10.02 20.0957L10.1693 17.271V17.2307H10.2137C12.2919 17.1137 15.169 16.8917 17.2229 16.8231C17.2108 17.6625 17.1866 18.5018 17.1422 19.3411C17.0454 18.5865 17.0736 17.7109 17.0413 16.9159L17.1342 17.0047C15.9841 17.0894 14.83 17.1338 13.676 17.1782L10.2177 17.3235L10.2621 17.2791C10.2621 17.2791 10.0644 20.1441 10.02 20.0997V20.0957Z" fill="#231F20"/>
<path d="M13.6839 17.0935L13.5831 19.5994L13.4822 17.0935H13.6839Z" fill="#231F20"/>
<path d="M10.0281 20.0796C12.4452 19.8899 14.9067 19.4138 17.3198 19.5631C16.1092 19.8536 14.9107 19.9141 13.68 19.9585C12.4815 19.9868 11.1741 20.132 10.0281 20.0836V20.0796Z" fill="#231F20"/>
<path d="M19.9469 20.4548L19.8662 16.1371V16.0524L19.951 16.0443L23.7804 15.6287L23.9418 15.6125C24.0144 17.0289 24.0306 18.4493 23.9862 19.8697C23.7441 18.5946 23.7239 17.1338 23.6432 15.7901L23.8127 15.9394L19.9711 16.234L20.0559 16.1412C20.0559 16.1412 20.0155 20.5194 19.9469 20.4589V20.4548Z" fill="#231F20"/>
<path d="M23.0457 18.6027C23.1482 18.6027 23.2313 18.5196 23.2313 18.4171C23.2313 18.3145 23.1482 18.2314 23.0457 18.2314C22.9432 18.2314 22.8601 18.3145 22.8601 18.4171C22.8601 18.5196 22.9432 18.6027 23.0457 18.6027Z" fill="#231F20"/>
<path d="M32.3632 21.2095C34.1791 21.8672 36.0999 21.6856 37.9682 21.3669L37.7745 21.5484L34.7602 24.361L34.7279 24.1592C35.2646 24.365 35.8497 24.4982 36.4308 24.5628C37.2217 24.6677 38.0489 24.5668 38.8277 24.4417C37.1046 25.6725 35.2242 26.6692 33.2187 27.339C31.3907 27.8999 29.5829 28.2792 27.7025 28.6303L27.3474 28.6868L27.5693 28.4003C28.332 27.4802 29.0785 26.3504 29.8775 25.5554C29.1956 26.5683 28.5055 27.5771 27.8034 28.5738L27.6702 28.3438C30.3698 27.6901 33.1622 27.1251 35.6842 25.9186C36.5236 25.5232 37.3508 25.0752 38.1175 24.5628L38.2264 24.8412C37.6171 24.9179 37.0038 24.9179 36.3985 24.8412C35.7326 24.7565 35.0749 24.587 34.4494 24.3166L34.5947 24.1875L37.6615 21.4354L37.7301 21.5767C35.9748 21.8148 33.9491 21.9721 32.3632 21.2175V21.2095Z" fill="#231F20"/>
<path d="M27.1576 26.0719L27.6863 28.489L26.7703 26.193L27.1576 26.0719Z" fill="#231F20"/>
<path d="M6.24294 23.8324C4.62077 24.6273 2.88158 25.1358 1.17064 25.7007L1.1787 25.507L4.12846 26.6248L4.32216 26.6974L4.18092 26.8508L1.50959 29.7077L1.36433 29.3849C3.4788 29.2316 5.58923 29.1468 7.71176 29.1105L7.61896 29.2961C7.27193 28.6868 6.92894 28.0734 6.59805 27.4561L6.63436 27.4359C7.07824 28.0613 7.51404 28.6949 7.93774 29.3365C5.60133 29.5584 3.25282 29.7118 0.904307 29.7884L1.23923 29.4495L3.9832 26.6611L4.03162 26.8871L1.10607 25.7007L0.827637 25.5877L1.11414 25.507C2.82912 25.043 4.64901 24.4417 6.24697 23.8364L6.24294 23.8324Z" fill="#231F20"/>
<path d="M7.51807 29.2316L7.71983 27.5126L7.92159 29.2316H7.51807Z" fill="#231F20"/>
<path d="M15.1085 26.0396C14.8421 26.0396 14.713 26.0397 14.4467 26.0316C13.6719 24.9098 13.3087 24.3408 12.6268 23.1908C12.5582 24.2964 12.5219 24.8452 12.4533 25.9509C12.187 25.9347 12.0578 25.9267 11.7915 25.9065C11.9045 24.4296 11.961 23.6871 12.074 22.2102C12.3161 22.2304 12.4412 22.2384 12.6833 22.2505C13.3491 23.3966 13.7042 23.9655 14.4628 25.0833C14.483 23.9817 14.4951 23.4288 14.5193 22.3232C14.7614 22.3272 14.8865 22.3313 15.1286 22.3313C15.1206 23.8122 15.1165 24.5547 15.1085 26.0396Z" fill="white"/>
<path d="M17.6345 22.771C17.6587 23.2068 17.6668 23.4207 17.691 23.8565C18.2237 23.8283 18.4859 23.8121 19.0186 23.7677C19.0347 23.9655 19.0428 24.0623 19.0589 24.26C18.5223 24.3044 18.2559 24.3206 17.7192 24.3488C17.7435 24.8008 17.7556 25.0267 17.7757 25.4827C18.3931 25.4504 18.7039 25.4303 19.3212 25.3778C19.3374 25.5755 19.3454 25.6724 19.3616 25.8701C18.4738 25.9468 18.03 25.971 17.1382 26.0073C17.0817 24.5264 17.0575 23.7839 17.001 22.3029C17.8201 22.2707 18.2317 22.2465 19.0509 22.1779C19.067 22.3756 19.0751 22.4724 19.0912 22.6702C18.5102 22.7186 18.2196 22.7388 17.6345 22.771Z" fill="white"/>
<path d="M25.6161 21.1166C25.5354 22.658 25.4749 23.4328 25.3215 24.9823C25.027 25.0469 24.8817 25.0752 24.5871 25.1357C24.0343 24.1027 23.768 23.5821 23.2555 22.537C23.1223 23.6991 23.0416 24.2802 22.8641 25.4464C22.5695 25.4948 22.4242 25.519 22.1297 25.5634C21.4638 24.1592 21.1491 23.453 20.5559 22.0326C20.8142 22.0003 20.9393 21.9842 21.1975 21.9519C21.6656 23.106 21.9077 23.679 22.4162 24.8209C22.5856 23.5741 22.6583 22.9526 22.7834 21.7057C23.0537 21.6573 23.1869 21.6331 23.4573 21.5847C23.9859 22.7065 24.2603 23.2633 24.8292 24.369C24.9099 23.1261 24.9382 22.5047 24.9785 21.2699C25.2328 21.2134 25.3619 21.1811 25.6161 21.1206V21.1166Z" fill="white"/>
</svg>
