<svg width="39" height="39" viewBox="0 0 39 39" fill="none" xmlns="http://www.w3.org/2000/svg">
<path d="M25.038 20.9122C25.9233 21.2129 26.0792 22.9167 26.0792 22.9167L23.067 24.0135L21.9312 22.9501C21.9312 22.9501 23.273 22.4378 23.6126 22.3933C23.9523 22.3487 24.5035 21.7864 24.6149 21.6193C24.7262 21.4523 25.0436 20.9122 25.0436 20.9122H25.038Z" fill="#E8B525"/>
<path d="M19.3977 19.3477C20.2552 19.2698 20.9456 20.0771 20.9456 20.0771L22.1037 18.9635C22.1037 18.9635 21.7084 18.4068 20.9456 18.2174C20.1828 18.0281 19.4311 18.3789 19.4311 18.3789L19.3977 19.3477Z" fill="#FFF1B8"/>
<path d="M15.261 19.0192L16.7198 19.9769H17.9058L18.6463 18.2175C18.6463 18.2175 17.143 17.5215 16.5584 17.6161C15.9737 17.7108 15.1051 17.9224 14.2922 18.8188C14.2922 18.8188 14.6931 18.9357 14.9047 18.9357C15.1163 18.9357 15.261 19.0192 15.261 19.0192Z" fill="#FFF1B8"/>
<path d="M7.22093 21.5136C7.22093 21.5136 5.8401 20.684 4.94367 19.1083C4.04725 17.5326 3.00049 15.2275 3.00049 15.2275C3.00049 15.2275 8.34563 13.262 10.0216 12.8667C10.0216 12.8667 9.42023 17.1094 9.43137 17.6161C9.4425 18.1228 9.64295 19.7152 9.64295 19.7152L7.2265 21.5191L7.22093 21.5136Z" fill="#99BF30"/>
<path d="M13.9412 14.0415C13.9412 14.0415 12.8778 18.3956 12.9 18.7408C12.9 18.7408 12.5994 18.6127 11.5192 18.9691C10.6395 19.2642 9.94908 19.5704 9.7208 19.6762L9.63728 19.7151C9.63728 19.7151 9.63171 19.6483 9.62615 19.537C9.5816 19.0192 9.45911 17.4991 9.49251 16.8755C9.49251 16.831 9.49808 16.792 9.50365 16.7475C9.55933 16.0404 9.83772 15.3889 9.83772 15.3889L10.3388 15.2275L13.9412 14.0415Z" fill="#99BF30"/>
<path d="M10.3333 19.3699L9.72081 19.6761L9.63729 19.7151C9.63729 19.7151 9.63172 19.6483 9.62616 19.5369C9.60388 19.0414 9.53707 17.5993 9.50366 16.7474C9.55934 16.0403 9.83773 15.3889 9.83773 15.3889L10.3388 15.2274C10.1829 17.3154 10.3333 19.3699 10.3333 19.3699Z" fill="#718721"/>
<path d="M6.49705 21.8644C8.37899 22.0092 9.50369 23.0949 9.75982 23.5515C10.0159 24.0081 10.3389 25.2386 10.3389 25.2386C10.3389 25.2386 5.58949 24.4869 5.16077 24.3421C4.73204 24.1974 3.93027 24.0081 3.93027 24.0081L3.19531 23.5459C3.19531 23.5459 5.27212 21.7642 6.49705 21.8589V21.8644Z" fill="#F9C932"/>
<path d="M7.02588 21.8923C7.54926 20.9012 10.0325 19.4535 10.7786 19.2086C11.5247 18.9636 13.4178 18.6462 14.2919 18.8188C15.1661 18.9914 16.9589 19.899 16.9589 19.899C16.9589 19.899 15.8732 20.3722 15.1215 20.2442C14.3699 20.1161 11.5859 20.2553 11.1071 20.5003C10.6283 20.7453 8.50692 22.3934 8.50692 22.3934L7.02588 21.8923Z" fill="#F9C932"/>
<path d="M5.45044 22.5659C8.06733 22.5659 9.0083 23.9857 9.1642 24.3699C8.15085 23.479 6.95933 22.8165 5.45044 22.5659Z" fill="white"/>
<path d="M4.55396 23.106C7.62741 23.3008 8.33453 24.9656 8.33453 24.9656H7.67195C6.8145 24.2195 5.84013 23.557 4.55396 23.106Z" fill="white"/>
<path d="M7.02588 21.8922C7.02588 21.8922 9.33097 19.7152 11.8142 19.2697C14.2975 18.8243 15.9623 19.4256 15.9623 19.4256C15.9623 19.4256 14.2808 18.6461 12.5269 18.7853C10.773 18.9245 9.14166 20.0882 8.66282 20.3054C8.18399 20.5225 7.03144 21.8922 7.03144 21.8922H7.02588Z" fill="white"/>
<path d="M1.69775 25.4667C3.10085 26.2963 8.03955 28.2952 13.6631 28.0892C19.2866 27.8832 28.0115 24.4701 28.0115 24.4701L27.7609 25.7897C27.7609 25.7897 22.8055 29.136 16.5584 29.8598C10.3112 30.5836 2.3826 27.0146 2.3826 27.0146L1.69775 25.4667Z" fill="#0D92F4"/>
<path d="M17.7499 5.82336L16.9592 21.8644L18.8189 22.0147L19.3144 21.4078L20.261 6.15744L17.7499 5.82336Z" fill="#F9C932"/>
<path d="M19.6095 6.31338L18.5071 21.9925H17.9058L18.9804 6.05725L19.6095 6.31338Z" fill="#E8B525"/>
<path d="M18.3678 8.10617L17.6607 21.9924L17.4324 21.9033L18.1339 5.97925L18.3678 8.10617Z" fill="white"/>
<path d="M13.6796 20.7007C14.6707 21.3187 14.9713 22.4434 14.9713 22.4434C14.9713 22.4434 13.919 23.9523 13.9413 25.4668H12.3656C12.0426 24.1472 11.5193 23.106 10.3389 22.9501C10.3389 22.9501 11.4079 21.7252 11.948 21.4078C12.4881 21.0904 13.6851 20.7007 13.6851 20.7007H13.6796Z" fill="#E8B525"/>
<path d="M16.4024 21.2352C15.5171 21.664 14.5594 22.2708 14.2476 23.8688L13.9414 25.4668C13.9414 25.4668 18.3344 25.3888 19.4536 25.0993C20.5727 24.8098 23.0671 24.0136 23.0671 24.0136C23.0671 24.0136 20.6841 22.1706 18.8244 22.0203C16.9647 21.87 16.408 21.2408 16.408 21.2408L16.4024 21.2352Z" fill="#FFF1B8"/>
<path d="M22.5827 18.6796L18.8188 22.0148C18.8188 22.0148 20.4113 22.3266 20.5672 22.3823C20.7231 22.4379 21.7364 22.1763 21.7364 22.1763C21.7364 22.1763 22.9279 21.625 23.3901 20.9068C23.8522 20.1885 23.7186 19.4925 23.6907 19.4035C23.6629 19.3144 23.4457 18.9191 23.4457 18.9191L22.5772 18.6741L22.5827 18.6796Z" fill="#EA914E"/>
<path d="M5.45044 15.684C5.99609 19.4701 7.30454 20.5391 7.30454 20.5391L5.45044 15.684Z" fill="#D2E58C"/>
<path d="M22.7106 19.6428C22.6716 20.3555 20.2607 21.6194 20.2607 21.6194C20.2607 21.6194 21.0792 21.3744 21.9311 21.0292C22.783 20.684 22.7106 19.6428 22.7106 19.6428Z" fill="#FFD6BB"/>
<path d="M16.9592 14.2977C16.2187 14.3366 15.339 14.6596 14.6653 14.3478C15.0328 14.1863 15.4169 14.1752 15.8067 14.2142C16.1742 14.2531 16.6474 14.1974 16.9537 14.3032L16.9592 14.2977Z" fill="#231F20"/>
<path d="M3.39024 17.1373C-1.70435 20.478 1.88692 23.3677 6.22428 24.4089C12.3044 26.0793 20.6617 25.8343 26.1516 22.527C27.6828 21.5637 28.9133 19.6373 28.0559 17.8834C27.6494 17.0816 26.8643 16.4691 26.0124 16.046C24.292 15.1774 22.3377 14.7654 20.4 14.4758V14.4202C23.2397 14.6819 26.8087 14.977 28.5291 17.6384C30.0826 20.8956 26.4969 23.4846 23.7575 24.3143C18.6128 26.096 8.212 26.2185 3.27888 23.8744C1.38024 23.0169 -0.384773 21.0515 1.04617 18.9635C1.62522 18.1117 2.48824 17.5437 3.3624 17.0927L3.39024 17.1428V17.1373Z" fill="#231F20"/>
<path d="M20.5614 6.89246C26.2128 7.32118 31.9254 7.61628 37.549 8.40135C37.7828 8.45146 38.0612 8.47373 38.2282 8.67417C37.9832 9.29777 37.8385 9.96035 37.2205 10.3557C36.9532 10.4058 36.8029 10.3612 36.5634 10.3557C34.2305 10.1552 31.9198 9.79332 29.6036 9.46481C26.931 8.99155 22.9333 8.46816 20.4055 7.83343C25.5502 8.41805 31.4466 9.37016 36.5913 9.99376C36.7082 9.99933 36.9588 10.0272 37.0757 10.0216C37.4543 9.849 37.7216 9.09733 37.8886 8.6686L37.9109 8.81337C37.9109 8.8245 37.9109 8.83008 37.9164 8.83008C37.7828 8.77997 37.6325 8.74655 37.4877 8.71871C32.0145 7.84456 25.9789 7.53277 20.5614 6.89803V6.89246Z" fill="#231F20"/>
<path d="M17.7442 7.4604C17.2598 7.44926 16.781 7.42699 16.3021 7.38801C16.2242 7.13746 16.0905 6.73101 16.4023 6.53057C16.7587 6.34683 17.1095 6.50829 17.4324 6.65306V6.69203C17.154 6.81452 16.8589 6.78668 16.6362 6.89247C16.5805 6.92031 16.5917 7.06508 16.6028 7.18757L16.4636 7.05395C16.7643 7.15973 17.6551 7.30449 17.7442 7.44926V7.4604Z" fill="#231F20"/>
<path d="M16.8755 6.65305C16.7585 5.4838 18.685 5.99047 19.3699 5.94593L22.2484 6.09069C25.578 6.28557 30.3775 6.73099 33.7516 6.98712C34.932 7.12631 37.2872 7.23767 38.4286 7.48823C38.7293 7.78333 38.2393 8.22319 38.0556 8.4459L38.0278 8.41806C38.1837 8.24546 38.3396 8.05058 38.4286 7.83343C38.4732 7.72764 38.4788 7.60515 38.3897 7.54948C37.8106 7.43255 37.2037 7.43255 36.6191 7.37687L33.7405 7.1987L27.9833 6.85906C25.0992 6.71429 22.2206 6.55839 19.3532 6.24102C18.646 6.19648 17.9278 5.96263 17.2374 6.12967C17.0147 6.18535 16.8922 6.41363 16.92 6.65305H16.881H16.8755Z" fill="#231F20"/>
<path d="M20.4614 6.20764C19.9548 10.339 19.6374 16.7086 19.3145 20.9179C19.4147 18.4514 19.6652 12.2098 19.7877 9.83231C19.8601 8.71317 19.8991 7.22656 20.055 6.10742L20.4614 6.20764Z" fill="#231F20"/>
<path d="M19.6541 6.14636C19.1474 10.2777 18.83 16.6473 18.5071 20.8566C18.6073 18.3901 18.8579 12.1485 18.9804 9.77103C19.0527 8.65189 19.0917 7.16528 19.2476 6.04614L19.6541 6.14636Z" fill="#231F20"/>
<path d="M18.8132 6.07397C18.3066 10.2053 17.9892 16.575 17.6663 20.7843C17.7665 18.3177 18.017 12.0761 18.1395 9.69865C18.2119 8.57951 18.2509 7.09289 18.4068 5.97375L18.8132 6.07397Z" fill="#231F20"/>
<path d="M18.1062 6.0238C17.5995 10.1552 17.2822 16.5248 16.9592 20.7341C17.0594 18.2675 17.31 12.026 17.4325 9.64848C17.5049 8.52934 17.5439 7.04272 17.6998 5.92358L18.1062 6.0238Z" fill="#231F20"/>
<path d="M16.4136 21.2853C14.9604 22.243 14.1141 23.7908 14.0195 25.5057L13.9805 25.5168C13.2177 23.7852 14.9604 21.8588 16.4136 21.2853Z" fill="#231F20"/>
<path d="M16.9702 21.8811C15.8622 22.8332 15.2887 24.047 15.1884 25.4891L15.1495 25.4946C14.9824 25.1606 14.9156 24.7764 14.949 24.3922C15.0882 23.3566 16.1406 22.282 16.9702 21.8811Z" fill="#231F20"/>
<path d="M6.49707 21.8533C7.92244 21.7642 9.64291 22.5326 10.0327 24.008C9.5761 23.5125 9.10283 22.9279 8.51264 22.527C7.93915 22.0983 7.15965 21.9535 6.50264 21.8477L6.49707 21.8533Z" fill="#231F20"/>
<path d="M5.86225 22.6271C7.12616 22.5102 9.03593 22.9723 9.21967 24.4701C8.86333 23.9467 8.3845 23.4567 7.7943 23.1338C7.22638 22.7886 6.47472 22.7218 5.85669 22.6271H5.86225Z" fill="#231F20"/>
<path d="M5.1664 23.5236C5.90693 23.5459 6.73097 23.7631 7.3156 24.2419C7.49377 24.4312 7.64411 24.6539 7.69422 24.9434L7.64967 24.9769C7.13186 24.8321 6.79779 24.5704 6.41917 24.2363C6.03499 23.9524 5.60627 23.7296 5.15527 23.5737L5.1664 23.5181V23.5236Z" fill="#231F20"/>
<path d="M9.99927 23.3732C11.1295 21.3187 13.7576 19.4312 16.0515 20.8899L16.0348 20.9456C14.3199 20.8287 12.566 20.9122 11.2576 22.1538C10.8066 22.5158 10.4224 22.9612 10.0438 23.4122L9.99927 23.3788V23.3732Z" fill="#231F20"/>
<path d="M8.48486 22.3711C10.0383 20.6228 12.8 19.0638 15.1273 20.2163L15.1106 20.272C13.8968 20.2832 12.7777 20.3778 11.614 20.6673C10.4837 21.0014 9.4314 21.6083 8.52383 22.4101L8.48486 22.3711Z" fill="#231F20"/>
<path d="M7.66085 22.0092C9.4537 19.9658 12.8278 18.7409 15.4057 19.8878L15.3946 19.9157C12.6998 19.3032 9.60402 20.0938 7.65527 22.0148L7.66085 22.0092Z" fill="#231F20"/>
<path d="M15.4003 19.0637C12.3102 18.2063 9.1866 19.6595 7.0374 21.8755L7.01514 21.8588C8.78015 19.2419 12.4828 18.0225 15.4003 19.0637Z" fill="#231F20"/>
<path d="M10.3391 22.9223C11.5473 22.8555 12.7444 24.2085 12.4214 25.4056C12.4103 25.4334 12.3936 25.4946 12.3658 25.4946V25.439C11.9537 25.0548 11.8201 24.459 11.5807 23.9635C11.319 23.4735 10.8958 23.0949 10.3335 22.978V22.9223H10.3391Z" fill="#231F20"/>
<path d="M11.0574 22.1261C12.132 22.4769 13.6353 23.4791 13.2345 24.8042L13.1788 24.8098C12.8169 24.2976 12.5997 23.8744 12.2991 23.351C11.9706 22.8945 11.5418 22.488 11.0352 22.1762L11.0574 22.1261Z" fill="#231F20"/>
<path d="M11.9481 21.3911C12.9671 21.4913 14.4982 22.3042 14.2699 23.4846C13.8913 23.067 13.6519 22.655 13.2956 22.2486C12.9337 21.8811 12.4493 21.6194 11.937 21.4301L11.9481 21.3911Z" fill="#231F20"/>
<path d="M13.2565 20.7843C14.0416 20.8734 15.0772 21.6028 14.9547 22.4491C14.6931 22.1206 14.4982 21.7977 14.2476 21.4692C13.9804 21.1184 13.5906 20.9792 13.251 20.7843H13.2565Z" fill="#231F20"/>
<path d="M21.6918 22.9C22.8944 22.7219 24.4701 22.243 24.8042 20.9402C25.3666 19.242 23.5737 18.9246 22.6049 18.9357C21.3967 20.0048 20.1383 21.2018 18.8076 22.0092C19.9379 20.7954 21.1795 19.6261 22.4434 18.5627C23.4289 18.5126 24.8766 18.8244 25.1383 19.9658C25.2274 20.6729 25.0102 21.4134 24.498 21.9034C23.7686 22.5493 22.5882 22.9669 21.6918 22.9056V22.9Z" fill="#231F20"/>
<path d="M17.9058 21.998C19.7988 21.7976 22.399 22.3766 23.2175 24.2251C22.4213 23.6294 21.6474 23.0893 20.7676 22.6494C19.8935 22.1929 18.7966 22.1261 17.9058 22.0036V21.998Z" fill="#231F20"/>
<path d="M16.9592 22.9223C18.3512 22.6216 20.4057 23.1394 20.6006 24.7931L20.5505 24.8153C20.0717 24.4423 19.4592 23.841 18.9637 23.5069C18.3679 23.145 17.6663 22.9947 16.9648 22.9779V22.9223H16.9592Z" fill="#231F20"/>
<path d="M23.2452 18.7241C24.1472 19.292 23.8799 20.6171 23.2953 21.3298C22.7107 22.126 21.6973 22.5325 20.7285 22.4657C20.8065 22.3042 21.7085 22.0592 21.9646 21.8532C22.7385 21.469 23.5013 20.8677 23.6182 19.9546C23.7017 19.5203 23.5904 19.0303 23.2229 18.7519L23.2452 18.7185V18.7241Z" fill="#231F20"/>
<path d="M19.7822 18.2732C20.5728 18.0449 21.9982 18.0171 22.1151 19.0972L22.0761 19.1139C21.6975 18.8745 21.4136 18.7075 21.0294 18.507C20.6396 18.3511 20.2053 18.3122 19.7822 18.3122L19.7766 18.2732H19.7822Z" fill="#231F20"/>
<path d="M19.6096 19.3311C20.1386 19.2308 21.0684 19.37 21.0016 20.0827L20.9737 20.0883C20.7622 19.8934 20.6063 19.7598 20.3836 19.5927C20.133 19.409 19.6597 19.4034 19.6096 19.3311Z" fill="#231F20"/>
<path d="M14.281 18.8132C14.4982 17.8667 15.8901 17.2876 16.7197 17.6273C15.8289 17.9224 14.7376 17.8834 14.281 18.8132Z" fill="#231F20"/>
<path d="M2.98384 16.1406C5.32791 14.5928 7.86685 13.3734 10.5394 12.4993C10.0049 14.2754 9.70424 16.1351 9.62072 17.9892C9.59845 18.5627 9.62629 19.1306 9.66527 19.7096L9.60959 19.7208C9.06394 18.0504 9.10849 16.2019 9.4704 14.4926C9.59846 13.9191 9.75992 13.3567 9.9548 12.7944L10.2443 13.1006C7.72766 13.7632 5.22212 15.0493 2.97827 16.1462L2.98384 16.1406Z" fill="#231F20"/>
<path d="M3.85231 14.8101C3.93026 17.5272 5.467 19.7933 7.39904 21.5973L7.3712 21.6474C4.74317 20.7176 3.52937 17.2933 3.85231 14.8156V14.8101Z" fill="#231F20"/>
<path d="M12.7387 18.7687C12.9057 17.2654 13.0894 15.7621 13.2787 14.2532L13.5015 14.4536C12.232 14.9102 10.9402 15.2833 9.59839 15.4781C10.6841 14.8156 12.1262 14.4703 13.3957 14.114L13.6685 14.0416C13.34 15.5839 13.1451 17.31 12.7331 18.7632L12.7387 18.7687Z" fill="#231F20"/>
<path d="M0.756786 20.272C1.77014 28.9801 6.39703 32.1427 14.8713 32.2707C22.6608 32.4211 27.8945 27.4601 28.5293 19.7152C28.8411 24.8822 25.467 30.6394 20.1441 32.0536C15.4559 33.3843 8.75223 32.8108 4.83803 29.7429C2.08194 27.4768 0.951664 23.6016 0.751221 20.272H0.756786Z" fill="#231F20"/>
<path d="M1.96484 25.4446C7.28215 28.0448 13.2954 28.0559 19.0749 27.527C19.4646 27.488 19.8599 27.4602 20.2553 27.4434L20.2664 27.4991C14.2475 28.6906 7.17079 29.0024 1.96484 25.4501V25.4446Z" fill="#231F20"/>
<path d="M2.64966 26.8867C8.19525 31.9869 21.0626 30.0325 26.8921 26.0793L26.9033 26.1183C23.557 28.8855 19.0637 29.9769 14.7987 30.1717C10.6618 30.3332 5.61733 29.9991 2.64966 26.8867Z" fill="#231F20"/>
</svg>
