<svg width="39" height="39" viewBox="0 0 39 39" fill="none" xmlns="http://www.w3.org/2000/svg">
<path d="M12.9121 34.4205C12.5235 34.9898 10.2732 36.0201 10.2732 36.0201L7.01078 27.4618C7.01078 27.4618 3.13381 27.3534 2.72713 24.1361C2.60965 23.1962 2.94403 22.1118 3.46819 21.0635H3.47722C4.74243 18.524 7.15538 16.1382 7.15538 16.1382C6.48662 20.3766 8.21273 26.052 9.5412 26.5039C9.5412 26.5039 12.4873 33.7517 12.9302 34.1765C12.9934 34.2397 12.9844 34.3211 12.9121 34.4205Z" fill="#F9C932"/>
<path d="M12.9121 34.4206C12.5235 34.9899 10.2732 36.0202 10.2732 36.0202L7.01078 27.4619C7.01078 27.4619 3.13381 27.3535 2.72713 24.1363C2.60965 23.1964 2.94403 22.1119 3.46819 21.0636H3.47722C3.47722 21.0636 5.83594 25.3924 7.15538 26.1244C8.46577 26.8565 8.85438 28.3205 8.85438 28.3205C8.85438 28.3205 9.9298 33.4265 12.406 34.2037C12.5867 34.2579 12.7584 34.3302 12.9121 34.4206Z" fill="#E8B525"/>
<path d="M30.8329 27.8595L10.2732 26.9286C9.17068 24.823 8.73689 22.5275 8.8363 20.3586C8.97186 17.6113 9.95691 15.0899 11.5113 13.4722L24.073 6.45032C24.073 6.45032 21.2263 10.5894 22.6452 16.816C23.6302 21.1358 25.754 24.4886 27.959 26.3322C28.9351 27.1546 29.9201 27.6787 30.8329 27.8595Z" fill="#0D92F4"/>
<path d="M30.8329 27.8595L10.2732 26.9287C9.17068 24.823 8.73689 22.5276 8.8363 20.3586C12.1258 21.9582 21.7776 24.7598 27.959 26.3322C28.9351 27.1546 29.9201 27.6788 30.8329 27.8595Z" fill="#0B669E"/>
<path d="M33.3092 19.2199C34.6768 19.2199 35.7854 17.383 35.7854 15.1171C35.7854 12.8511 34.6768 11.0142 33.3092 11.0142C31.9416 11.0142 30.833 12.8511 30.833 15.1171C30.833 17.383 31.9416 19.2199 33.3092 19.2199Z" fill="#F9C932"/>
<path d="M14.9999 27.245C15.6596 29.0344 16.4097 30.7876 16.8977 32.6312C16.9248 32.7396 16.8977 32.9023 16.8164 32.9746C15.9849 33.8873 14.8191 34.7278 13.5268 34.7911C12.8671 34.7459 12.605 33.9416 12.3249 33.4536C11.3488 31.375 10.6801 29.1789 10.0204 26.9919L10.174 27.1637C9.07147 26.7208 8.3756 25.7267 7.92374 24.7507C7.02905 22.7445 6.8212 20.5394 6.93868 18.3704C7.07424 17.2227 7.15558 16.1111 7.94182 15.1442L8.41175 15.7316C7.2098 16.572 6.01689 17.4396 4.8782 18.3614C4.15522 19.0211 3.16114 19.6537 2.8358 20.5575C2.60987 22.4824 3.08884 24.8592 4.3179 26.3684C5.07702 26.8473 6.3603 26.9106 7.26402 26.9829C7.43573 26.9829 7.58034 27.1004 7.62552 27.254C8.38465 29.685 8.93591 32.3329 10.1559 34.5651C10.7343 35.0531 11.8369 34.8362 12.5598 34.8091L12.5779 34.8995C12.1441 34.9899 11.7103 35.0441 11.2675 35.0622C10.8337 35.0622 10.2192 35.1345 9.92097 34.773C8.42983 32.5498 7.77011 29.9652 6.90254 27.4709L7.26402 27.742C6.08015 27.6607 4.76976 27.7059 3.76663 27.0371C3.3961 26.7299 3.18825 26.3865 2.98943 26.034C2.14897 24.2537 1.60673 22.3016 1.95919 20.3315C2.06763 19.8616 2.3749 19.482 2.63698 19.2019C4.25464 17.5842 6.13438 16.3732 8.00508 15.099C8.37561 14.855 8.80035 15.3791 8.47501 15.6864C7.94181 16.319 7.72493 17.4396 7.62552 18.4337C7.47189 20.4671 7.64359 22.627 8.4479 24.5157C8.85457 25.4375 9.46911 26.3142 10.3728 26.6937C10.9512 27.8143 11.2946 29.8748 11.8459 31.2033C12.2255 32.2426 12.5689 33.3541 13.2015 34.2579C13.328 34.4115 13.3913 34.4567 13.563 34.4748C14.6384 34.4476 15.6415 33.7337 16.4549 33.0469C16.5724 32.9023 16.7169 32.8029 16.6808 32.6673C16.238 30.8418 15.5331 29.0615 14.9276 27.2811L15.0089 27.254L14.9999 27.245Z" fill="#231F20"/>
<path d="M10.2915 26.4768L31.7278 27.9951L10.2463 27.3805L10.2915 26.4768Z" fill="#231F20"/>
<path d="M8.18579 15.3791C10.6891 12.8758 13.7075 11.0684 16.744 9.31515C19.7444 7.63423 22.8893 5.52856 25.8807 4.16394L17.1326 9.92064C14.2678 11.8365 11.2133 13.9964 8.18579 15.3701V15.3791Z" fill="#231F20"/>
<path d="M37.8189 15.7406C38.4244 20.4671 37.1501 28.3476 31.0048 28.0945C25.447 27.1095 22.8713 20.7924 22.1213 15.7858C21.805 13.1289 21.9134 10.3545 22.8985 7.7879C24.5432 3.22411 29.2697 1.52511 32.984 4.98636C35.9572 7.75175 37.3309 11.8275 37.8099 15.7406H37.8189ZM37.7285 15.7497C37.1773 11.9089 35.5506 8.04094 32.514 5.55571C29.1341 2.67284 25.2572 4.13687 23.7389 8.12228C21.8863 12.8939 22.6996 18.6326 25.2391 23.0337C26.9562 26.2329 31.2127 29.4139 34.6016 26.6214C37.6562 24.0187 38.1352 19.5272 37.7285 15.7497Z" fill="#231F20"/>
<path d="M37.8367 15.7407C38.153 19.0212 37.8638 22.8801 35.2792 25.2569C32.2879 27.9319 28.2482 25.1484 26.6396 22.2475C24.2899 18.3072 23.4947 13.3277 25.0581 8.93565C25.8624 6.70346 27.9861 4.57067 30.5617 4.95024C35.3786 5.89011 37.2945 11.457 37.8457 15.7316L37.8367 15.7407ZM37.7463 15.7497C37.2764 12.4782 35.8576 9.19773 33.2729 7.10109C30.4533 4.67912 27.1366 5.93529 25.8895 9.27002C24.308 13.3187 24.9948 18.2078 27.1457 21.9402C32.7216 30.6159 38.9573 23.5759 37.7554 15.7497H37.7463Z" fill="#231F20"/>
<path d="M34.9901 15.4063C35.4419 21.1358 31.1492 20.3496 30.5076 15.4514C30.363 14.2043 30.3901 12.7764 31.2577 11.7371C31.9807 10.8605 33.3091 11.0594 33.9237 11.9269C34.6918 12.9301 34.8726 14.2224 34.9901 15.4153V15.4063ZM34.8997 15.4153C34.7551 14.1501 33.8423 12.2884 32.5952 12.0625C30.354 12.442 31.0498 18.5783 33.1826 18.985C34.7099 19.0483 35.0714 16.6353 34.8906 15.4153H34.8997Z" fill="#231F20"/>
<path d="M32.5594 12.0534L24.7241 12.216L32.4871 11.1497L32.5594 12.0534Z" fill="#231F20"/>
<path d="M33.318 19.2651C31.7998 20.1507 30.3267 21.1358 28.7452 21.8858C28.1939 22.0847 27.6246 22.2473 26.992 22.2654L26.9558 22.1841C27.7872 21.2532 28.8446 20.7652 29.9833 20.3947C31.0768 19.97 32.1703 19.5633 33.2819 19.1747L33.318 19.256V19.2651Z" fill="#231F20"/>
</svg>
