<svg width="39" height="39" viewBox="0 0 39 39" fill="none" xmlns="http://www.w3.org/2000/svg">
<path d="M18.4528 3.7632C23.1728 3.4532 20.8028 8.9632 24.1728 9.5732C27.5428 10.1832 28.3028 9.5732 29.3728 10.6432C30.4428 11.7132 28.7628 15.2332 30.8228 16.6832C32.8828 18.1332 32.5028 21.2732 31.1328 22.5732C29.7628 23.8732 28.4728 26.3432 28.3928 28.3932C28.3128 30.4432 27.5828 31.2432 26.2228 31.3632C24.8628 31.4832 23.0028 32.4032 22.6828 33.2532C22.3628 34.1032 21.4228 36.8232 18.7828 36.2732C16.1428 35.7232 16.7928 32.1132 14.8528 31.7332C12.9128 31.3532 10.7728 32.5432 9.7828 32.3532C8.7928 32.1632 6.7328 30.0832 7.7728 26.8632C8.8128 23.6432 5.7028 22.5832 4.2928 21.3532C2.8828 20.1232 2.7028 18.3432 5.4828 16.7532C8.2628 15.1632 7.9028 13.9532 7.7828 12.5732C7.6628 11.1932 6.5128 8.1532 8.1228 7.6032C9.7328 7.0532 11.9328 8.1132 13.7028 7.9032C16.9128 7.5232 18.4628 3.7732 18.4628 3.7732L18.4528 3.7632Z" fill="#0D92F4"/>
<path d="M15.3229 20.2333C17.4712 20.2333 19.2129 17.9902 19.2129 15.2233C19.2129 12.4563 17.4712 10.2133 15.3229 10.2133C13.1745 10.2133 11.4329 12.4563 11.4329 15.2233C11.4329 17.9902 13.1745 20.2333 15.3229 20.2333Z" fill="white"/>
<path d="M25.0328 28.6133C27.1812 28.6133 28.9228 26.3702 28.9228 23.6033C28.9228 20.8363 27.1812 18.5933 25.0328 18.5933C22.8844 18.5933 21.1428 20.8363 21.1428 23.6033C21.1428 26.3702 22.8844 28.6133 25.0328 28.6133Z" fill="white"/>
<path d="M36.2429 19.6933C36.2729 20.9433 35.4229 22.1633 34.2129 22.5033C33.0029 22.7033 31.9429 23.5133 31.4929 24.6433C31.0129 25.7633 31.2129 27.0833 31.9229 28.0733C32.5629 29.1733 32.2929 30.6633 31.3929 31.5533C30.5029 32.4733 29.0229 32.7633 27.8829 32.1433C26.8729 31.4633 25.6129 31.3033 24.5329 31.7733C23.4429 32.2333 22.7029 33.2233 22.5029 34.4333C22.1529 35.7133 20.8729 36.6533 19.5429 36.6333C18.2029 36.6633 16.9029 35.7633 16.5229 34.4633C16.1529 32.0133 13.2629 30.8033 11.2729 32.2933C9.42286 33.3733 6.91286 32.0433 6.59286 29.9633C6.24286 28.6333 7.35286 27.6133 7.51286 26.4033C7.69286 25.0333 6.88286 23.6133 5.60286 23.0933C4.71286 22.8433 3.65286 22.5233 3.09286 21.6633C2.26286 20.5333 2.25286 18.9133 3.06286 17.7633C3.60286 16.8933 4.67286 16.5433 5.56286 16.2933C7.07286 15.6733 7.85286 13.7833 7.21286 12.2933C7.11286 12.0333 6.99286 11.8733 6.79286 11.5333C6.07286 10.2833 6.37286 8.5933 7.38286 7.5933C8.37286 6.5633 10.0629 6.2533 11.3229 6.9533C11.6729 7.1333 11.8329 7.2533 12.0929 7.3533C13.5629 7.9933 15.4229 7.2133 16.0329 5.7333C16.2929 4.8433 16.6329 3.7433 17.5029 3.1833C19.8429 1.6133 22.5329 3.0533 22.9729 5.7233C23.7029 7.5933 26.0829 8.2433 27.7729 7.0833C28.9829 6.4333 30.5629 6.7433 31.4929 7.7233C32.4329 8.6633 32.6929 10.2133 32.0229 11.3633C31.3129 12.3533 31.1029 13.5933 31.5529 14.7133C31.9829 15.8233 33.0129 16.6333 34.2129 16.8533C35.4329 17.2133 36.2829 18.4433 36.2429 19.6933ZM36.1429 19.6933C36.1529 18.4833 35.3129 17.3333 34.1629 17.0133C32.9529 16.8233 31.7929 15.9833 31.3229 14.8033C30.7929 13.6433 31.0029 12.2133 31.6829 11.1833C32.2329 10.1533 31.9429 8.8633 31.1229 8.0933C30.3129 7.3133 29.0429 7.1133 28.1029 7.6733C27.6329 7.9833 26.9529 8.3233 26.2929 8.3933C24.9429 8.6033 23.5229 8.0133 22.6829 6.9333C22.2729 6.4633 21.9929 5.6933 21.8629 5.1433C21.5529 4.1433 20.5629 3.4833 19.5229 3.5233C18.4829 3.5133 17.5229 4.1933 17.2429 5.1833C17.1229 5.7533 16.8229 6.5133 16.4229 7.0033C15.1529 8.7033 12.5629 9.0033 10.8729 7.8133C8.93286 6.6833 6.50286 9.1233 7.62286 11.0633C8.82286 12.7333 8.46286 15.3133 6.78286 16.5433C6.29286 16.9333 5.54286 17.2133 4.98286 17.3233C3.96286 17.6133 3.25286 18.6133 3.26286 19.6833C3.24286 20.7633 3.95286 21.7733 4.99286 22.0733C5.56286 22.1933 6.28286 22.4733 6.77286 22.8733C8.11286 23.9233 8.63286 25.8533 7.96286 27.4233C7.84286 27.7333 7.62286 28.0433 7.52286 28.2533C6.98286 29.2133 7.21286 30.4533 7.99286 31.2333C8.76286 32.0133 10.0229 32.2633 10.9929 31.7133C12.0229 30.9933 13.5429 30.7833 14.7329 31.3233C15.9529 31.8033 16.8129 33.0133 17.0429 34.2633C17.3529 35.3433 18.4229 36.1033 19.5529 36.0933C20.6829 36.1233 21.7729 35.3733 22.1029 34.2733C22.3429 33.0333 23.2029 31.8733 24.4029 31.4133C25.5829 30.9033 27.0029 31.1533 28.0229 31.8533C29.0629 32.4433 30.4129 32.2033 31.2529 31.3733C32.1029 30.5533 32.3829 29.1733 31.7929 28.1133C31.0929 27.0933 30.9029 25.7233 31.4029 24.5733C31.8529 23.4133 32.9829 22.5733 34.1929 22.3733C35.3629 22.0333 36.1829 20.8633 36.1529 19.6533L36.1429 19.6933Z" fill="#231F20"/>
<path d="M23.6328 12.6033C22.3828 15.2733 21.0628 17.9033 19.7328 20.5333C18.4828 23.2333 17.0728 25.8033 14.9228 27.9433L14.7928 27.8733C15.5228 24.9333 17.0128 22.4033 18.6928 19.9433C20.2728 17.4533 21.8528 14.9733 23.5028 12.5333L23.6328 12.6033Z" fill="#231F20"/>
<path d="M18.5028 15.7733C18.3628 22.5233 11.6428 22.3533 11.3528 15.7733C11.3128 8.87334 18.6828 8.67334 18.5028 15.7733ZM18.4028 15.7733C17.9928 10.1833 12.4728 10.0233 12.1528 15.7733C12.1528 21.8633 18.2528 21.7033 18.4028 15.7733Z" fill="black"/>
<path d="M28.4329 23.6033C28.2929 30.3533 21.5729 30.1833 21.2829 23.6033C21.2429 16.7033 28.6129 16.5033 28.4329 23.6033ZM28.3329 23.6033C27.9229 18.0133 22.4029 17.8533 22.0829 23.6033C22.0829 29.6933 28.1829 29.5333 28.3329 23.6033Z" fill="black"/>
</svg>
