<svg width="39" height="39" viewBox="0 0 39 39" fill="none" xmlns="http://www.w3.org/2000/svg">
<path d="M34.8683 29.1763C34.2383 32.7149 29.0074 37.1838 23.0439 37.4989C17.0804 37.8139 8.70665 36.3413 6.70661 33.975C4.70658 31.6086 5.61502 24.495 5.61502 24.495C5.61502 24.495 14.4357 25.3008 22.2087 24.8759C29.9891 24.4437 34.7218 24.1799 34.7218 24.1799C34.7218 24.1799 35.4984 25.6378 34.8683 29.1763Z" fill="#0D92F4"/>
<path d="M23.0439 37.4988C17.0804 37.8138 8.70665 36.3413 6.70661 33.9749C4.70658 31.6086 5.61502 24.4949 5.61502 24.4949C6.46485 35.1837 13.8056 37.6453 23.0439 37.4988Z" fill="#0B669E"/>
<path d="M18.1868 7.02942C18.1868 7.02942 15.7105 8.48732 15.4541 9.60089C15.1977 10.7145 15.7691 13.5643 15.7691 13.5643C15.7691 13.5643 17.9743 11.9306 18.5751 10.7291C19.1758 9.52763 18.1868 7.02942 18.1868 7.02942Z" fill="#99BF30"/>
<path d="M18.6628 7.02942C19.1464 3.70335 20.6262 1.41759 22.4138 1.01465C22.4138 1.01465 23.0659 4.14291 22.5897 5.44697C22.1135 6.75102 18.6628 7.02942 18.6628 7.02942Z" fill="#99BF30"/>
<path d="M34.4068 22.341C31.9819 23.8136 29.0587 24.1286 26.3041 24.5755C23.5129 24.9564 20.7069 25.1469 17.8937 25.2641C13.6885 25.2934 9.31478 25.8209 5.22679 24.6121C3.08023 23.7843 4.53814 21.8355 5.15353 20.4875C12.5236 22.6121 20.4652 21.9967 27.9159 20.5314C30.3774 19.96 33.0222 19.3886 35.1101 17.9453C36.1871 19.2494 35.0735 21.0882 34.4068 22.3337V22.341ZM34.3482 22.2897C34.883 21.1249 35.7915 19.4692 34.9563 18.2677L35.1834 18.2823C33.0881 19.8281 30.524 20.5021 28.0404 21.1322C23.0586 22.3117 17.901 22.8538 12.7874 22.4509C10.2305 22.2458 7.68838 21.8721 5.21214 21.0956L5.5638 20.949C5.21214 21.8208 4.34033 22.7146 4.72129 23.6084C5.79823 24.7293 7.95212 24.6414 9.47596 24.8392C12.2672 25.015 15.0805 24.9857 17.879 24.9125C20.685 24.8465 23.4909 24.7 26.2748 24.363C29.0001 23.9674 31.9306 23.689 34.3409 22.2897H34.3482Z" fill="#231F20"/>
<path d="M5.65171 24.4951C5.43925 28.4219 4.49418 33.5282 8.9265 35.4623C10.7727 36.3634 12.868 36.7004 14.8973 36.9935C18.9853 37.4917 23.2198 37.4843 27.2272 36.5173C35.6596 34.5246 35.2493 29.4769 34.4142 22.3119C36.3336 29.5941 35.8061 35.455 27.3957 37.2206C23.2638 38.1144 18.9999 38.0411 14.8387 37.4624C12.7654 37.1253 10.6628 36.7517 8.76532 35.7847C4.28172 33.6674 5.12423 28.3999 5.65904 24.4951H5.65171Z" fill="#231F20"/>
<path d="M7.14617 21.3741C4.50143 20.0554 5.10218 17.2128 8.12787 18.8392L7.8275 19.1836C7.56376 18.8612 7.35863 18.5315 7.19013 18.1652C6.55275 16.9857 6.8751 15.4765 8.06927 14.8025L8.11322 15.4179C7.40259 15.1029 6.56008 14.4509 6.66997 13.5351C6.77986 12.612 7.67365 11.894 8.58942 12.0186C9.17551 12.0918 9.62241 12.319 10.0766 12.634L9.31471 13.1688C8.90445 11.9819 9.05097 10.4654 10.1572 9.68886C11.2488 8.99288 12.377 8.62658 13.6884 9.05149L13.1097 9.894C11.051 7.176 15.4027 5.66681 17.4248 6.6998L17.3881 6.80236C16.0181 6.63386 14.1866 6.98552 13.5639 8.22363C13.454 8.53866 13.6445 8.9416 13.8642 9.16871L15.1903 10.4874L13.2855 10.0185C12.5529 9.82073 11.4539 10.1724 10.8166 10.6046C10.0986 11.0662 10.0253 12.0845 10.2232 12.8538L10.5968 14.3117C10.0473 13.9087 9.16819 12.9783 8.46488 12.8977C7.86413 12.7439 7.19013 13.5058 7.51248 14.0406C7.75424 14.5021 8.45022 14.8172 8.92642 15.0516L8.42092 15.3886C6.50147 16.4655 7.84948 18.5462 8.83118 19.8136C8.1352 19.4253 6.19377 17.9015 5.74688 19.2055C5.57105 20.0847 6.5381 20.8246 7.19745 21.2788L7.14617 21.3741Z" fill="#231F20"/>
<path d="M22.7583 7.16134C23.2711 6.79503 23.9671 6.94888 24.4433 7.30053C24.9268 7.61556 25.3811 7.95989 25.8573 7.79138C26.099 7.73277 26.3188 7.58625 26.6119 7.46171C27.5862 7.02214 28.6192 8.0185 28.8903 8.90496C29.0441 9.25662 29.1174 10.1064 29.2859 10.3042C29.7548 10.3189 30.2896 10.3043 30.7878 10.3555C31.4691 10.4215 32.2603 10.6706 32.6266 11.3665C32.9563 12.0332 33.1688 12.7365 32.8757 13.4984L32.7365 12.8171C33.6156 13.5571 35.2201 15.1761 33.8721 16.2384C33.8428 16.2458 33.8867 16.2458 33.8721 16.0773C33.8208 15.9161 33.7695 15.9454 33.8061 15.9674C34.3336 16.2384 35.1395 16.7 35.0369 17.4326C35.0149 17.7403 34.905 18.0114 34.7585 18.2458L34.656 18.2092C34.8684 17.3007 34.5314 16.9124 33.6523 16.7073C32.9929 16.5241 32.9343 15.9893 33.3739 15.5424C33.4765 15.3886 33.4545 15.3227 33.4178 15.1981C33.1248 14.6047 32.4874 14.1578 31.9746 13.6743L31.8354 12.993C31.9233 12.6779 31.8207 12.1724 31.6742 11.8281C31.4178 11.1761 30.0918 11.198 29.4178 11.1248C28.6778 11.1394 28.4214 10.4874 28.3848 9.90132C28.3262 9.02218 27.8573 7.68881 26.7804 7.92325C26.5459 7.99651 26.2602 8.14304 25.9452 8.19432C24.7217 8.4947 24.0404 6.58257 22.8169 7.2639L22.7656 7.16866L22.7583 7.16134Z" fill="#231F20"/>
<path d="M24.4067 16.3043C24.8243 15.579 26.1357 15.0589 26.839 15.7695C27.0735 16.0552 27.1174 16.4362 26.9709 16.7292L26.8976 16.7439C26.3189 16.2531 25.9233 15.8574 25.154 16.0406C24.9122 16.0845 24.6705 16.1798 24.4653 16.3483L24.4067 16.3043Z" fill="#231F20"/>
<path d="M12.4139 17.3007C11.8424 15.982 13.6447 14.6707 14.7949 15.5278L14.326 15.5644C14.8168 14.7659 15.7766 14.2457 16.6997 14.5754C17 14.678 17.2784 14.9124 17.3444 15.2128L17.2784 15.2421C16.8608 14.9564 16.3846 15.0663 15.9524 15.2055C15.4103 15.3959 14.8974 15.7476 14.5531 16.2018L14.348 15.9381C13.8644 15.5132 12.8168 15.8868 12.5604 16.4802C12.4578 16.7147 12.4285 17.0004 12.4798 17.2714L12.4065 17.2934L12.4139 17.3007Z" fill="#231F20"/>
<path d="M27.1465 13.1321C27.6447 12.8977 28.8022 13.2787 28.1795 13.9527C28.0036 13.9673 27.7619 13.8428 27.7106 13.8355C27.63 13.8135 27.6593 13.7036 27.6154 13.623C27.5274 13.4765 27.3589 13.3299 27.1392 13.2054V13.1321H27.1465Z" fill="#231F20"/>
<path d="M18.1722 7.05885C16.1063 8.23836 14.8095 10.1139 15.6667 12.5242L15.2711 12.3557C17.4103 11.1761 18.7583 9.61568 18.1722 7.05885ZM18.1942 6.99292C19.9159 9.7622 17.8059 12.048 15.1978 13.0223C14.2894 10.2457 15.6008 8.09184 18.1942 6.99292Z" fill="#231F20"/>
<path d="M18.6408 7.05869C18.062 3.82054 18.758 1.28569 22.3258 0.65564C23.0657 3.90112 22.2232 6.48726 18.6408 7.05869ZM18.6847 7.00008C19.6811 6.41399 20.9265 5.72534 21.4393 4.67038C21.8569 3.60076 21.9522 2.23077 21.813 1.07324L22.1573 1.30767C18.9558 1.73991 18.5016 4.24545 18.6847 7.00741V7.00008Z" fill="#231F20"/>
<path d="M15.7986 3.99646C17.1832 6.00382 19.4177 6.98553 20.9782 8.80974L20.9416 8.87568C19.7181 8.58996 18.7364 7.82804 17.9012 6.93425C17.0514 6.07709 16.2821 5.1247 15.7327 4.04043L15.7986 4.00379V3.99646Z" fill="#231F20"/>
</svg>
