<svg width="39" height="39" viewBox="0 0 39 39" fill="none" xmlns="http://www.w3.org/2000/svg">
<path d="M32.0762 18.1431C32.0762 18.1431 33.5582 18.0963 33.878 19.2273C34.1978 20.3583 32.2868 24.3285 30.2198 24.2817C28.1528 24.2349 27.8174 21.2163 29.3384 20.2023C30.8594 19.1883 32.0762 18.1431 32.0762 18.1431Z" fill="#F9C932"/>
<path d="M29.9936 14.5784C29.9936 14.5784 32.0216 16.6454 31.304 18.455C30.5864 20.2646 27.989 20.9276 27.2012 20.5142C26.4134 20.1008 25.7036 17.5034 27.0686 16.8716C28.4336 16.2398 29.7986 15.8654 29.7986 15.8654L30.0014 14.5784H29.9936Z" fill="#EA914E"/>
<path d="M27.9499 10.9359C27.9499 10.9359 31.7485 15.3819 28.4335 16.2399C25.1185 17.0979 22.6381 15.4599 23.3869 14.0715C24.1357 12.6831 27.9499 10.9359 27.9499 10.9359Z" fill="#99BF30"/>
<path d="M26.3276 7.7301C27.5912 8.2449 29.2448 12.3711 26.3276 13.0887C23.4104 13.8063 20.5244 12.9483 21.9206 10.9281C23.3168 8.9079 26.3276 7.7301 26.3276 7.7301Z" fill="#F9C932"/>
<path d="M28.4725 25.631C28.4725 25.631 30.2821 26.7542 30.7033 28.9226C31.1245 31.091 29.5801 33.1892 28.2307 33.6182C26.8813 34.0471 23.1529 32.1986 23.6521 30.2174C24.1513 28.2362 28.4725 25.631 28.4725 25.631Z" fill="#F9C932"/>
<path d="M24.7052 21.9651C24.7052 21.9651 28.1372 23.7513 28.4258 24.8043C28.7144 25.8573 27.5522 28.8681 25.844 29.3595C24.1358 29.8509 22.5602 31.0521 21.3434 30.4203C20.1266 29.7885 19.3778 28.0725 21.1016 26.8323C22.8254 25.5921 24.7052 21.9651 24.7052 21.9651Z" fill="#EA914E"/>
<path d="M24.7052 21.9651C24.6662 23.408 23.7926 27.3938 20.5634 27.8618C18.6914 27.4406 17.6072 25.6934 17.498 23.7045C18.59 21.7233 21.1094 18.1431 21.1094 18.1431C23.0126 18.1899 24.7364 20.4909 24.7052 21.9651Z" fill="#99BF30"/>
<path d="M18.8708 15.8655C19.682 16.2555 20.9379 16.9965 21.1095 18.8139C21.2811 20.6313 19.3545 23.8526 17.7399 24.305C16.1253 24.7574 15.1893 24.5858 14.0583 23.3613C12.9273 22.1367 13.0755 20.5533 13.3563 20.3115C13.6371 20.0697 18.8708 15.8577 18.8708 15.8577V15.8655Z" fill="#F9C932"/>
<path d="M16.2343 12.6987C17.0299 12.8157 17.8021 13.6815 18.0361 14.5785C18.2701 15.4755 18.5197 17.1603 18.0829 17.7063C17.6461 18.2523 15.9457 19.8123 14.6587 20.3193C13.3717 20.8263 12.3499 21.0603 11.8039 20.9355C11.2579 20.8107 11.2735 15.8655 11.2735 15.8655L14.8225 13.7595L16.2421 12.6987H16.2343Z" fill="#F9C932"/>
<path d="M11.9679 10.3508C14.5965 10.1168 15.4935 11.0528 15.7431 11.3804C15.9927 11.708 16.8429 13.5098 14.0583 14.321C11.2737 15.1322 12.6231 16.7468 9.84635 16.6454C7.06956 16.544 7.51414 15.1868 7.63894 14.5706C7.76374 13.9544 8.92593 13.112 8.92593 13.112L11.9679 10.3508Z" fill="#EA914E"/>
<path d="M9.51864 9.78147C11.3906 9.80487 11.8586 10.4367 11.9132 10.9203C11.9678 11.4039 11.3984 13.6815 10.0958 13.9155C8.79324 14.1495 7.39705 13.7751 6.81986 12.7065C6.24266 11.6379 7.89625 9.76587 9.51864 9.78147Z" fill="#F9C932"/>
<path d="M20.8208 5.48363C19.3388 6.33383 19.838 11.2634 22.8098 10.9124C25.7816 10.5614 26.2964 6.14663 25.064 5.48363C23.8316 4.82063 20.8208 5.48363 20.8208 5.48363Z" fill="#F9C932"/>
<path d="M33.4957 22.3784C33.9403 22.8854 35.8435 25.6154 33.4957 26.4422C31.1479 27.269 28.8547 25.4906 29.9935 24.7652C31.1323 24.0398 33.4957 22.3784 33.4957 22.3784Z" fill="#99BF30"/>
<path d="M10.322 13.8298C7.20206 15.4444 4.62806 11.404 8.31745 9.82839C12.1316 8.12019 13.988 11.8408 10.322 13.8298ZM10.2752 13.7674C11.2034 13.198 11.9756 11.833 11.4686 10.8502C10.751 9.58659 7.98985 10.1872 7.17866 11.3884C6.11006 13.081 8.83225 14.875 10.2752 13.7674Z" fill="#231F20"/>
<path d="M11.6324 10.3508C13.1222 10.2104 14.8539 10.187 15.9848 11.3726C16.25 11.6768 16.4762 12.059 16.4684 12.527C16.4684 12.995 16.172 13.3928 15.86 13.658C14.69 14.6252 13.0911 14.828 11.9679 15.7484C11.1723 16.6142 9.87746 17.4098 8.62167 17.0432C7.27227 16.6142 7.20207 14.8046 7.78706 13.814L7.85726 13.8452C7.32686 16.8794 9.63567 17.0198 11.4297 15.1946C12.6699 14.2352 14.3234 14.165 15.5402 13.268C16.1486 12.8468 16.1486 12.1682 15.6884 11.63C14.768 10.5068 13.0209 10.3898 11.6481 10.4444L11.6403 10.3664L11.6324 10.3508Z" fill="#231F20"/>
<path d="M9.65917 16.7236C9.53437 18.2134 10.6342 19.5004 11.6248 20.4442C11.8042 20.608 11.9836 20.7562 12.2176 20.7952C13.4422 20.8576 14.6278 20.2726 15.6028 19.5706C16.6635 18.736 18.0442 17.6986 18.169 16.318C18.1144 15.0388 17.623 13.3774 16.2268 12.7378V12.6598C17.9584 12.8626 18.9334 14.7424 19.0036 16.357C18.9568 17.3086 18.3874 18.0418 17.8102 18.5956C16.3204 19.9528 14.4016 20.5924 12.5296 21.2242C12.319 21.2632 12.046 21.2944 11.8276 21.2398C10.2364 20.6158 8.81677 18.3304 9.58117 16.6846L9.65139 16.708L9.65917 16.7236Z" fill="#231F20"/>
<path d="M12.9506 20.9355C13.598 22.7295 15.2204 25.5375 17.4434 24.1725C19.1984 23.0727 20.8052 21.2865 20.7116 19.0869C20.7662 17.6361 20.0407 16.3101 18.5588 15.9045L18.5744 15.8265C21.3122 15.8343 22.1389 19.3365 21.0469 21.4503C19.9004 23.1429 17.5682 25.7403 15.3296 24.7341C13.949 23.9229 13.3328 22.4019 12.8804 20.9667L12.9584 20.9433L12.9506 20.9355Z" fill="#231F20"/>
<path d="M17.0457 24.6405C17.5605 28.2909 21.4215 28.5639 23.2389 25.6545C23.7537 24.8043 24.4869 23.7669 24.2529 22.7919C23.7693 21.2631 22.9893 18.9699 21.1095 18.8529L21.0939 18.7749C23.2467 18.1197 25.1733 21.4737 25.0797 23.3067C24.7287 25.1553 23.1843 26.3799 21.7647 27.4173C21.1251 27.8463 20.3919 28.2831 19.4949 28.2441C17.7243 28.1973 16.5699 26.2395 16.9599 24.6327H17.0379L17.0457 24.6405Z" fill="#231F20"/>
<path d="M24.3856 21.7233C26.3824 22.5189 29.44 24.6093 28.3714 27.1053C27.6382 28.5093 26.3044 29.8352 24.6742 30.038C24.019 30.272 23.356 30.7556 22.5292 31.0208C20.5012 31.7852 19.3936 29.5778 19.2922 27.9165L19.3702 27.9008C19.69 28.6184 20.0566 29.3283 20.5402 29.8586C21.835 31.2392 23.2858 29.4218 24.8146 29.2814C26.1406 29.1722 27.5992 28.2675 28.1296 27.0195C28.426 26.2785 28.1218 25.6077 27.6226 25.0305C26.7256 23.8371 25.54 22.8387 24.3388 21.8013L24.3778 21.7311L24.3856 21.7233Z" fill="#231F20"/>
<path d="M28.2622 25.3971C30.3136 26.5203 31.6552 29.0865 30.5788 31.3329C30.3292 32.0349 30.103 32.7837 29.518 33.3765C28.5664 34.2033 27.373 34.3749 26.1952 34.5075C24.214 34.5075 22.1002 32.4873 22.81 30.4515L22.888 30.4671C22.888 32.3313 24.5962 33.5325 26.2264 33.6963C27.1702 33.6573 28.4494 33.5091 29.2528 33.0489C29.8222 32.6667 30.1576 31.9647 30.3448 31.2627C30.883 29.0553 29.5492 27.1833 28.2232 25.4595L28.27 25.3971H28.2622Z" fill="#231F20"/>
<path d="M3.96521 6.38074C5.01821 7.18413 6.0244 8.03434 7.0306 8.88454C8.11479 9.69573 9.05858 10.6083 9.55778 11.9265L9.4798 12.0045C8.1538 11.5131 7.24119 10.5849 6.41439 9.50073C5.55639 8.50233 4.6984 7.49614 3.88721 6.45874L3.96521 6.38074Z" fill="#231F20"/>
<path d="M30.2979 32.1908L35.5082 38.1266L29.5334 32.9708L30.2979 32.1908Z" fill="#231F20"/>
<path d="M20.5789 5.65536C19.2919 6.63036 19.1671 8.92354 20.3449 9.98434C21.4993 11.1543 23.7067 11.3727 24.8377 10.0155C27.9577 6.53676 23.9874 3.79897 20.5789 5.65536ZM20.5399 5.58516C21.3121 5.17176 22.0999 4.71936 23.0281 4.54776C26.8267 4.07976 28.0044 8.10456 25.1184 10.3354C23.6287 11.4819 21.4993 11.5209 19.9237 10.4757C18.1921 9.21995 19.0657 6.63815 20.5399 5.58516Z" fill="#231F20"/>
<path d="M20.4464 10.4523C20.111 15.1323 26.8579 14.6331 27.7003 10.7877C27.9811 9.57095 27.2245 8.52576 26.3041 7.76136L26.3432 7.69116C27.6301 8.15136 28.7143 9.45396 28.4647 10.9204C27.8875 13.7829 24.3152 15.1323 21.8816 13.8297C20.6414 13.2135 20.1032 11.7315 20.3684 10.4289L20.4464 10.4446V10.4523Z" fill="#231F20"/>
<path d="M28.2073 11.0295C32.6845 15.9903 28.9327 17.7687 23.7847 17.4333C21.9985 17.3085 21.2107 14.9997 21.7411 13.5567L21.8191 13.5801C21.7723 14.7267 22.4743 16.3803 23.6365 16.6143C25.3525 16.7001 29.9389 17.1759 29.7907 14.5707C29.7049 13.3071 28.9717 12.1059 28.1605 11.0763L28.2151 11.0217L28.2073 11.0295Z" fill="#231F20"/>
<path d="M30.0092 14.5472C31.2572 15.3272 32.9498 17.1446 31.8266 18.6578C30.407 19.9214 28.7066 21.1772 26.7176 21.2162C25.2356 21.0212 23.933 18.3224 24.635 17.0666L24.7052 17.0978C24.6272 17.6906 24.9314 18.2366 25.2122 18.7358C25.6178 19.3676 26.1248 20.1866 26.819 20.405C28.301 20.4362 31.7876 19.625 31.5614 17.675C31.382 16.6532 30.6254 15.6314 29.9624 14.594L30.017 14.5394L30.0092 14.5472Z" fill="#231F20"/>
<path d="M27.0997 20.8185C27.6145 21.9183 27.6379 23.3379 28.5817 24.1179C31.0855 25.8573 33.2929 23.3691 33.4411 20.8185C33.5815 19.6407 33.2383 18.3147 31.8421 18.1899V18.1119C34.4941 17.5737 34.7515 21.2709 33.6751 22.8855C33.0511 24.1413 31.6549 24.9057 30.2899 24.9213C29.6347 24.9759 28.9093 25.0227 28.2229 24.6483C26.9203 23.7903 27.0373 22.1601 27.0295 20.8341L27.1075 20.8185H27.0997Z" fill="#231F20"/>
<path d="M33.5193 22.3551C36.647 24.8589 33.9795 28.7589 30.4695 27.9945V27.9165C33.3087 27.0039 36.0153 25.4751 33.4647 22.4097L33.5193 22.3551Z" fill="#231F20"/>
<path d="M32.6847 27.4172L35.5082 34.64L31.9749 27.737L32.6847 27.4172Z" fill="#231F20"/>
<path d="M22.7707 7.23094C22.2559 6.14674 21.7646 5.04695 21.2966 3.94716C20.7584 2.84736 20.3372 1.73197 20.3372 0.47617L20.4074 0.452759C21.203 1.41996 21.593 2.55096 21.8816 3.73655C22.2248 4.88315 22.5445 6.03755 22.8409 7.20754L22.7707 7.23094Z" fill="#231F20"/>
</svg>
