<svg width="39" height="39" viewBox="0 0 39 39" fill="none" xmlns="http://www.w3.org/2000/svg">
<path d="M1.53247 28.7407L9.93756 28.2361L9.09492 18.8328L2.31073 19.8203L3.09971 21.6184H4.2322L4.41469 24.6669L4.96751 24.7474L5.14462 21.4037L5.73502 21.4896L6.21807 23.5076L6.30932 24.9138L6.787 24.9514L6.91045 21.4037H7.62428L8.0644 24.9514L2.61129 25.0802L2.49858 27.0339L1.53247 28.7407Z" fill="#0D92F4"/>
<path d="M24.5525 19.5466L33.0864 18.8328L33.505 27.8283L25.4488 28.5367L26.2807 26.8299L26.3076 24.9836L30.1129 24.8226L29.5387 21.3876L29.0771 21.409H28.7121L28.7711 24.7474L28.2398 24.7635L27.8587 21.409L27.22 21.4359L27.016 24.7474L24.5525 19.5466Z" fill="#0D92F4"/>
<path d="M11.3115 18.9723L14.2367 18.8328L14.5158 28.7407H11.5906L11.3115 18.9723Z" fill="#F9C932"/>
<path d="M33.0864 18.8328H38.2282V28L33.5051 27.8283L33.0864 18.8328Z" fill="#F9C932"/>
<path d="M0.781157 19.4071C0.899236 22.4718 0.754321 25.7297 1.70432 28.6602L1.52721 28.5475C3.61506 28.4831 5.70292 28.3328 7.7854 28.2469C9.61563 28.1557 12.2348 28.1289 14.0382 27.9303L14.049 27.9839C13.0345 28.2738 11.9879 28.4026 10.9467 28.5368C7.93568 28.891 4.57579 28.9017 1.53257 28.9286H1.39839L1.35545 28.8159C0.80263 27.2808 0.807996 25.7029 0.716753 24.1088C0.716753 22.5738 0.577202 20.8241 0.781157 19.4017V19.4071Z" fill="#231F20"/>
<path d="M0.233644 19.8741C3.18025 19.5038 6.12687 19.1549 9.07348 18.8114L9.29889 18.7845L9.32036 19.0153C9.55652 21.6399 9.90003 24.4845 9.6746 27.0286C9.20765 24.3879 8.9876 21.7204 8.86952 19.0475L9.11641 19.2569C6.1859 19.434 3.06754 19.8312 0.228271 19.8687L0.233644 19.8741Z" fill="#231F20"/>
<path d="M9.09497 19.01C10.0718 18.9456 11.054 18.8812 12.0308 18.8436C12.0845 19.5682 12.2026 20.2928 12.2455 21.0227C12.2616 21.6883 12.2402 22.3592 12.1006 23.0354H12.0469C11.8376 22.3806 11.7464 21.7151 11.6873 21.0496C11.6551 20.384 11.6873 19.7131 11.6712 19.0476L11.8537 19.2247C10.9306 19.1871 10.0074 19.1227 9.0896 19.0637V19.01H9.09497Z" fill="#231F20"/>
<path d="M12.0523 28.2362C11.9611 27.3936 11.8108 26.5509 11.8108 25.7136C11.8484 25.4345 11.902 25.1554 12.0523 24.871H12.106C12.3904 25.4184 12.3851 25.9766 12.2938 26.5509C12.2455 27.1091 12.1811 27.6727 12.106 28.2309H12.0523V28.2362Z" fill="#231F20"/>
<path d="M11.8645 19.0099L13.6786 18.9294H13.7753L13.786 19.0314L14.1134 23.0246C14.1939 24.1679 14.3173 26.0196 14.0168 27.034C13.4639 24.7583 13.625 21.393 13.5713 19.0422L13.6786 19.1441L11.8645 19.0636V19.0099Z" fill="#231F20"/>
<path d="M8.24701 26.8461C6.28261 26.9803 4.31283 27.1199 2.34306 27.2326C2.31085 26.9911 2.08543 25.2252 2.05322 24.9837C2.62215 24.7583 3.15352 24.7905 3.72781 24.7314C5.2038 24.6456 6.67979 24.6778 8.15041 24.8012C8.13431 24.9891 8.11284 25.1769 8.086 25.3648H8.03233C8.01086 25.2038 7.98939 25.0428 7.97865 24.8764L8.06453 24.9569C7.10916 25.0803 6.14844 25.1447 5.1877 25.2091C4.37725 25.2628 3.49702 25.2735 2.68657 25.3165C2.58459 25.3165 2.4343 25.3487 2.42356 25.3379L2.54164 25.1072L2.68657 27.0233L2.49334 26.8515C4.37187 26.873 6.45972 26.7012 8.24164 26.8515L8.24701 26.8461Z" fill="#231F20"/>
<path d="M3.19095 25.0267C3.18558 24.1035 3.13728 22.5578 3.20705 21.6561C3.26609 21.3233 3.71694 21.4146 3.96383 21.4038C4.06581 21.4199 4.11948 21.3877 4.24292 21.5219C4.64546 22.6275 4.60252 23.8137 4.46834 24.9676H4.41468C4.22146 24.3665 4.10874 23.76 4.01213 23.1535C3.94236 22.7188 3.90479 22.1499 3.86185 21.7795C3.89942 21.8493 4.02823 21.8708 3.98529 21.86C3.85111 21.8224 3.59349 21.8278 3.50761 21.8225C3.50761 21.8225 3.56129 21.8063 3.57739 21.7795C3.59886 21.7634 3.60959 21.7044 3.60959 21.7205C3.55055 22.064 3.48078 22.8315 3.44321 23.1911L3.25535 25.0267H3.20168H3.19095Z" fill="#231F20"/>
<path d="M4.94071 24.9515C4.84946 23.9263 4.73138 22.9012 4.73675 21.8653C4.74748 21.7311 4.72066 21.7258 4.7797 21.554C4.94608 21.2964 5.14466 21.3071 5.37545 21.2749C6.25031 21.189 6.22884 22.284 6.34692 22.9978C6.39522 23.6311 6.41133 24.2645 6.33082 24.9085H6.27716C6.06247 24.302 5.93365 23.6848 5.81557 23.0676C5.73506 22.6489 5.68138 22.1605 5.61161 21.7794C5.62234 21.7204 5.29495 21.6721 5.20371 21.715C5.15541 21.715 5.08026 21.7687 5.12856 21.7311C5.02122 22.6972 5.02659 23.8995 4.99438 24.9461H4.94071V24.9515Z" fill="#231F20"/>
<path d="M6.78695 24.9032C6.72254 23.7599 6.53468 22.6114 6.70107 21.4681C6.81915 21.1944 7.29684 21.1515 7.5652 21.2159C7.71012 21.2373 7.8604 21.4252 7.87114 21.5325C8.17707 22.6275 8.21463 23.7438 8.09655 24.871L8.04288 24.8763C7.82819 24.2645 7.70474 23.6472 7.59203 23.03C7.50615 22.5845 7.47933 22.1015 7.41492 21.6613C7.39882 21.6023 7.41491 21.6613 7.44175 21.6613C7.44712 21.6613 7.44175 21.656 7.42565 21.6506C7.31294 21.6023 7.13046 21.6291 7.01238 21.6774C7.03384 21.6774 7.07141 21.6345 7.07678 21.6184C6.87819 22.6865 6.91039 23.819 6.85135 24.9085H6.79769L6.78695 24.9032Z" fill="#231F20"/>
<path d="M4.88184 19.4393C5.11799 17.9204 5.37026 16.4015 5.63862 14.8879C5.89624 13.4065 6.11094 11.6944 6.81404 10.4224C6.78721 11.9789 6.46517 13.4817 6.05726 14.9738C5.69766 16.4712 5.32195 17.9633 4.93551 19.4501L4.88184 19.4393Z" fill="#231F20"/>
<path d="M6.62594 9.81055C6.87283 11.3617 7.10362 12.9182 7.32367 14.4747C7.53836 15.999 7.86577 17.7218 7.59741 19.1871C7.14119 17.6628 6.98017 16.1009 6.89966 14.523C6.77621 12.9557 6.66888 11.3885 6.57764 9.82128L6.6313 9.81592L6.62594 9.81055Z" fill="#231F20"/>
<path d="M24.5849 19.1978C24.7029 22.2624 24.558 25.5203 25.508 28.4509L25.3309 28.3382C27.4188 28.2737 29.5066 28.1235 31.5891 28.0376C33.4193 27.9463 36.0385 27.9195 37.8419 27.7209L37.8527 27.7746C36.8383 28.0644 35.7917 28.1932 34.7504 28.3274C31.7394 28.6817 28.3795 28.6924 25.3363 28.7192H25.2021L25.1592 28.6065C24.6063 27.0715 24.6117 25.4935 24.5205 23.8995C24.5205 22.3644 24.3809 20.6147 24.5849 19.1924V19.1978Z" fill="#231F20"/>
<path d="M24.0374 19.6701C26.984 19.2998 29.9306 18.9509 32.8772 18.6074L33.1026 18.5806L33.1241 18.8114C33.3602 21.4359 33.7037 24.2806 33.4783 26.8246C33.0114 24.1839 32.7913 21.5164 32.6732 18.8436L32.9201 19.0529C29.9896 19.23 26.8712 19.6272 24.032 19.6647L24.0374 19.6701Z" fill="#231F20"/>
<path d="M35.6682 18.806L37.4823 18.7255H37.5789L37.5897 18.8274L37.9171 22.8207C37.9976 23.9585 38.121 25.8263 37.8205 26.83C37.2677 24.5543 37.4287 21.189 37.375 18.8382L37.4823 18.9402L35.6682 18.8596V18.806Z" fill="#231F20"/>
<path d="M32.0452 26.6368C30.0808 26.771 28.111 26.9106 26.1412 27.0233L26.1198 26.8408C26.109 26.8032 25.8514 24.7315 25.8568 24.7744C26.1949 24.6241 26.4901 24.6187 26.8068 24.5812C28.5189 24.4202 30.2418 24.4524 31.954 24.5919C31.9379 24.7798 31.9164 24.9676 31.8896 25.1555H31.8359C31.8144 24.9945 31.7929 24.8334 31.7822 24.6671L31.8681 24.7476C30.9127 24.871 29.952 24.9354 28.9912 24.9998C28.1808 25.0535 27.3006 25.0642 26.4901 25.1072C26.3881 25.1072 26.2378 25.1394 26.2271 25.1286L26.3452 24.8978L26.4901 26.8139L26.2969 26.6422C28.1754 26.6637 30.2633 26.4919 32.0452 26.6422V26.6368Z" fill="#231F20"/>
<path d="M26.9893 24.8227C26.9839 23.8996 26.9356 22.3538 27.0054 21.4521C27.0644 21.1193 27.5153 21.2106 27.7622 21.1998C27.8641 21.2159 27.9178 21.1837 28.0413 21.3179C28.4438 22.4236 28.4009 23.6097 28.2667 24.7637H28.213C28.0198 24.1625 27.9071 23.556 27.8105 22.9495C27.7407 22.5148 27.7031 21.9459 27.6602 21.5755C27.6978 21.6453 27.8266 21.6668 27.7836 21.6561C27.6494 21.6185 27.3918 21.6238 27.306 21.6185C27.306 21.6185 27.3596 21.6024 27.3757 21.5755C27.3972 21.5594 27.4079 21.5004 27.4079 21.5165C27.3489 21.86 27.2791 22.6275 27.2415 22.9871L27.0537 24.8227H27H26.9893Z" fill="#231F20"/>
<path d="M28.7444 24.7475C28.6532 23.7224 28.5351 22.6972 28.5405 21.6613C28.5512 21.5272 28.5244 21.5218 28.5834 21.35C28.7498 21.0924 28.9484 21.1031 29.1792 21.0709C30.054 20.9797 30.0379 22.0961 30.1506 22.7938C30.1989 23.4272 30.215 24.0605 30.1345 24.7046L30.0809 24.7099C29.8662 24.0981 29.7374 23.4808 29.6193 22.8636C29.5388 22.445 29.4851 21.9565 29.4153 21.5755C29.4261 21.5164 29.0986 21.4681 29.0074 21.5111C28.9591 21.5111 28.884 21.5647 28.9323 21.5272C28.8249 22.4933 28.8303 23.6955 28.7981 24.7421H28.7444V24.7475Z" fill="#231F20"/>
<path d="M28.6853 19.2353C28.9215 17.7164 29.1737 16.1975 29.4421 14.6839C29.6997 13.2026 29.9144 11.4904 30.6175 10.2184C30.5907 11.7749 30.2686 13.2777 29.8607 14.7698C29.5011 16.2672 29.1254 17.7593 28.739 19.2461L28.6853 19.2353Z" fill="#231F20"/>
<path d="M30.4297 9.60657C30.6766 11.1577 30.9073 12.7142 31.1274 14.2707C31.3421 15.795 31.6695 17.5179 31.4011 18.9831C30.9449 17.4588 30.7839 15.897 30.7034 14.319C30.5799 12.7518 30.4726 11.1845 30.3813 9.6173L30.435 9.61194L30.4297 9.60657Z" fill="#231F20"/>
<path d="M5.84766 10.7337C9.95896 10.6263 14.0649 10.5351 18.1762 10.46C22.2499 10.3902 26.5383 10.2023 30.5101 10.6156C26.4042 10.9323 22.2929 10.9538 18.1816 10.8893C14.1078 10.8142 9.81941 10.9376 5.84766 10.7337Z" fill="#231F20"/>
<path d="M13.8127 9.91249C15.7772 9.83735 17.7416 9.77294 19.706 9.72464C21.6382 9.6817 23.7797 9.53142 25.5992 9.96617C23.6402 10.256 21.6757 10.2453 19.706 10.154C17.7791 10.052 15.6376 10.1433 13.8127 9.91249Z" fill="#231F20"/>
</svg>
